RobotoAvar2-wght200.ufo
<glyph name="exclam" format="2">
  <advance width="516.7872340425532"/>
  <unicode hex="0021"/>
  <outline>
    <contour>
      <point x="186.0" y="54.25531914893617" type="qcurve" smooth="yes"/>
      <point x="186.0" y="82.92553191489361"/>
      <point x="222.89361702127658" y="123.73404255319149"/>
      <point x="258.3936170212766" y="123.73404255319149" type="qcurve" smooth="yes"/>
      <point x="293.8936170212766" y="123.73404255319149"/>
      <point x="330.78723404255317" y="82.92553191489361"/>
      <point x="330.78723404255317" y="54.25531914893617" type="qcurve" smooth="yes"/>
      <point x="330.78723404255317" y="25.585106382978722"/>
      <point x="293.8936170212766" y="-15.22340425531915"/>
      <point x="258.3936170212766" y="-15.22340425531915" type="qcurve" smooth="yes"/>
      <point x="222.89361702127658" y="-15.22340425531915"/>
      <point x="186.0" y="25.585106382978722"/>
    </contour>
    <contour>
      <point x="217.5744680851064" y="410.0" type="line"/>
      <point x="210.39361702127658" y="1456.0" type="line"/>
      <point x="306.9148936170213" y="1456.0" type="line"/>
      <point x="299.7340425531915" y="410.0" type="line"/>
    </contour>
  </outline>
</glyph>
<glyph name="ampersand" format="2">
  <advance width="1137.1702127659573"/>
  <unicode hex="0026"/>
  <outline>
    <contour>
      <point x="78.43617021276596" y="380.0" type="qcurve" smooth="yes"/>
      <point x="78.43617021276596" y="526.7224371373308"/>
      <point x="230.60348162475825" y="745.7292069632496"/>
      <point x="351.17021276595744" y="820.9090909090909" type="qcurve" smooth="yes"/>
      <point x="490.26112185686657" y="907.6605415860736" type="line" smooth="yes"/>
      <point x="591.5996131528046" y="971.1508704061896"/>
      <point x="656.1702127659574" y="1108.6905222437138"/>
      <point x="656.1702127659574" y="1174.5454545454545" type="qcurve" smooth="yes"/>
      <point x="656.1702127659574" y="1283.8617021276596"/>
      <point x="567.8133462282398" y="1399.909090909091"/>
      <point x="481.17021276595744" y="1399.909090909091" type="qcurve" smooth="yes"/>
      <point x="390.6905222437137" y="1399.909090909091"/>
      <point x="298.17021276595744" y="1275.8007736943907"/>
      <point x="298.17021276595744" y="1169.090909090909" type="qcurve" smooth="yes"/>
      <point x="298.17021276595744" y="1094.1702127659576"/>
      <point x="376.0851063829787" y="962.6063829787234"/>
      <point x="476.17021276595744" y="840.0" type="qcurve" smooth="yes"/>
      <point x="1162.1702127659573" y="0.0" type="line"/>
      <point x="1051.2021276595744" y="0.0" type="line"/>
      <point x="406.02127659574467" y="790.0425531914893" type="line" smooth="yes"/>
      <point x="302.1063829787234" y="917.436170212766"/>
      <point x="207.39361702127658" y="1079.8085106382978"/>
      <point x="207.39361702127658" y="1169.090909090909" type="qcurve" smooth="yes"/>
      <point x="207.39361702127658" y="1316.6808510638298"/>
      <point x="356.20406189555126" y="1486.0"/>
      <point x="481.17021276595744" y="1486.0" type="qcurve" smooth="yes"/>
      <point x="602.4874274661508" y="1486.0"/>
      <point x="742.1595744680851" y="1324.1411992263056"/>
      <point x="742.1595744680851" y="1180.0" type="qcurve" smooth="yes"/>
      <point x="742.1595744680851" y="1080.0"/>
      <point x="654.0087040618955" y="907.4642166344294"/>
      <point x="549.8065764023211" y="841.8181818181819" type="qcurve" smooth="yes"/>
      <point x="410.715667311412" y="755.0667311411992" type="line" smooth="yes"/>
      <point x="288.69729206963245" y="679.3394584139265"/>
      <point x="170.17021276595744" y="495.6547388781431"/>
      <point x="170.17021276595744" y="380.0" type="qcurve" smooth="yes"/>
      <point x="170.17021276595744" y="247.66054158607352"/>
      <point x="326.17021276595744" y="66.0909090909091"/>
      <point x="474.35203094777563" y="66.0909090909091" type="qcurve" smooth="yes"/>
      <point x="671.1702127659574" y="66.0909090909091"/>
      <point x="971.1702127659574" y="402.72727272727275"/>
      <point x="971.1702127659574" y="674.0" type="qcurve"/>
      <point x="1068.1702127659573" y="674.0" type="line"/>
      <point x="1068.1702127659573" y="380.0"/>
      <point x="716.1702127659574" y="-20.0"/>
      <point x="474.35203094777563" y="-20.0" type="qcurve" smooth="yes"/>
      <point x="281.52127659574467" y="-20.0"/>
      <point x="78.43617021276596" y="211.25531914893617"/>
    </contour>
  </outline>
</glyph>
<glyph name="quotesingle" format="2">
  <advance width="400.0"/>
  <unicode hex="0027"/>
  <outline>
    <contour>
      <point x="162.53191489361703" y="966.0" type="line"/>
      <point x="150.56382978723406" y="1320.0" type="line"/>
      <point x="150.56382978723406" y="1456.0" type="line"/>
      <point x="249.95744680851064" y="1456.0" type="line"/>
      <point x="249.95744680851064" y="1320.0" type="line"/>
      <point x="237.98936170212767" y="966.0" type="line"/>
    </contour>
  </outline>
</glyph>
<glyph name="parenleft" format="2">
  <advance width="602.0"/>
  <unicode hex="0028"/>
  <outline>
    <contour>
      <point x="566.0" y="-436.0" type="line"/>
      <point x="399.531914893617" y="-340.0"/>
      <point x="124.0" y="129.5744680851064"/>
      <point x="124.0" y="515.0" type="qcurve" smooth="yes"/>
      <point x="124.0" y="525.0" type="line" smooth="yes"/>
      <point x="124.0" y="927.4255319148937"/>
      <point x="399.531914893617" y="1380.0"/>
      <point x="566.0" y="1476.0" type="qcurve"/>
      <point x="566.0" y="1386.1808510638298" type="line"/>
      <point x="439.9148936170213" y="1300.7978723404256"/>
      <point x="221.0" y="900.0957446808511"/>
      <point x="221.0" y="532.0" type="qcurve" smooth="yes"/>
      <point x="221.0" y="508.0" type="line" smooth="yes"/>
      <point x="221.0" y="155.46808510638297"/>
      <point x="440.43617021276594" y="-261.3191489361702"/>
      <point x="566.0" y="-346.1808510638298" type="qcurve"/>
    </contour>
  </outline>
</glyph>
<glyph name="parenright" format="2">
  <advance width="602.0"/>
  <unicode hex="0029"/>
  <outline>
    <contour>
      <point x="36.0" y="-436.0" type="qcurve"/>
      <point x="36.0" y="-346.1808510638298" type="line"/>
      <point x="162.08510638297872" y="-260.7978723404255"/>
      <point x="381.0" y="146.6063829787234"/>
      <point x="381.0" y="508.0" type="qcurve" smooth="yes"/>
      <point x="381.0" y="532.0" type="line" smooth="yes"/>
      <point x="381.0" y="891.2340425531914"/>
      <point x="161.56382978723403" y="1301.3191489361702"/>
      <point x="36.0" y="1386.1808510638298" type="qcurve"/>
      <point x="36.0" y="1476.0" type="line"/>
      <point x="202.46808510638297" y="1380.0"/>
      <point x="478.0" y="918.563829787234"/>
      <point x="478.0" y="525.0" type="qcurve" smooth="yes"/>
      <point x="478.0" y="515.0" type="line" smooth="yes"/>
      <point x="478.0" y="120.7127659574468"/>
      <point x="202.46808510638297" y="-340.0"/>
    </contour>
  </outline>
</glyph>
<glyph name="asterisk" format="2">
  <advance width="1080.0"/>
  <unicode hex="002A"/>
  <outline>
    <contour>
      <point x="73.11702127659575" y="1102.3510638297873" type="line"/>
      <point x="102.40425531914893" y="1191.6489361702127" type="line"/>
      <point x="511.1489361702128" y="1035.7340425531916" type="line"/>
      <point x="492.43617021276594" y="1476.0" type="line"/>
      <point x="587.563829787234" y="1476.0" type="line"/>
      <point x="568.8510638297872" y="1035.7340425531916" type="line"/>
      <point x="977.5957446808511" y="1191.6489361702127" type="line"/>
      <point x="1006.8829787234042" y="1102.3510638297873" type="line"/>
      <point x="587.1276595744681" y="979.4255319148937" type="line"/>
      <point x="858.4255319148937" y="642.8510638297872" type="line"/>
      <point x="781.5744680851063" y="587.1489361702128" type="line"/>
      <point x="540.0" y="945.2234042553191" type="line"/>
      <point x="298.4255319148936" y="587.1489361702128" type="line"/>
      <point x="221.5744680851064" y="642.8510638297872" type="line"/>
      <point x="492.8723404255319" y="979.4255319148937" type="line"/>
    </contour>
  </outline>
</glyph>
<glyph name="plus" format="2">
  <advance width="1024.0"/>
  <unicode hex="002B"/>
  <outline>
    <contour>
      <point x="57.0" y="632.1808510638298" type="line"/>
      <point x="57.0" y="714.3404255319149" type="line"/>
      <point x="967.0" y="714.3404255319149" type="line"/>
      <point x="967.0" y="632.1808510638298" type="line"/>
    </contour>
    <contour>
      <point x="466.82978723404256" y="188.0" type="line"/>
      <point x="466.82978723404256" y="1160.0" type="line"/>
      <point x="556.6489361702128" y="1160.0" type="line"/>
      <point x="556.6489361702128" y="188.0" type="line"/>
    </contour>
  </outline>
</glyph>
<glyph name="comma" format="2">
  <advance width="580.0"/>
  <unicode hex="002C"/>
  <outline>
    <contour>
      <point x="135.02127659574467" y="-235.72340425531914" type="line"/>
      <point x="185.62765957446808" y="-174.32978723404256"/>
      <point x="253.7872340425532" y="-29.904255319148938"/>
      <point x="254.3085106382979" y="70.0" type="qcurve" smooth="yes"/>
      <point x="254.3085106382979" y="220.0" type="line"/>
      <point x="344.1276595744681" y="220.0" type="line"/>
      <point x="344.1276595744681" y="70.0" type="line" smooth="yes"/>
      <point x="344.1276595744681" y="-40.0"/>
      <point x="254.38297872340425" y="-208.88297872340425"/>
      <point x="187.89361702127658" y="-272.75531914893617" type="qcurve"/>
    </contour>
  </outline>
</glyph>
<glyph name="hyphen" format="2">
  <advance width="714.0"/>
  <unicode hex="002D"/>
  <outline>
    <contour>
      <point x="75.0" y="590.9148936170213" type="line"/>
      <point x="75.0" y="676.9042553191489" type="line"/>
      <point x="639.0" y="676.9042553191489" type="line"/>
      <point x="639.0" y="590.9148936170213" type="line"/>
    </contour>
  </outline>
</glyph>
<glyph name="period" format="2">
  <advance width="580.0"/>
  <unicode hex="002E"/>
  <outline>
    <contour>
      <point x="214.7340425531915" y="57.12765957446808" type="qcurve" smooth="yes"/>
      <point x="214.7340425531915" y="87.23404255319149"/>
      <point x="253.06382978723406" y="130.0"/>
      <point x="290.0" y="130.0" type="qcurve" smooth="yes"/>
      <point x="326.93617021276594" y="130.0"/>
      <point x="365.2659574468085" y="87.23404255319149"/>
      <point x="365.2659574468085" y="57.12765957446808" type="qcurve" smooth="yes"/>
      <point x="365.2659574468085" y="27.54255319148936"/>
      <point x="326.93617021276594" y="-15.22340425531915"/>
      <point x="290.0" y="-15.22340425531915" type="qcurve" smooth="yes"/>
      <point x="253.06382978723406" y="-15.22340425531915"/>
      <point x="214.7340425531915" y="27.54255319148936"/>
    </contour>
  </outline>
</glyph>
<glyph name="zero" format="2">
  <advance width="1157.2446808510638"/>
  <unicode hex="0030"/>
  <outline>
    <contour>
      <point x="110.0" y="523.0" type="qcurve" smooth="yes"/>
      <point x="110.0" y="934.0" type="line" smooth="yes"/>
      <point x="110.0" y="1203.340425531915"/>
      <point x="355.7659574468085" y="1486.0"/>
      <point x="577.8510638297872" y="1486.0" type="qcurve" smooth="yes"/>
      <point x="799.5" y="1486.0"/>
      <point x="1047.2446808510638" y="1203.340425531915"/>
      <point x="1047.2446808510638" y="934.0" type="qcurve" smooth="yes"/>
      <point x="1047.2446808510638" y="523.0" type="line" smooth="yes"/>
      <point x="1047.2446808510638" y="252.6595744680851"/>
      <point x="799.5" y="-30.0"/>
      <point x="577.8510638297872" y="-30.0" type="qcurve" smooth="yes"/>
      <point x="355.7659574468085" y="-30.0"/>
      <point x="110.0" y="252.6595744680851"/>
    </contour>
    <contour>
      <point x="206.52127659574467" y="499.0" type="line" smooth="yes"/>
      <point x="206.52127659574467" y="298.52998065764024"/>
      <point x="394.1489361702128" y="59.36363636363636"/>
      <point x="577.8510638297872" y="59.36363636363636" type="qcurve" smooth="yes"/>
      <point x="762.5744680851063" y="59.36363636363636"/>
      <point x="950.7234042553191" y="298.52998065764024"/>
      <point x="950.7234042553191" y="499.0" type="qcurve" smooth="yes"/>
      <point x="950.7234042553191" y="957.0" type="line" smooth="yes"/>
      <point x="950.7234042553191" y="1158.512572533849"/>
      <point x="762.5744680851063" y="1396.6363636363637"/>
      <point x="577.8510638297872" y="1396.6363636363637" type="qcurve" smooth="yes"/>
      <point x="394.1489361702128" y="1396.6363636363637"/>
      <point x="206.52127659574467" y="1158.512572533849"/>
      <point x="206.52127659574467" y="957.0" type="qcurve" smooth="yes"/>
    </contour>
  </outline>
</glyph>
<glyph name="one" format="2">
  <advance width="1157.2446808510635"/>
  <unicode hex="0031"/>
  <outline>
    <contour>
      <point x="592.5" y="0.0" type="line"/>
      <point x="592.5" y="1357.9864603481624" type="line"/>
      <point x="151.14893617021275" y="1183.5493230174081" type="line"/>
      <point x="151.14893617021275" y="1287.276595744681" type="line"/>
      <point x="668.3181818181818" y="1481.4545454545455" type="line"/>
      <point x="688.063829787234" y="1481.4545454545455" type="line"/>
      <point x="688.063829787234" y="0.0" type="line"/>
    </contour>
  </outline>
</glyph>
<glyph name="two" format="2">
  <advance width="1157.2446808510638"/>
  <unicode hex="0032"/>
  <outline>
    <contour>
      <point x="88.64893617021276" y="0.0" type="line"/>
      <point x="88.64893617021276" y="70.67021276595744" type="line"/>
      <point x="652.8829787234042" y="607.1914893617021" type="line" smooth="yes"/>
      <point x="771.8191489361702" y="720.1276595744681"/>
      <point x="939.3723404255319" y="925.7872340425532"/>
      <point x="939.3723404255319" y="1069.5744680851064" type="qcurve" smooth="yes"/>
      <point x="939.3723404255319" y="1204.8955512572534"/>
      <point x="752.2872340425532" y="1396.6363636363637"/>
      <point x="586.8723404255319" y="1396.6363636363637" type="qcurve" smooth="yes"/>
      <point x="425.1063829787234" y="1396.6363636363637"/>
      <point x="202.02127659574467" y="1211.0551257253385"/>
      <point x="202.02127659574467" y="1030.0" type="qcurve" smooth="yes"/>
      <point x="202.02127659574467" y="1020.0" type="line"/>
      <point x="107.41489361702128" y="1020.0" type="line"/>
      <point x="107.41489361702128" y="1031.563829787234" type="line" smooth="yes"/>
      <point x="107.41489361702128" y="1245.6382978723404"/>
      <point x="383.8085106382979" y="1486.0"/>
      <point x="585.8723404255319" y="1486.0" type="qcurve" smooth="yes"/>
      <point x="790.1276595744681" y="1486.0"/>
      <point x="1034.4787234042553" y="1245.8297872340424"/>
      <point x="1034.4787234042553" y="1074.3617021276596" type="qcurve" smooth="yes"/>
      <point x="1034.4787234042553" y="910.468085106383"/>
      <point x="848.6382978723404" y="673.1489361702128"/>
      <point x="725.3723404255319" y="559.3829787234042" type="qcurve" smooth="yes"/>
      <point x="219.77659574468083" y="83.11702127659574" type="line"/>
      <point x="1066.9893617021276" y="83.11702127659574" type="line"/>
      <point x="1066.9893617021276" y="0.0" type="line"/>
    </contour>
  </outline>
</glyph>
<glyph name="three" format="2">
  <advance width="1157.2446808510638"/>
  <unicode hex="0033"/>
  <outline>
    <contour>
      <point x="73.95744680851064" y="380.0" type="qcurve" smooth="yes"/>
      <point x="73.95744680851064" y="390.0" type="line"/>
      <point x="166.64893617021278" y="390.0" type="line"/>
      <point x="166.64893617021278" y="380.0" type="line" smooth="yes"/>
      <point x="166.64893617021278" y="234.95841392649902"/>
      <point x="372.78723404255317" y="59.36363636363636"/>
      <point x="563.6489361702128" y="59.36363636363636" type="qcurve" smooth="yes"/>
      <point x="753.468085106383" y="59.36363636363636"/>
      <point x="958.1489361702128" y="237.56479690522247"/>
      <point x="958.1489361702128" y="400.0" type="qcurve" smooth="yes"/>
      <point x="958.1489361702128" y="545.7340425531914"/>
      <point x="737.8085106382979" y="717.4545454545455"/>
      <point x="523.8617021276596" y="717.0" type="qcurve" smooth="yes"/>
      <point x="344.74468085106383" y="717.0" type="line"/>
      <point x="344.74468085106383" y="804.1818181818181" type="line"/>
      <point x="507.3646034816248" y="804.1818181818181" type="line" smooth="yes"/>
      <point x="698.3036750483559" y="804.1818181818181"/>
      <point x="884.3723404255319" y="968.6112185686653"/>
      <point x="884.3723404255319" y="1095.212765957447" type="qcurve" smooth="yes"/>
      <point x="884.3723404255319" y="1241.8181818181818"/>
      <point x="713.2127659574468" y="1396.6363636363637"/>
      <point x="556.1489361702128" y="1396.6363636363637" type="qcurve" smooth="yes"/>
      <point x="408.3326885880077" y="1396.6363636363637"/>
      <point x="212.38297872340425" y="1239.0241779497098"/>
      <point x="212.38297872340425" y="1100.0" type="qcurve" smooth="yes"/>
      <point x="212.38297872340425" y="1090.0" type="line"/>
      <point x="119.17021276595744" y="1090.0" type="line"/>
      <point x="119.17021276595744" y="1100.0" type="line" smooth="yes"/>
      <point x="119.17021276595744" y="1267.2978723404256"/>
      <point x="368.8829787234043" y="1486.0"/>
      <point x="555.1489361702128" y="1486.0" type="qcurve" smooth="yes"/>
      <point x="752.0531914893617" y="1486.0"/>
      <point x="980.436170212766" y="1277.2978723404256"/>
      <point x="980.436170212766" y="1100.0" type="qcurve" smooth="yes"/>
      <point x="980.436170212766" y="993.2901353965183"/>
      <point x="848.4110251450677" y="801.3500967117989"/>
      <point x="706.9787234042553" y="766.0" type="qcurve"/>
      <point x="707.4787234042553" y="762.0" type="line"/>
      <point x="873.8936170212766" y="737.8191489361702"/>
      <point x="1054.6702127659573" y="539.4787234042553"/>
      <point x="1054.6702127659573" y="400.47872340425533" type="qcurve" smooth="yes"/>
      <point x="1054.6702127659573" y="202.60638297872342"/>
      <point x="790.8723404255319" y="-30.0"/>
      <point x="563.1489361702128" y="-30.0" type="qcurve" smooth="yes"/>
      <point x="327.13829787234044" y="-30.0"/>
      <point x="73.95744680851064" y="199.4787234042553"/>
    </contour>
  </outline>
</glyph>
<glyph name="four" format="2">
  <advance width="1157.2446808510635"/>
  <unicode hex="0034"/>
  <outline>
    <contour>
      <point x="823.4255319148936" y="0.0" type="line"/>
      <point x="823.4255319148936" y="411.55319148936167" type="line"/>
      <point x="823.4255319148936" y="438.01063829787233" type="line"/>
      <point x="823.4255319148936" y="1317.1499032882011" type="line"/>
      <point x="809.1528046421663" y="1317.1499032882011" type="line"/>
      <point x="166.9758220502901" y="462.98936170212767" type="line"/>
      <point x="764.8829787234042" y="462.98936170212767" type="line"/>
      <point x="802.7872340425531" y="462.98936170212767" type="line"/>
      <point x="1115.6808510638298" y="462.98936170212767" type="line"/>
      <point x="1115.6808510638298" y="383.70212765957444" type="line"/>
      <point x="37.588974854932296" y="383.70212765957444" type="line"/>
      <point x="37.588974854932296" y="451.3404255319149" type="line"/>
      <point x="810.9700193423598" y="1456.0" type="line"/>
      <point x="913.2446808510638" y="1456.0" type="line"/>
      <point x="913.2446808510638" y="0.0" type="line"/>
    </contour>
  </outline>
</glyph>
<glyph name="five" format="2">
  <advance width="1157.2446808510635"/>
  <unicode hex="0035"/>
  <outline>
    <contour>
      <point x="93.22340425531914" y="365.0" type="qcurve" smooth="yes"/>
      <point x="93.22340425531914" y="375.0" type="line"/>
      <point x="185.4574468085106" y="375.0" type="line"/>
      <point x="185.4574468085106" y="365.0" type="line" smooth="yes"/>
      <point x="185.4574468085106" y="224.05705996131525"/>
      <point x="406.558994197292" y="59.36363636363636"/>
      <point x="573.4148936170212" y="59.36363636363636" type="qcurve" smooth="yes"/>
      <point x="740.9255319148936" y="59.36363636363636"/>
      <point x="971.7872340425532" y="266.504835589942"/>
      <point x="971.7872340425532" y="465.0" type="qcurve" smooth="yes"/>
      <point x="971.7872340425532" y="645.7843326885879"/>
      <point x="745.654738878143" y="834.8181818181818"/>
      <point x="573.3481624758219" y="834.8181818181818" type="qcurve" smooth="yes"/>
      <point x="467.99129593810443" y="834.8181818181818"/>
      <point x="286.18858800773694" y="764.8810444874275"/>
      <point x="205.3723404255319" y="699.2765957446808" type="qcurve"/>
      <point x="140.61702127659572" y="730.0" type="line"/>
      <point x="214.61702127659572" y="1456.0" type="line"/>
      <point x="993.9042553191489" y="1456.0" type="line"/>
      <point x="993.9042553191489" y="1360.090909090909" type="line"/>
      <point x="291.29110251450675" y="1360.090909090909" type="line"/>
      <point x="234.80947775628624" y="813.7272727272726" type="line"/>
      <point x="302.9342359767892" y="861.3210831721469"/>
      <point x="484.35493230174086" y="924.7272727272727"/>
      <point x="581.7117988394584" y="924.7272727272727" type="qcurve" smooth="yes"/>
      <point x="794.6528046421663" y="924.7272727272727"/>
      <point x="1066.3936170212764" y="680.9922630560927"/>
      <point x="1066.3936170212764" y="465.0" type="qcurve" smooth="yes"/>
      <point x="1066.3936170212764" y="230.37524177949706"/>
      <point x="784.4574468085107" y="-30.0"/>
      <point x="573.4148936170212" y="-30.0" type="qcurve" smooth="yes"/>
      <point x="353.6489361702128" y="-30.0"/>
      <point x="93.22340425531914" y="193.95744680851064"/>
    </contour>
  </outline>
</glyph>
<glyph name="six" format="2">
  <advance width="1157.2446808510635"/>
  <unicode hex="0036"/>
  <outline>
    <contour>
      <point x="88.0" y="614.0" type="qcurve" smooth="yes"/>
      <point x="88.0" y="644.0" type="line" smooth="yes"/>
      <point x="88.0" y="1001.5851063829787"/>
      <point x="541.9081237911025" y="1472.884912959381"/>
      <point x="917.4177949709864" y="1472.884912959381" type="qcurve" smooth="yes"/>
      <point x="940.8936170212764" y="1472.884912959381" type="line"/>
      <point x="940.8936170212764" y="1383.5212765957447" type="line"/>
      <point x="918.3936170212766" y="1383.5212765957447" type="line" smooth="yes"/>
      <point x="604.1663442940038" y="1383.5212765957447"/>
      <point x="181.64893617021275" y="990.5676982591876"/>
      <point x="181.64893617021275" y="644.2417794970986" type="qcurve" smooth="yes"/>
      <point x="181.64893617021275" y="613.7582205029013" type="line" smooth="yes"/>
      <point x="181.64893617021275" y="314.4419729206963"/>
      <point x="417.23887814313343" y="59.36363636363636"/>
      <point x="608.9361702127659" y="59.36363636363636" type="qcurve" smooth="yes"/>
      <point x="799.6363636363635" y="59.36363636363636"/>
      <point x="998.6382978723403" y="268.1992263056093"/>
      <point x="998.6382978723403" y="454.2417794970986" type="qcurve" smooth="yes"/>
      <point x="998.6382978723403" y="640.5386847195357"/>
      <point x="798.7272727272726" y="857.5454545454545"/>
      <point x="607.8936170212764" y="857.5454545454545" type="qcurve" smooth="yes"/>
      <point x="427.96324951644095" y="857.5454545454545"/>
      <point x="181.44970986460345" y="636.6353965183753"/>
      <point x="181.97098646034812" y="460.8723404255319" type="qcurve"/>
      <point x="145.2659574468085" y="460.8723404255319" type="line"/>
      <point x="144.74468085106383" y="670.3384912959381"/>
      <point x="420.1160541586073" y="946.909090909091"/>
      <point x="632.7117988394583" y="946.909090909091" type="qcurve" smooth="yes"/>
      <point x="850.5657640232107" y="946.909090909091"/>
      <point x="1093.2446808510638" y="676.0725338491295"/>
      <point x="1093.2446808510638" y="454.2417794970986" type="qcurve" smooth="yes"/>
      <point x="1093.2446808510638" y="232.93230174081236"/>
      <point x="831.0106382978722" y="-30.0"/>
      <point x="607.9361702127659" y="-30.0" type="qcurve" smooth="yes"/>
      <point x="381.25531914893617" y="-30.0"/>
      <point x="88.0" y="276.6063829787234"/>
    </contour>
  </outline>
</glyph>
<glyph name="seven" format="2">
  <advance width="1157.2446808510638"/>
  <unicode hex="0037"/>
  <outline>
    <contour>
      <point x="273.4574468085106" y="0.0" type="line"/>
      <point x="947.8191489361702" y="1375.276595744681" type="line"/>
      <point x="98.11702127659575" y="1375.276595744681" type="line"/>
      <point x="98.11702127659575" y="1456.0" type="line"/>
      <point x="1046.1702127659573" y="1456.0" type="line"/>
      <point x="1046.1702127659573" y="1399.436170212766" type="line"/>
      <point x="371.4574468085106" y="0.0" type="line"/>
    </contour>
  </outline>
</glyph>
<glyph name="eight" format="2">
  <advance width="1157.2446808510638"/>
  <unicode hex="0038"/>
  <outline>
    <contour>
      <point x="99.91489361702128" y="386.0" type="qcurve" smooth="yes"/>
      <point x="99.91489361702128" y="519.5029013539652"/>
      <point x="274.9071566731141" y="716.3713733075435"/>
      <point x="419.9448742746615" y="746.0" type="qcurve"/>
      <point x="419.9448742746615" y="750.0" type="line"/>
      <point x="301.75531914893617" y="786.3568665377177"/>
      <point x="150.91489361702128" y="962.3085106382979"/>
      <point x="150.91489361702128" y="1087.0" type="qcurve" smooth="yes"/>
      <point x="150.91489361702128" y="1273.2553191489362"/>
      <point x="394.48936170212767" y="1486.0"/>
      <point x="580.3936170212766" y="1486.0" type="qcurve" smooth="yes"/>
      <point x="768.3617021276596" y="1486.0"/>
      <point x="1009.4574468085107" y="1274.7340425531916"/>
      <point x="1009.4574468085107" y="1087.0" type="qcurve" smooth="yes"/>
      <point x="1009.4574468085107" y="962.3085106382979"/>
      <point x="858.5744680851063" y="786.3568665377177"/>
      <point x="740.3636363636364" y="750.0" type="qcurve"/>
      <point x="740.3636363636364" y="746.0" type="line"/>
      <point x="884.9013539651838" y="716.3713733075435"/>
      <point x="1058.372340425532" y="519.5029013539652"/>
      <point x="1058.372340425532" y="386.0" type="qcurve" smooth="yes"/>
      <point x="1058.372340425532" y="203.63829787234042"/>
      <point x="798.6808510638298" y="-30.0"/>
      <point x="580.3936170212766" y="-30.0" type="qcurve" smooth="yes"/>
      <point x="362.6063829787234" y="-30.0"/>
      <point x="99.91489361702128" y="203.63829787234042"/>
    </contour>
    <contour>
      <point x="193.56382978723406" y="390.78723404255317" type="qcurve" smooth="yes"/>
      <point x="193.56382978723406" y="249.30270793036752"/>
      <point x="400.6063829787234" y="59.36363636363636"/>
      <point x="580.3936170212766" y="59.36363636363636" type="qcurve" smooth="yes"/>
      <point x="760.6353965183753" y="59.36363636363636"/>
      <point x="964.7234042553191" y="249.75725338491299"/>
      <point x="964.7234042553191" y="390.78723404255317" type="qcurve" smooth="yes"/>
      <point x="964.7234042553191" y="525.5038684719536"/>
      <point x="759.3471953578336" y="701.0"/>
      <point x="580.3936170212766" y="701.0" type="qcurve" smooth="yes"/>
      <point x="400.85203094777563" y="701.0"/>
      <point x="193.56382978723406" y="525.5038684719536"/>
    </contour>
    <contour>
      <point x="245.64893617021278" y="1082.212765957447" type="qcurve" smooth="yes"/>
      <point x="245.64893617021278" y="951.1740812379111"/>
      <point x="440.07736943907156" y="791.7272727272727"/>
      <point x="580.3936170212766" y="791.7272727272727" type="qcurve" smooth="yes"/>
      <point x="721.2311411992264" y="791.7272727272727"/>
      <point x="914.7234042553191" y="951.1740812379111"/>
      <point x="914.7234042553191" y="1082.212765957447" type="qcurve" smooth="yes"/>
      <point x="914.7234042553191" y="1229.2437137330753"/>
      <point x="730.9390715667311" y="1396.6363636363637"/>
      <point x="580.3936170212766" y="1396.6363636363637" type="qcurve" smooth="yes"/>
      <point x="431.14506769825914" y="1396.6363636363637"/>
      <point x="245.64893617021278" y="1229.2437137330753"/>
    </contour>
  </outline>
</glyph>
<glyph name="nine" format="2">
  <advance width="1157.2446808510638"/>
  <unicode hex="0039"/>
  <outline>
    <contour>
      <point x="69.58510638297872" y="997.0" type="qcurve" smooth="yes"/>
      <point x="69.58510638297872" y="1220.212765957447"/>
      <point x="331.8191489361702" y="1486.0"/>
      <point x="554.8936170212767" y="1486.0" type="qcurve" smooth="yes"/>
      <point x="781.5744680851063" y="1486.0"/>
      <point x="1074.8297872340427" y="1179.3936170212767"/>
      <point x="1074.8297872340427" y="842.0" type="qcurve" smooth="yes"/>
      <point x="1074.8297872340427" y="812.0" type="line" smooth="yes"/>
      <point x="1074.8297872340427" y="454.8829787234043"/>
      <point x="616.3510638297872" y="0.0"/>
      <point x="244.43617021276594" y="0.0" type="qcurve" smooth="yes"/>
      <point x="221.43617021276594" y="0.0" type="line"/>
      <point x="221.43617021276594" y="89.36363636363636" type="line"/>
      <point x="243.93617021276594" y="89.36363636363636" type="line" smooth="yes"/>
      <point x="555.436170212766" y="89.36363636363636"/>
      <point x="981.1808510638298" y="465.5"/>
      <point x="981.1808510638298" y="811.7582205029013" type="qcurve" smooth="yes"/>
      <point x="981.1808510638298" y="842.2417794970987" type="line" smooth="yes"/>
      <point x="981.1808510638298" y="1140.1943907156672"/>
      <point x="746.5" y="1396.6363636363637"/>
      <point x="553.8936170212767" y="1396.6363636363637" type="qcurve" smooth="yes"/>
      <point x="361.82978723404256" y="1396.6363636363637"/>
      <point x="164.1914893617021" y="1184.0580270793037"/>
      <point x="164.1914893617021" y="997.0" type="qcurve" smooth="yes"/>
      <point x="164.1914893617021" y="808.3239845261121"/>
      <point x="363.19342359767893" y="599.3636363636364"/>
      <point x="553.8936170212767" y="599.3636363636364" type="qcurve" smooth="yes"/>
      <point x="733.9574468085107" y="599.3636363636364"/>
      <point x="980.9042553191489" y="812.2272727272727"/>
      <point x="980.3829787234042" y="994.9148936170212" type="qcurve"/>
      <point x="1017.563829787234" y="994.9148936170212" type="line"/>
      <point x="1018.0851063829787" y="779.0"/>
      <point x="742.7137330754351" y="510.0"/>
      <point x="529.0754352030948" y="510.0" type="qcurve" smooth="yes"/>
      <point x="311.7882011605416" y="510.0"/>
      <point x="69.58510638297872" y="773.2659574468086"/>
    </contour>
  </outline>
</glyph>
<glyph name="colon" format="2">
  <advance width="600.0"/>
  <unicode hex="003A"/>
  <outline>
    <contour>
      <point x="227.60638297872342" y="47.47872340425532" type="qcurve" smooth="yes"/>
      <point x="227.60638297872342" y="76.14893617021276"/>
      <point x="265.02127659574467" y="117.47872340425532"/>
      <point x="300.0" y="117.47872340425532" type="qcurve" smooth="yes"/>
      <point x="334.97872340425533" y="117.47872340425532"/>
      <point x="372.3936170212766" y="76.14893617021276"/>
      <point x="372.3936170212766" y="47.47872340425532" type="qcurve" smooth="yes"/>
      <point x="372.3936170212766" y="18.80851063829787"/>
      <point x="334.97872340425533" y="-22.0"/>
      <point x="300.0" y="-22.0" type="qcurve" smooth="yes"/>
      <point x="265.02127659574467" y="-22.0"/>
      <point x="227.60638297872342" y="18.80851063829787"/>
    </contour>
    <contour>
      <point x="227.60638297872342" y="998.5212765957447" type="qcurve" smooth="yes"/>
      <point x="227.60638297872342" y="1027.1914893617022"/>
      <point x="265.02127659574467" y="1068.0"/>
      <point x="300.0" y="1068.0" type="qcurve" smooth="yes"/>
      <point x="334.97872340425533" y="1068.0"/>
      <point x="372.3936170212766" y="1027.1914893617022"/>
      <point x="372.3936170212766" y="998.5212765957447" type="qcurve" smooth="yes"/>
      <point x="372.3936170212766" y="969.8510638297872"/>
      <point x="334.97872340425533" y="928.5212765957447"/>
      <point x="300.0" y="928.5212765957447" type="qcurve" smooth="yes"/>
      <point x="265.02127659574467" y="928.5212765957447"/>
      <point x="227.60638297872342" y="969.8510638297872"/>
    </contour>
  </outline>
</glyph>
<glyph name="semicolon" format="2">
  <advance width="667.0"/>
  <unicode hex="003B"/>
  <outline>
    <contour>
      <point x="147.62765957446808" y="-234.2659574468085" type="line"/>
      <point x="244.82978723404256" y="-169.72340425531914"/>
      <point x="331.82978723404256" y="-24.734042553191486"/>
      <point x="332.3510638297872" y="70.0" type="qcurve" smooth="yes"/>
      <point x="332.3510638297872" y="220.0" type="line"/>
      <point x="422.17021276595744" y="220.0" type="line"/>
      <point x="422.17021276595744" y="70.0" type="line" smooth="yes"/>
      <point x="422.17021276595744" y="-40.0"/>
      <point x="311.02127659574467" y="-207.3191489361702"/>
      <point x="202.02127659574467" y="-274.3191489361702" type="qcurve"/>
    </contour>
    <contour>
      <point x="294.6063829787234" y="998.5212765957448" type="qcurve" smooth="yes"/>
      <point x="294.6063829787234" y="1027.1914893617022"/>
      <point x="332.02127659574467" y="1068.0"/>
      <point x="367.0" y="1068.0" type="qcurve" smooth="yes"/>
      <point x="401.97872340425533" y="1068.0"/>
      <point x="439.39361702127655" y="1027.1914893617022"/>
      <point x="439.39361702127655" y="998.5212765957448" type="qcurve" smooth="yes"/>
      <point x="439.39361702127655" y="969.8510638297871"/>
      <point x="401.97872340425533" y="928.5212765957447"/>
      <point x="367.0" y="928.5212765957447" type="qcurve" smooth="yes"/>
      <point x="332.02127659574467" y="928.5212765957447"/>
      <point x="294.6063829787234" y="969.8510638297871"/>
    </contour>
  </outline>
</glyph>
<glyph name="less" format="2">
  <advance width="1024.0"/>
  <unicode hex="003C"/>
  <outline>
    <contour>
      <point x="918.0" y="254.88297872340422" type="line"/>
      <point x="100.0" y="637.5319148936169" type="line"/>
      <point x="100.0" y="712.7234042553191" type="line"/>
      <point x="918.0" y="1091.723404255319" type="line"/>
      <point x="918.0" y="995.1595744680851" type="line"/>
      <point x="209.3191489361702" y="677.5212765957447" type="line"/>
      <point x="918.0" y="356.23404255319144" type="line"/>
    </contour>
  </outline>
</glyph>
<glyph name="equal" format="2">
  <advance width="1024.0"/>
  <unicode hex="003D"/>
  <outline>
    <contour>
      <point x="57.0" y="423.22340425531917" type="line"/>
      <point x="57.0" y="507.77659574468083" type="line"/>
      <point x="967.0" y="507.77659574468083" type="line"/>
      <point x="967.0" y="423.22340425531917" type="line"/>
    </contour>
    <contour>
      <point x="57.0" y="818.2234042553191" type="line"/>
      <point x="57.0" y="902.7765957446809" type="line"/>
      <point x="967.0" y="902.7765957446809" type="line"/>
      <point x="967.0" y="818.2234042553191" type="line"/>
    </contour>
  </outline>
</glyph>
<glyph name="question" format="2">
  <advance width="780.8617021276596"/>
  <unicode hex="003F"/>
  <outline>
    <contour>
      <point x="276.2127659574468" y="54.25531914893617" type="qcurve" smooth="yes"/>
      <point x="276.2127659574468" y="82.92553191489361"/>
      <point x="313.6276595744681" y="123.73404255319149"/>
      <point x="348.6063829787234" y="123.73404255319149" type="qcurve" smooth="yes"/>
      <point x="383.5851063829787" y="123.73404255319149"/>
      <point x="421.0" y="82.92553191489361"/>
      <point x="421.0" y="54.25531914893617" type="qcurve" smooth="yes"/>
      <point x="421.0" y="25.585106382978722"/>
      <point x="383.5851063829787" y="-15.22340425531915"/>
      <point x="348.6063829787234" y="-15.22340425531915" type="qcurve" smooth="yes"/>
      <point x="313.6276595744681" y="-15.22340425531915"/>
      <point x="276.2127659574468" y="25.585106382978722"/>
    </contour>
    <contour>
      <point x="60.0" y="1095.0" type="line"/>
      <point x="60.0" y="1115.0" type="line" smooth="yes"/>
      <point x="60.0" y="1277.9148936170213"/>
      <point x="228.39361702127658" y="1476.0"/>
      <point x="376.17021276595744" y="1476.0" type="qcurve" smooth="yes"/>
      <point x="525.5106382978723" y="1476.0"/>
      <point x="686.8617021276596" y="1270.0"/>
      <point x="686.8617021276596" y="1100.0" type="qcurve" smooth="yes"/>
      <point x="686.8617021276596" y="967.0425531914893"/>
      <point x="582.1276595744681" y="798.6595744680851"/>
      <point x="505.43617021276594" y="725.7978723404256" type="qcurve" smooth="yes"/>
      <point x="428.77659574468083" y="652.968085106383"/>
      <point x="388.29787234042556" y="534.3085106382979"/>
      <point x="388.29787234042556" y="451.27659574468083" type="qcurve" smooth="yes"/>
      <point x="388.29787234042556" y="410.0" type="line"/>
      <point x="295.6063829787234" y="410.0" type="line"/>
      <point x="295.6063829787234" y="451.27659574468083" type="line" smooth="yes"/>
      <point x="295.6063829787234" y="560.6382978723404"/>
      <point x="346.0531914893617" y="686.3936170212766"/>
      <point x="429.54255319148933" y="770.4893617021277" type="qcurve" smooth="yes"/>
      <point x="512.063829787234" y="852.531914893617"/>
      <point x="594.1702127659574" y="983.8404255319149"/>
      <point x="594.1702127659574" y="1100.0" type="qcurve" smooth="yes"/>
      <point x="594.1702127659574" y="1230.4003868471953"/>
      <point x="485.6489361702128" y="1384.4545454545455"/>
      <point x="377.2127659574468" y="1384.4545454545455" type="qcurve" smooth="yes"/>
      <point x="267.2127659574468" y="1384.4545454545455"/>
      <point x="152.2127659574468" y="1237.2727272727273"/>
      <point x="152.2127659574468" y="1115.0" type="qcurve" smooth="yes"/>
      <point x="152.2127659574468" y="1095.0" type="line"/>
    </contour>
  </outline>
</glyph>
<glyph name="at" format="2">
  <advance width="2110.0"/>
  <unicode hex="0040"/>
  <outline>
    <contour>
      <point x="658.2659574468084" y="388.531914893617" type="qcurve" smooth="yes"/>
      <point x="658.2659574468084" y="656.0212765957447"/>
      <point x="944.9255319148936" y="1052.0"/>
      <point x="1116.092843326886" y="1052.0" type="qcurve" smooth="yes"/>
      <point x="1194.5454545454545" y="1052.0"/>
      <point x="1332.956479690522" y="988.127659574468"/>
      <point x="1380.6170212765956" y="946.0" type="qcurve"/>
      <point x="1429.9574468085107" y="946.0" type="line"/>
      <point x="1306.8297872340424" y="350.0" type="line" smooth="yes"/>
      <point x="1281.7330754352029" y="226.5348162475822"/>
      <point x="1395.6460348162475" y="77.36363636363636"/>
      <point x="1509.090909090909" y="77.36363636363636" type="qcurve" smooth="yes"/>
      <point x="1675.7137330754351" y="77.36363636363636"/>
      <point x="1858.223404255319" y="391.2088974854932"/>
      <point x="1858.223404255319" y="650.0" type="qcurve" smooth="yes"/>
      <point x="1858.223404255319" y="958.2030947775628"/>
      <point x="1445.97582205029" y="1397.7272727272725"/>
      <point x="1100.0" y="1397.7272727272725" type="qcurve" smooth="yes"/>
      <point x="746.8056092843326" y="1397.7272727272725"/>
      <point x="253.08510638297867" y="863.6247582205028"/>
      <point x="253.08510638297867" y="460.0" type="qcurve" smooth="yes"/>
      <point x="253.08510638297867" y="74.38684719535783"/>
      <point x="672.4477756286267" y="-357.7272727272727"/>
      <point x="1000.0" y="-357.7272727272727" type="qcurve" smooth="yes"/>
      <point x="1140.0" y="-357.7272727272727"/>
      <point x="1331.2727272727273" y="-307.3636363636364"/>
      <point x="1400.0" y="-267.72727272727275" type="qcurve"/>
      <point x="1400.0" y="-356.0" type="line"/>
      <point x="1330.0" y="-400.0"/>
      <point x="1140.0" y="-446.0"/>
      <point x="1000.0" y="-446.0" type="qcurve" smooth="yes"/>
      <point x="640.0" y="-446.0"/>
      <point x="160.39361702127658" y="40.0"/>
      <point x="160.39361702127658" y="460.0" type="qcurve" smooth="yes"/>
      <point x="160.39361702127658" y="893.5531914893617"/>
      <point x="716.6808510638298" y="1486.0"/>
      <point x="1099.4787234042553" y="1486.0" type="qcurve" smooth="yes"/>
      <point x="1477.0638297872338" y="1486.0"/>
      <point x="1948.0425531914893" y="1000.0"/>
      <point x="1948.0425531914893" y="650.0" type="qcurve" smooth="yes"/>
      <point x="1948.0425531914893" y="360.0"/>
      <point x="1714.787234042553" y="0.0"/>
      <point x="1520.0" y="0.0" type="qcurve" smooth="yes"/>
      <point x="1393.0531914893616" y="0.0"/>
      <point x="1234.2785299806574" y="138.01547388781432"/>
      <point x="1216.7475822050287" y="236.2640232108317" type="qcurve"/>
      <point x="1176.8268858800773" y="137.41489361702128"/>
      <point x="1019.5164410058027" y="0.0"/>
      <point x="920.5212765957447" y="0.0" type="qcurve" smooth="yes"/>
      <point x="794.5957446808511" y="0.0"/>
      <point x="658.2659574468084" y="202.7978723404255"/>
    </contour>
    <contour>
      <point x="752.8723404255318" y="388.531914893617" type="qcurve" smooth="yes"/>
      <point x="752.8723404255318" y="241.04255319148933"/>
      <point x="851.6344294003868" y="88.72727272727273"/>
      <point x="947.2727272727273" y="88.72727272727273" type="qcurve" smooth="yes"/>
      <point x="1043.0570599613152" y="88.72727272727273"/>
      <point x="1186.8413926499031" y="227.4603481624758"/>
      <point x="1214.3626692456478" y="359.47872340425533" type="qcurve" smooth="yes"/>
      <point x="1327.4651837524177" y="896.8636363636364" type="line"/>
      <point x="1288.6034816247582" y="930.2833655705996"/>
      <point x="1186.5473887814314" y="972.4545454545454"/>
      <point x="1128.1818181818182" y="972.4545454545454" type="qcurve" smooth="yes"/>
      <point x="983.3491295938104" y="972.4545454545454"/>
      <point x="752.8723404255318" y="626.6972920696325"/>
    </contour>
  </outline>
</glyph>
<glyph name="A" format="2">
  <advance width="1326.1808510638298"/>
  <unicode hex="0041"/>
  <anchor x="571.6702127659573" y="0.0" name="bottom"/>
  <anchor x="1097.851063829787" y="0.0" name="ogonek"/>
  <anchor x="571.6702127659573" y="1456.0" name="top"/>
  <anchor x="160.2659574468085" y="1074.0" name="tonos"/>
  <outline>
    <contour>
      <point x="0.0" y="0.0" type="line"/>
      <point x="613.4148936170213" y="1464.9574468085107" type="line"/>
      <point x="699.9255319148936" y="1464.9574468085107" type="line"/>
      <point x="1326.1808510638298" y="0.0" type="line"/>
      <point x="1221.287234042553" y="0.0" type="line"/>
      <point x="694.6063829787233" y="1258.8191489361702" type="line" smooth="yes"/>
      <point x="681.127659574468" y="1290.276595744681"/>
      <point x="666.1489361702127" y="1349.127659574468"/>
      <point x="660.1914893617021" y="1375.8723404255318" type="qcurve"/>
      <point x="651.2340425531914" y="1375.8723404255318" type="line"/>
      <point x="645.2765957446809" y="1349.127659574468"/>
      <point x="628.7978723404256" y="1289.776595744681"/>
      <point x="615.8191489361702" y="1257.776595744681" type="qcurve" smooth="yes"/>
      <point x="99.56382978723403" y="0.0" type="line"/>
    </contour>
    <contour>
      <point x="222.5145067698259" y="416.81818181818176" type="line"/>
      <point x="264.8172147001934" y="506.18181818181813" type="line"/>
      <point x="1057.323984526112" y="506.18181818181813" type="line"/>
      <point x="1100.1905222437135" y="416.81818181818176" type="line"/>
    </contour>
  </outline>
</glyph>
<glyph name="B" format="2">
  <advance width="1188.7553191489362"/>
  <unicode hex="0042"/>
  <anchor x="527.8297872340426" y="0.0" name="bottom"/>
  <anchor x="527.8297872340426" y="1456.0" name="top"/>
  <outline>
    <contour>
      <point x="170.0" y="0.0" type="line"/>
      <point x="170.0" y="1456.0" type="line"/>
      <point x="674.1489361702128" y="1456.0" type="line" smooth="yes"/>
      <point x="852.4468085106382" y="1456.0"/>
      <point x="1050.7553191489362" y="1270.0"/>
      <point x="1050.7553191489362" y="1070.0" type="qcurve" smooth="yes"/>
      <point x="1050.7553191489362" y="950.0"/>
      <point x="937.0957446808511" y="793.8781431334623"/>
      <point x="840.8404255319149" y="768.0" type="qcurve"/>
      <point x="840.8404255319149" y="764.0" type="line"/>
      <point x="957.0957446808511" y="740.7282398452611"/>
      <point x="1088.7553191489362" y="552.1808510638298"/>
      <point x="1088.7553191489362" y="420.0" type="qcurve" smooth="yes"/>
      <point x="1088.7553191489362" y="220.0"/>
      <point x="898.7340425531914" y="0.0"/>
      <point x="704.1489361702128" y="0.0" type="qcurve" smooth="yes"/>
    </contour>
    <contour>
      <point x="263.6489361702128" y="89.36363636363636" type="line"/>
      <point x="704.1489361702128" y="89.36363636363636" type="line" smooth="yes"/>
      <point x="862.7852998065764" y="89.36363636363636"/>
      <point x="994.1489361702128" y="262.72727272727275"/>
      <point x="994.1489361702128" y="420.0" type="qcurve" smooth="yes"/>
      <point x="994.1489361702128" y="549.3829787234042"/>
      <point x="852.5851063829787" y="717.2727272727273"/>
      <point x="704.1489361702128" y="717.2727272727273" type="qcurve" smooth="yes"/>
      <point x="223.7872340425532" y="717.2727272727273" type="line"/>
      <point x="223.7872340425532" y="805.5454545454545" type="line"/>
      <point x="687.7852998065764" y="805.5454545454545" type="line" smooth="yes"/>
      <point x="823.1063829787234" y="805.5454545454545"/>
      <point x="956.1489361702128" y="945.9255319148937"/>
      <point x="956.1489361702128" y="1070.0" type="qcurve" smooth="yes"/>
      <point x="956.1489361702128" y="1219.5454545454545"/>
      <point x="819.0947775628628" y="1366.6363636363637"/>
      <point x="674.1489361702128" y="1366.6363636363637" type="qcurve" smooth="yes"/>
      <point x="263.6489361702128" y="1366.6363636363637" type="line"/>
    </contour>
  </outline>
</glyph>
<glyph name="C" format="2">
  <advance width="1315.6063829787233"/>
  <unicode hex="0043"/>
  <anchor x="613.0425531914893" y="0.0" name="bottom"/>
  <anchor x="623.0425531914893" y="1456.0" name="top"/>
  <outline>
    <contour>
      <point x="115.0" y="700.5" type="qcurve" smooth="yes"/>
      <point x="115.0" y="755.5" type="line" smooth="yes"/>
      <point x="115.0" y="1096.872340425532"/>
      <point x="442.968085106383" y="1486.0"/>
      <point x="701.0425531914893" y="1486.0" type="qcurve" smooth="yes"/>
      <point x="956.468085106383" y="1486.0"/>
      <point x="1231.6063829787233" y="1203.0851063829787"/>
      <point x="1231.6063829787233" y="1000.0" type="qcurve" smooth="yes"/>
      <point x="1231.6063829787233" y="990.0" type="line"/>
      <point x="1136.0425531914893" y="990.0" type="line"/>
      <point x="1136.0425531914893" y="1000.0" type="line" smooth="yes"/>
      <point x="1136.0425531914893" y="1167.8365570599613"/>
      <point x="921.0425531914893" y="1393.3636363636363"/>
      <point x="702.5425531914893" y="1393.3636363636363" type="qcurve" smooth="yes"/>
      <point x="484.4970986460348" y="1393.3636363636363"/>
      <point x="212.04255319148936" y="1069.7272727272727"/>
      <point x="212.04255319148936" y="764.0" type="qcurve" smooth="yes"/>
      <point x="212.04255319148936" y="692.0" type="line" smooth="yes"/>
      <point x="212.04255319148936" y="398.2514506769826"/>
      <point x="486.17891682785296" y="62.63636363636364"/>
      <point x="702.5425531914893" y="62.63636363636364" type="qcurve" smooth="yes"/>
      <point x="908.3636363636364" y="62.63636363636364"/>
      <point x="1113.4970986460348" y="282.2059961315281"/>
      <point x="1134.5425531914893" y="456.0" type="qcurve" smooth="yes"/>
      <point x="1136.0425531914893" y="466.0" type="line"/>
      <point x="1231.6063829787233" y="466.0" type="line"/>
      <point x="1230.6063829787233" y="456.0" type="line" smooth="yes"/>
      <point x="1208.6063829787233" y="253.39361702127658"/>
      <point x="954.9042553191489" y="-30.0"/>
      <point x="701.0425531914893" y="-30.0" type="qcurve" smooth="yes"/>
      <point x="444.531914893617" y="-30.0"/>
      <point x="115.0" y="360.17021276595744"/>
    </contour>
  </outline>
</glyph>
<glyph name="D" format="2">
  <advance width="1310.0425531914893"/>
  <unicode hex="0044"/>
  <anchor x="633.2659574468084" y="0.0" name="bottom"/>
  <anchor x="244.85106382978722" y="728.0" name="center"/>
  <anchor x="631.7021276595744" y="1456.0" name="top"/>
  <outline>
    <contour>
      <point x="170.0" y="0.0" type="line"/>
      <point x="170.0" y="1456.0" type="line"/>
      <point x="592.563829787234" y="1456.0" type="line" smooth="yes"/>
      <point x="871.8085106382979" y="1456.0"/>
      <point x="1196.0851063829787" y="1074.8839458413927"/>
      <point x="1196.0851063829787" y="752.0" type="qcurve" smooth="yes"/>
      <point x="1196.0851063829787" y="698.0" type="line" smooth="yes"/>
      <point x="1196.0851063829787" y="378.5"/>
      <point x="872.1963249516441" y="0.0"/>
      <point x="592.563829787234" y="0.0" type="qcurve" smooth="yes"/>
    </contour>
    <contour>
      <point x="265.56382978723406" y="89.36363636363636" type="line"/>
      <point x="591.563829787234" y="89.36363636363636" type="line" smooth="yes"/>
      <point x="829.063829787234" y="89.36363636363636"/>
      <point x="1099.563829787234" y="415.8181818181818"/>
      <point x="1099.563829787234" y="692.0454545454545" type="qcurve" smooth="yes"/>
      <point x="1099.563829787234" y="763.4545454545455" type="line" smooth="yes"/>
      <point x="1099.563829787234" y="1031.2998065764023"/>
      <point x="828.9303675048355" y="1366.6363636363637"/>
      <point x="591.563829787234" y="1366.6363636363637" type="qcurve" smooth="yes"/>
      <point x="265.56382978723406" y="1366.6363636363637" type="line"/>
    </contour>
  </outline>
</glyph>
<glyph name="E" format="2">
  <advance width="1170.5638297872338"/>
  <unicode hex="0045"/>
  <anchor x="579.436170212766" y="0.0" name="bottom"/>
  <anchor x="996.5212765957446" y="0.0" name="ogonek"/>
  <anchor x="586.6170212765958" y="1456.0" name="top"/>
  <anchor x="-73.43617021276594" y="1074.0" name="tonos"/>
  <outline>
    <contour>
      <point x="170.0" y="0.0" type="line"/>
      <point x="170.0" y="1456.0" type="line"/>
      <point x="1092.563829787234" y="1456.0" type="line"/>
      <point x="1092.563829787234" y="1366.6363636363635" type="line"/>
      <point x="265.563829787234" y="1366.6363636363635" type="line"/>
      <point x="265.563829787234" y="89.36363636363636" type="line"/>
      <point x="1102.563829787234" y="89.36363636363636" type="line"/>
      <point x="1102.563829787234" y="0.0" type="line"/>
    </contour>
    <contour>
      <point x="220.91489361702125" y="707.4545454545454" type="line"/>
      <point x="220.91489361702125" y="796.8181818181818" type="line"/>
      <point x="1000.5638297872339" y="796.8181818181818" type="line"/>
      <point x="1000.5638297872339" y="707.4545454545454" type="line"/>
    </contour>
  </outline>
</glyph>
<glyph name="F" format="2">
  <advance width="1133.563829787234"/>
  <unicode hex="0046"/>
  <anchor x="524.8617021276596" y="0.0" name="bottom"/>
  <anchor x="574.2234042553191" y="1457.0" name="top"/>
  <outline>
    <contour>
      <point x="170.0" y="0.0" type="line"/>
      <point x="170.0" y="1456.0" type="line"/>
      <point x="1075.563829787234" y="1456.0" type="line"/>
      <point x="1075.563829787234" y="1366.6363636363637" type="line"/>
      <point x="265.56382978723406" y="1366.6363636363637" type="line"/>
      <point x="265.56382978723406" y="0.0" type="line"/>
    </contour>
    <contour>
      <point x="220.91489361702128" y="678.4545454545455" type="line"/>
      <point x="220.91489361702128" y="767.8181818181819" type="line"/>
      <point x="976.563829787234" y="767.8181818181819" type="line"/>
      <point x="976.563829787234" y="678.4545454545455" type="line"/>
    </contour>
  </outline>
</glyph>
<glyph name="G" format="2">
  <advance width="1364.7127659574467"/>
  <unicode hex="0047"/>
  <anchor x="637.691489361702" y="0.0" name="bottom"/>
  <anchor x="633.5212765957447" y="1456.0" name="top"/>
  <outline>
    <contour>
      <point x="115.0" y="682.0" type="qcurve" smooth="yes"/>
      <point x="115.0" y="774.0" type="line" smooth="yes"/>
      <point x="115.0" y="1107.914893617021"/>
      <point x="443.01063829787233" y="1486.0"/>
      <point x="714.5212765957447" y="1486.0" type="qcurve" smooth="yes"/>
      <point x="953.4042553191489" y="1486.0"/>
      <point x="1227.095744680851" y="1219.4361702127658"/>
      <point x="1235.755319148936" y="1040.4787234042553" type="qcurve" smooth="yes"/>
      <point x="1235.779497098646" y="1030.0" type="line"/>
      <point x="1139.6702127659573" y="1030.0" type="line"/>
      <point x="1139.6702127659573" y="1040.0" type="line" smooth="yes"/>
      <point x="1139.6702127659573" y="1174.370406189555"/>
      <point x="916.9516441005803" y="1393.3636363636363"/>
      <point x="714.0212765957447" y="1393.3636363636363" type="qcurve" smooth="yes"/>
      <point x="482.4970986460348" y="1393.3636363636363"/>
      <point x="211.52127659574467" y="1062.860735009671"/>
      <point x="211.52127659574467" y="774.0" type="qcurve" smooth="yes"/>
      <point x="211.52127659574467" y="682.0" type="line" smooth="yes"/>
      <point x="211.52127659574467" y="393.1392649903288"/>
      <point x="484.0609284332688" y="62.63636363636364"/>
      <point x="736.0212765957447" y="62.63636363636364" type="qcurve" smooth="yes"/>
      <point x="867.0212765957447" y="62.63636363636364"/>
      <point x="1057.5212765957444" y="139.09090909090907"/>
      <point x="1143.0212765957447" y="199.54545454545453" type="qcurve"/>
      <point x="1143.0212765957447" y="638.6363636363635" type="line"/>
      <point x="632.5212765957447" y="638.6363636363635" type="line"/>
      <point x="632.5212765957447" y="728.0" type="line"/>
      <point x="1235.7127659574467" y="728.0" type="line"/>
      <point x="1235.7127659574467" y="160.0" type="line"/>
      <point x="1158.7127659574467" y="90.0"/>
      <point x="906.3191489361701" y="-30.0"/>
      <point x="733.5212765957447" y="-30.0" type="qcurve" smooth="yes"/>
      <point x="444.57446808510633" y="-30.0"/>
      <point x="115.0" y="346.0"/>
    </contour>
  </outline>
</glyph>
<glyph name="H" format="2">
  <advance width="1406.627659574468"/>
  <unicode hex="0048"/>
  <anchor x="718.563829787234" y="0.0" name="bottom"/>
  <anchor x="718.563829787234" y="1100.0" name="center"/>
  <anchor x="718.563829787234" y="1456.0" name="top"/>
  <anchor x="1184.563829787234" y="0.0" name="cy_descender"/>
  <anchor x="-73.43617021276596" y="1074.0" name="tonos"/>
  <outline>
    <contour>
      <point x="170.0" y="0.0" type="line"/>
      <point x="170.0" y="1456.0" type="line"/>
      <point x="265.56382978723406" y="1456.0" type="line"/>
      <point x="265.56382978723406" y="0.0" type="line"/>
    </contour>
    <contour>
      <point x="221.43617021276594" y="710.1818181818181" type="line"/>
      <point x="221.43617021276594" y="799.5454545454545" type="line"/>
      <point x="1187.9574468085107" y="799.5454545454545" type="line"/>
      <point x="1187.9574468085107" y="710.1818181818181" type="line"/>
    </contour>
    <contour>
      <point x="1141.063829787234" y="0.0" type="line"/>
      <point x="1141.063829787234" y="1456.0" type="line"/>
      <point x="1236.627659574468" y="1456.0" type="line"/>
      <point x="1236.627659574468" y="0.0" type="line"/>
    </contour>
  </outline>
</glyph>
<glyph name="I" format="2">
  <advance width="445.56382978723406"/>
  <unicode hex="0049"/>
  <anchor x="223.04255319148936" y="0.0" name="bottom"/>
  <anchor x="240.31914893617022" y="0.0" name="ogonek"/>
  <anchor x="223.04255319148936" y="1456.0" name="top"/>
  <anchor x="-73.43617021276596" y="1074.0" name="tonos"/>
  <anchor x="223.04255319148936" y="750.0" name="yu_dash"/>
  <outline>
    <contour>
      <point x="175.0" y="0.0" type="line"/>
      <point x="175.0" y="1456.0" type="line"/>
      <point x="270.56382978723406" y="1456.0" type="line"/>
      <point x="270.56382978723406" y="0.0" type="line"/>
    </contour>
  </outline>
</glyph>
<glyph name="J" format="2">
  <advance width="1010.6276595744681"/>
  <unicode hex="004A"/>
  <anchor x="419.6808510638298" y="0.0" name="bottom"/>
  <anchor x="706.4787234042553" y="1456.0" name="top"/>
  <outline>
    <contour>
      <point x="25.0" y="400.0" type="qcurve" smooth="yes"/>
      <point x="25.0" y="410.0" type="line"/>
      <point x="120.56382978723404" y="410.0" type="line"/>
      <point x="120.56382978723404" y="400.0" type="line" smooth="yes"/>
      <point x="120.56382978723404" y="240.45454545454547"/>
      <point x="287.88201160541587" y="62.63636363636364"/>
      <point x="440.06382978723406" y="62.63636363636364" type="qcurve" smooth="yes"/>
      <point x="593.2001934235976" y="62.63636363636364"/>
      <point x="760.063829787234" y="255.45454545454547"/>
      <point x="760.063829787234" y="425.0" type="qcurve" smooth="yes"/>
      <point x="760.063829787234" y="1456.0" type="line"/>
      <point x="855.6276595744681" y="1456.0" type="line"/>
      <point x="855.6276595744681" y="425.0" type="line" smooth="yes"/>
      <point x="855.6276595744681" y="215.0"/>
      <point x="632.0744680851064" y="-30.0"/>
      <point x="440.56382978723406" y="-30.0" type="qcurve" smooth="yes"/>
      <point x="248.5531914893617" y="-30.0"/>
      <point x="25.0" y="200.5212765957447"/>
    </contour>
  </outline>
</glyph>
<glyph name="K" format="2">
  <advance width="1334.212765957447"/>
  <unicode hex="004B"/>
  <anchor x="634.563829787234" y="0.0" name="bottom"/>
  <anchor x="634.563829787234" y="1456.0" name="top"/>
  <outline>
    <contour>
      <point x="170.0" y="0.0" type="line"/>
      <point x="170.0" y="1456.0" type="line"/>
      <point x="265.56382978723406" y="1456.0" type="line"/>
      <point x="265.56382978723406" y="0.0" type="line"/>
    </contour>
    <contour>
      <point x="1224.8191489361702" y="0.0" type="line"/>
      <point x="530.880077369439" y="819.6411992263056" type="line"/>
      <point x="600.4148936170212" y="881.3297872340426" type="line"/>
      <point x="1360.9893617021276" y="0.0" type="line"/>
    </contour>
    <contour>
      <point x="219.52127659574467" y="448.27272727272725" type="line"/>
      <point x="219.52127659574467" y="573.2272727272727" type="line"/>
      <point x="1122.3394584139264" y="1456.0" type="line"/>
      <point x="1260.4758220502902" y="1456.0" type="line"/>
    </contour>
  </outline>
</glyph>
<glyph name="L" format="2">
  <advance width="1180.063829787234"/>
  <unicode hex="004C"/>
  <anchor x="584.6489361702128" y="0.0" name="bottom"/>
  <anchor x="751.0531914893617" y="728.0" name="center"/>
  <anchor x="275.05319148936167" y="1456.0" name="top"/>
  <anchor x="640.0531914893617" y="1052.0" name="topright"/>
  <outline>
    <contour>
      <point x="170.0" y="0.0" type="line"/>
      <point x="170.0" y="1456.0" type="line"/>
      <point x="265.56382978723406" y="1456.0" type="line"/>
      <point x="265.56382978723406" y="89.36363636363636" type="line"/>
      <point x="1126.063829787234" y="89.36363636363636" type="line"/>
      <point x="1126.063829787234" y="0.0" type="line"/>
    </contour>
  </outline>
</glyph>
<glyph name="M" format="2">
  <advance width="1814.468085106383"/>
  <unicode hex="004D"/>
  <anchor x="802.7340425531914" y="0.0" name="bottom"/>
  <anchor x="802.7340425531914" y="1456.0" name="top"/>
  <outline>
    <contour>
      <point x="170.0" y="0.0" type="line"/>
      <point x="170.0" y="1456.0" type="line"/>
      <point x="292.3723404255319" y="1456.0" type="line"/>
      <point x="855.127659574468" y="210.36170212765956" type="line" smooth="yes"/>
      <point x="868.6063829787233" y="180.86170212765956"/>
      <point x="889.6914893617021" y="115.36170212765956"/>
      <point x="898.7340425531914" y="85.36170212765954" type="qcurve"/>
      <point x="906.7340425531914" y="85.36170212765954" type="line"/>
      <point x="915.7765957446808" y="115.36170212765956"/>
      <point x="937.8829787234042" y="182.92553191489358"/>
      <point x="950.8617021276596" y="211.9255319148936" type="qcurve" smooth="yes"/>
      <point x="1522.095744680851" y="1456.0" type="line"/>
      <point x="1644.468085106383" y="1456.0" type="line"/>
      <point x="1644.468085106383" y="0.0" type="line"/>
      <point x="1551.7765957446807" y="0.0" type="line"/>
      <point x="1551.7765957446807" y="1227.904255319149" type="line" smooth="yes"/>
      <point x="1551.7765957446807" y="1257.904255319149"/>
      <point x="1552.7340425531916" y="1319.351063829787"/>
      <point x="1554.6489361702127" y="1348.8297872340427" type="qcurve"/>
      <point x="1546.6489361702127" y="1348.8297872340427" type="line"/>
      <point x="1539.0851063829787" y="1322.4787234042553"/>
      <point x="1518.6702127659573" y="1258.468085106383"/>
      <point x="1505.691489361702" y="1229.468085106383" type="qcurve" smooth="yes"/>
      <point x="943.0744680851062" y="0.0" type="line"/>
      <point x="860.4787234042553" y="0.0" type="line"/>
      <point x="312.0744680851064" y="1215.3936170212764" type="line" smooth="yes"/>
      <point x="298.07446808510633" y="1245.9148936170213"/>
      <point x="274.51063829787233" y="1319.872340425532"/>
      <point x="265.9042553191489" y="1349.872340425532" type="qcurve"/>
      <point x="257.90425531914894" y="1349.872340425532" type="line"/>
      <point x="259.81914893617017" y="1319.351063829787"/>
      <point x="260.77659574468083" y="1244.8723404255318"/>
      <point x="260.77659574468083" y="1214.872340425532" type="qcurve" smooth="yes"/>
      <point x="260.77659574468083" y="0.0" type="line"/>
    </contour>
  </outline>
</glyph>
<glyph name="N" format="2">
  <advance width="1412.2978723404256"/>
  <unicode hex="004E"/>
  <anchor x="641.3829787234042" y="0.0" name="bottom"/>
  <anchor x="641.3829787234042" y="1456.0" name="top"/>
  <anchor x="1055.212765957447" y="0.0" name="engtail"/>
  <outline>
    <contour>
      <point x="170.0" y="0.0" type="line"/>
      <point x="170.0" y="1456.0" type="line"/>
      <point x="274.0851063829787" y="1456.0" type="line"/>
      <point x="1080.340425531915" y="231.31914893617022" type="line" smooth="yes"/>
      <point x="1100.2553191489362" y="200.77659574468083"/>
      <point x="1130.648936170213" y="141.3191489361702"/>
      <point x="1142.648936170213" y="116.3191489361702" type="qcurve"/>
      <point x="1149.6063829787236" y="116.3191489361702" type="line"/>
      <point x="1149.127659574468" y="146.3191489361702"/>
      <point x="1148.648936170213" y="221.31914893617022"/>
      <point x="1148.648936170213" y="251.31914893617022" type="qcurve" smooth="yes"/>
      <point x="1148.648936170213" y="1456.0" type="line"/>
      <point x="1242.2978723404256" y="1456.0" type="line"/>
      <point x="1242.2978723404256" y="0.0" type="line"/>
      <point x="1137.6914893617022" y="0.0" type="line"/>
      <point x="330.9148936170213" y="1224.6808510638298" type="line" smooth="yes"/>
      <point x="311.0" y="1255.223404255319"/>
      <point x="281.6063829787234" y="1314.6808510638298"/>
      <point x="268.6489361702128" y="1339.6808510638298" type="qcurve"/>
      <point x="261.6489361702128" y="1339.6808510638298" type="line"/>
      <point x="262.6489361702128" y="1309.6808510638298"/>
      <point x="263.6489361702128" y="1234.6808510638298"/>
      <point x="263.6489361702128" y="1204.6808510638298" type="qcurve" smooth="yes"/>
      <point x="263.6489361702128" y="0.0" type="line"/>
    </contour>
  </outline>
</glyph>
<glyph name="O" format="2">
  <advance width="1427.0425531914893"/>
  <unicode hex="004F"/>
  <anchor x="714.0212765957447" y="0.0" name="bottom"/>
  <anchor x="714.0212765957447" y="728.0" name="center"/>
  <anchor x="903.2446808510638" y="0.0" name="ogonek"/>
  <anchor x="714.0212765957447" y="1456.0" name="top"/>
  <anchor x="899.8297872340426" y="1456.0" name="topright"/>
  <anchor x="10.404255319148936" y="1074.0" name="tonos"/>
  <anchor x="209.95744680851064" y="748.0" name="yu_dash"/>
  <outline>
    <contour>
      <point x="115.0" y="701.0" type="qcurve" smooth="yes"/>
      <point x="115.0" y="755.0" type="line" smooth="yes"/>
      <point x="115.0" y="1100.0"/>
      <point x="449.20212765957444" y="1486.0"/>
      <point x="713.5212765957447" y="1486.0" type="qcurve" smooth="yes"/>
      <point x="977.8404255319149" y="1486.0"/>
      <point x="1312.0425531914893" y="1100.0"/>
      <point x="1312.0425531914893" y="755.0" type="qcurve" smooth="yes"/>
      <point x="1312.0425531914893" y="701.0" type="line" smooth="yes"/>
      <point x="1312.0425531914893" y="356.0"/>
      <point x="977.8404255319149" y="-30.0"/>
      <point x="713.5212765957447" y="-30.0" type="qcurve" smooth="yes"/>
      <point x="449.20212765957444" y="-30.0"/>
      <point x="115.0" y="356.0"/>
    </contour>
    <contour>
      <point x="211.52127659574467" y="696.0" type="line" smooth="yes"/>
      <point x="211.52127659574467" y="399.59671179883946"/>
      <point x="487.54255319148933" y="62.63636363636364"/>
      <point x="713.5212765957447" y="62.63636363636364" type="qcurve" smooth="yes"/>
      <point x="939.5" y="62.63636363636364"/>
      <point x="1215.5212765957447" y="399.59671179883946"/>
      <point x="1215.5212765957447" y="696.0" type="qcurve" smooth="yes"/>
      <point x="1215.5212765957447" y="760.0" type="line" smooth="yes"/>
      <point x="1215.5212765957447" y="1057.4458413926498"/>
      <point x="939.5" y="1393.3636363636363"/>
      <point x="713.5212765957447" y="1393.3636363636363" type="qcurve" smooth="yes"/>
      <point x="487.54255319148933" y="1393.3636363636363"/>
      <point x="211.52127659574467" y="1057.4458413926498"/>
      <point x="211.52127659574467" y="760.0" type="qcurve" smooth="yes"/>
    </contour>
  </outline>
</glyph>
<glyph name="P" format="2">
  <advance width="1126.627659574468"/>
  <unicode hex="0050"/>
  <anchor x="503.56382978723406" y="0.0" name="bottom"/>
  <anchor x="503.56382978723406" y="1456.0" name="top"/>
  <outline>
    <contour>
      <point x="170.0" y="0.0" type="line"/>
      <point x="170.0" y="1456.0" type="line"/>
      <point x="670.063829787234" y="1456.0" type="line" smooth="yes"/>
      <point x="875.6595744680851" y="1456.0"/>
      <point x="1071.627659574468" y="1215.5212765957447"/>
      <point x="1071.627659574468" y="1015.0" type="qcurve" smooth="yes"/>
      <point x="1071.627659574468" y="815.0"/>
      <point x="875.1382978723404" y="570.0"/>
      <point x="670.063829787234" y="570.0" type="qcurve" smooth="yes"/>
      <point x="220.39361702127658" y="570.0" type="line"/>
      <point x="220.39361702127658" y="659.3636363636364" type="line"/>
      <point x="659.563829787234" y="659.3636363636364" type="line" smooth="yes"/>
      <point x="836.0183752417795" y="659.3636363636364"/>
      <point x="976.063829787234" y="860.8423597678917"/>
      <point x="976.063829787234" y="1015.0" type="qcurve" smooth="yes"/>
      <point x="976.063829787234" y="1169.5454545454545"/>
      <point x="836.4061895551257" y="1366.6363636363637"/>
      <point x="659.563829787234" y="1366.6363636363637" type="qcurve" smooth="yes"/>
      <point x="265.56382978723406" y="1366.6363636363637" type="line"/>
      <point x="265.56382978723406" y="0.0" type="line"/>
    </contour>
  </outline>
</glyph>
<glyph name="Q" format="2">
  <advance width="1427.0425531914893"/>
  <unicode hex="0051"/>
  <anchor x="632.5212765957447" y="0.0" name="bottom"/>
  <anchor x="632.5212765957447" y="1456.0" name="top"/>
  <outline>
    <contour>
      <point x="115.0" y="701.0" type="qcurve" smooth="yes"/>
      <point x="115.0" y="755.0" type="line" smooth="yes"/>
      <point x="115.0" y="1100.0"/>
      <point x="449.20212765957444" y="1486.0"/>
      <point x="713.5212765957447" y="1486.0" type="qcurve" smooth="yes"/>
      <point x="977.8404255319149" y="1486.0"/>
      <point x="1312.0425531914893" y="1100.0"/>
      <point x="1312.0425531914893" y="755.0" type="qcurve" smooth="yes"/>
      <point x="1312.0425531914893" y="701.0" type="line" smooth="yes"/>
      <point x="1312.0425531914893" y="356.0"/>
      <point x="977.8404255319149" y="-30.0"/>
      <point x="713.5212765957447" y="-30.0" type="qcurve" smooth="yes"/>
      <point x="449.20212765957444" y="-30.0"/>
      <point x="115.0" y="356.0"/>
    </contour>
    <contour>
      <point x="211.52127659574467" y="696.0" type="line" smooth="yes"/>
      <point x="211.52127659574467" y="399.59671179883946"/>
      <point x="487.54255319148933" y="62.63636363636364"/>
      <point x="713.5212765957447" y="62.63636363636364" type="qcurve" smooth="yes"/>
      <point x="939.5" y="62.63636363636364"/>
      <point x="1215.5212765957447" y="399.59671179883946"/>
      <point x="1215.5212765957447" y="696.0" type="qcurve" smooth="yes"/>
      <point x="1215.5212765957447" y="760.0" type="line" smooth="yes"/>
      <point x="1215.5212765957447" y="1057.4458413926498"/>
      <point x="939.5" y="1393.3636363636363"/>
      <point x="713.5212765957447" y="1393.3636363636363" type="qcurve" smooth="yes"/>
      <point x="487.54255319148933" y="1393.3636363636363"/>
      <point x="211.52127659574467" y="1057.4458413926498"/>
      <point x="211.52127659574467" y="760.0" type="qcurve" smooth="yes"/>
    </contour>
    <contour>
      <point x="1196.8829787234042" y="-214.03191489361703" type="line"/>
      <point x="908.063829787234" y="13.04835589941973" type="line"/>
      <point x="969.9893617021277" y="75.49516441005802" type="line"/>
      <point x="1261.2021276595744" y="-149.19148936170214" type="line"/>
    </contour>
  </outline>
</glyph>
<glyph name="R" format="2">
  <advance width="1155.6808510638298"/>
  <unicode hex="0052"/>
  <anchor x="524.7872340425532" y="0.0" name="bottom"/>
  <anchor x="524.7872340425532" y="1456.0" name="top"/>
  <outline>
    <contour>
      <point x="168.5" y="0.0" type="line"/>
      <point x="168.5" y="1456.0" type="line"/>
      <point x="657.063829787234" y="1456.0" type="line" smooth="yes"/>
      <point x="846.2340425531914" y="1456.0"/>
      <point x="1048.627659574468" y="1222.0"/>
      <point x="1048.627659574468" y="1028.0" type="qcurve" smooth="yes"/>
      <point x="1048.627659574468" y="834.0"/>
      <point x="846.7553191489362" y="593.5454545454545"/>
      <point x="657.063829787234" y="594.0" type="qcurve" smooth="yes"/>
      <point x="214.62765957446808" y="594.0" type="line"/>
      <point x="214.62765957446808" y="682.2727272727273" type="line"/>
      <point x="657.063829787234" y="682.2727272727273" type="line" smooth="yes"/>
      <point x="815.536750483559" y="682.2727272727273"/>
      <point x="953.063829787234" y="880.4613152804642"/>
      <point x="953.063829787234" y="1028.0" type="qcurve" smooth="yes"/>
      <point x="953.063829787234" y="1176.247582205029"/>
      <point x="814.6943907156673" y="1367.2727272727273"/>
      <point x="657.063829787234" y="1367.7272727272727" type="qcurve" smooth="yes"/>
      <point x="264.06382978723406" y="1367.7272727272727" type="line"/>
      <point x="264.06382978723406" y="0.0" type="line"/>
    </contour>
    <contour>
      <point x="1009.063829787234" y="0.0" type="line"/>
      <point x="621.2456479690521" y="638.8181818181819" type="line"/>
      <point x="719.9429400386847" y="654.586073500967" type="line"/>
      <point x="1115.6808510638298" y="0.0" type="line"/>
    </contour>
  </outline>
</glyph>
<glyph name="S" format="2">
  <advance width="1156.1702127659573"/>
  <unicode hex="0053"/>
  <anchor x="518.7765957446809" y="0.0" name="bottom"/>
  <anchor x="518.7765957446809" y="1456.0" name="top"/>
  <outline>
    <contour>
      <point x="90.0" y="398.0" type="qcurve" smooth="yes"/>
      <point x="90.0" y="410.0" type="line"/>
      <point x="185.56382978723406" y="410.0" type="line"/>
      <point x="185.56382978723406" y="398.0" type="line" smooth="yes"/>
      <point x="185.56382978723406" y="239.63636363636363"/>
      <point x="397.06382978723406" y="62.63636363636364"/>
      <point x="587.063829787234" y="62.63636363636364" type="qcurve" smooth="yes"/>
      <point x="778.0851063829787" y="62.63636363636364"/>
      <point x="979.563829787234" y="234.0241779497099"/>
      <point x="979.563829787234" y="375.3085106382979" type="qcurve" smooth="yes"/>
      <point x="979.563829787234" y="507.1063829787234"/>
      <point x="775.9893617021277" y="652.3404255319149"/>
      <point x="530.6595744680851" y="720.5425531914893" type="qcurve" smooth="yes"/>
      <point x="281.8723404255319" y="789.7234042553191"/>
      <point x="116.95744680851064" y="951.7765957446809"/>
      <point x="116.95744680851064" y="1090.5" type="qcurve" smooth="yes"/>
      <point x="116.95744680851064" y="1263.1063829787233"/>
      <point x="351.1595744680851" y="1486.5"/>
      <point x="569.063829787234" y="1486.5" type="qcurve" smooth="yes"/>
      <point x="788.531914893617" y="1486.5"/>
      <point x="1033.127659574468" y="1248.5"/>
      <point x="1033.127659574468" y="1064.5" type="qcurve" smooth="yes"/>
      <point x="1033.127659574468" y="1052.5" type="line"/>
      <point x="935.563829787234" y="1052.5" type="line"/>
      <point x="935.563829787234" y="1064.5" type="line" smooth="yes"/>
      <point x="935.563829787234" y="1210.0454545454545"/>
      <point x="751.0183752417795" y="1393.8636363636363"/>
      <point x="567.563829787234" y="1393.8636363636363" type="qcurve" smooth="yes"/>
      <point x="385.06382978723406" y="1393.8636363636363"/>
      <point x="211.56382978723406" y="1227.7727272727273"/>
      <point x="211.56382978723406" y="1095.5" type="qcurve" smooth="yes"/>
      <point x="211.56382978723406" y="990.5957446808511"/>
      <point x="345.47872340425533" y="867.531914893617"/>
      <point x="593.2872340425532" y="802.3085106382979" type="qcurve" smooth="yes"/>
      <point x="839.531914893617" y="737.6063829787234"/>
      <point x="1076.1702127659573" y="546.968085106383"/>
      <point x="1076.1702127659573" y="375.3085106382979" type="qcurve" smooth="yes"/>
      <point x="1076.1702127659573" y="192.70212765957447"/>
      <point x="824.9255319148936" y="-30.0"/>
      <point x="593.563829787234" y="-30.0" type="qcurve" smooth="yes"/>
      <point x="362.72340425531917" y="-30.0"/>
      <point x="90.0" y="200.5212765957447"/>
    </contour>
  </outline>
</glyph>
<glyph name="V" format="2">
  <advance width="1316.3191489361702"/>
  <unicode hex="0056"/>
  <anchor x="660.1595744680851" y="0.0" name="bottom"/>
  <anchor x="660.1595744680851" y="1456.0" name="top"/>
  <outline>
    <contour>
      <point x="0.0" y="1456.0" type="line"/>
      <point x="101.30851063829786" y="1456.0" type="line"/>
      <point x="610.4042553191489" y="211.2340425531915" type="line" smooth="yes"/>
      <point x="623.9042553191489" y="179.2340425531915"/>
      <point x="648.2446808510638" y="106.94680851063828"/>
      <point x="653.1382978723404" y="77.94680851063828" type="qcurve"/>
      <point x="661.6170212765958" y="77.94680851063828" type="line"/>
      <point x="664.9893617021277" y="106.94680851063828"/>
      <point x="690.2872340425532" y="177.14893617021278"/>
      <point x="704.3085106382979" y="211.2340425531915" type="qcurve" smooth="yes"/>
      <point x="1218.840425531915" y="1456.0" type="line"/>
      <point x="1316.3191489361702" y="1456.0" type="line"/>
      <point x="700.3510638297872" y="-10.0" type="line"/>
      <point x="616.968085106383" y="-10.0" type="line"/>
    </contour>
  </outline>
</glyph>
<glyph name="W" format="2">
  <advance width="1904.723404255319"/>
  <unicode hex="0057"/>
  <anchor x="840.8404255319149" y="0.0" name="bottom"/>
  <anchor x="840.8404255319149" y="1456.0" name="top"/>
  <outline>
    <contour>
      <point x="453.0744680851064" y="-10.0" type="line"/>
      <point x="50.0" y="1456.0" type="line"/>
      <point x="146.56382978723406" y="1456.0" type="line"/>
      <point x="482.4255319148936" y="208.7127659574468" type="line" smooth="yes"/>
      <point x="491.4255319148936" y="175.2127659574468"/>
      <point x="498.468085106383" y="133.7127659574468"/>
      <point x="504.031914893617" y="100.7127659574468" type="qcurve"/>
      <point x="514.031914893617" y="100.7127659574468" type="line"/>
      <point x="520.1170212765958" y="134.23404255319147"/>
      <point x="528.2021276595744" y="174.7127659574468"/>
      <point x="538.2021276595744" y="208.7127659574468" type="qcurve" smooth="yes"/>
      <point x="902.2553191489362" y="1456.0" type="line"/>
      <point x="1001.3829787234042" y="1456.0" type="line"/>
      <point x="1382.0" y="208.1914893617021" type="line" smooth="yes"/>
      <point x="1392.5" y="174.6914893617021"/>
      <point x="1400.0851063829787" y="133.1914893617021"/>
      <point x="1406.1702127659573" y="100.19148936170211" type="qcurve"/>
      <point x="1415.1702127659573" y="100.19148936170211" type="line"/>
      <point x="1420.7340425531916" y="133.1914893617021"/>
      <point x="1428.276595744681" y="173.6914893617021"/>
      <point x="1437.776595744681" y="208.1914893617021" type="qcurve" smooth="yes"/>
      <point x="1759.1170212765958" y="1456.0" type="line"/>
      <point x="1854.723404255319" y="1456.0" type="line"/>
      <point x="1461.3829787234042" y="-10.0" type="line"/>
      <point x="1361.9148936170213" y="-10.0" type="line"/>
      <point x="984.4255319148936" y="1228.340425531915" type="line" smooth="yes"/>
      <point x="973.9255319148936" y="1261.840425531915"/>
      <point x="960.8617021276596" y="1323.340425531915"/>
      <point x="955.3404255319149" y="1356.340425531915" type="qcurve"/>
      <point x="947.3404255319149" y="1356.340425531915" type="line"/>
      <point x="941.8191489361702" y="1323.340425531915"/>
      <point x="928.7765957446809" y="1261.840425531915"/>
      <point x="918.7765957446809" y="1228.340425531915" type="qcurve" smooth="yes"/>
      <point x="552.5425531914893" y="-10.0" type="line"/>
    </contour>
  </outline>
</glyph>
<glyph name="X" format="2">
  <advance width="1263.340425531915"/>
  <unicode hex="0058"/>
  <anchor x="553.6595744680851" y="0.0" name="bottom"/>
  <anchor x="553.6595744680851" y="1456.0" name="top"/>
  <anchor x="984.4893617021277" y="0.0" name="cy_descender"/>
  <outline>
    <contour>
      <point x="25.0" y="0.0" type="line"/>
      <point x="623.7659574468086" y="806.0" type="line"/>
      <point x="632.468085106383" y="806.0" type="line"/>
      <point x="1098.2872340425533" y="1456.0" type="line"/>
      <point x="1216.9468085106382" y="1456.0" type="line"/>
      <point x="634.968085106383" y="670.0" type="line"/>
      <point x="625.7659574468084" y="670.0" type="line"/>
      <point x="143.6595744680851" y="0.0" type="line"/>
    </contour>
    <contour>
      <point x="46.87234042553192" y="1456.0" type="line"/>
      <point x="154.44680851063828" y="1456.0" type="line"/>
      <point x="625.7659574468084" y="806.0" type="line"/>
      <point x="632.0531914893617" y="806.0" type="line"/>
      <point x="1238.340425531915" y="0.0" type="line"/>
      <point x="1117.7659574468084" y="0.0" type="line"/>
      <point x="628.1382978723404" y="670.0" type="line"/>
      <point x="621.8510638297872" y="670.0" type="line"/>
    </contour>
  </outline>
</glyph>
<glyph name="Y" format="2">
  <advance width="1269.0531914893618"/>
  <unicode hex="0059"/>
  <anchor x="558.7446808510638" y="0.0" name="bottom"/>
  <anchor x="558.7446808510638" y="1456.0" name="top"/>
  <anchor x="-187.51063829787233" y="1074.0" name="tonos"/>
  <outline>
    <contour>
      <point x="585.7021276595744" y="0.0" type="line"/>
      <point x="585.7021276595744" y="544.0" type="line"/>
      <point x="15.0" y="1456.0" type="line"/>
      <point x="122.0531914893617" y="1456.0" type="line"/>
      <point x="574.5744680851064" y="720.3404255319149" type="line" smooth="yes"/>
      <point x="592.5744680851063" y="691.3404255319149"/>
      <point x="617.0531914893617" y="640.3404255319149"/>
      <point x="628.5744680851063" y="613.3404255319149" type="qcurve"/>
      <point x="639.7872340425532" y="613.3404255319149" type="line"/>
      <point x="651.8297872340426" y="640.3404255319149"/>
      <point x="676.3085106382979" y="691.3191489361702"/>
      <point x="694.8297872340426" y="720.3404255319149" type="qcurve" smooth="yes"/>
      <point x="1150.8297872340427" y="1456.0" type="line"/>
      <point x="1254.0531914893618" y="1456.0" type="line"/>
      <point x="681.2659574468084" y="544.0" type="line"/>
      <point x="681.2659574468084" y="0.0" type="line"/>
    </contour>
  </outline>
</glyph>
<glyph name="bracketleft" format="2">
  <advance width="605.6489361702128"/>
  <unicode hex="005B"/>
  <outline>
    <contour>
      <point x="144.0" y="-310.0" type="line"/>
      <point x="144.0" y="1456.0" type="line"/>
      <point x="525.6489361702128" y="1456.0" type="line"/>
      <point x="525.6489361702128" y="1365.5454545454545" type="line"/>
      <point x="236.2127659574468" y="1365.5454545454545" type="line"/>
      <point x="236.2127659574468" y="-219.54545454545456" type="line"/>
      <point x="525.6489361702128" y="-219.54545454545456" type="line"/>
      <point x="525.6489361702128" y="-310.0" type="line"/>
    </contour>
  </outline>
</glyph>
<glyph name="bracketright" format="2">
  <advance width="605.6489361702128"/>
  <unicode hex="005D"/>
  <outline>
    <contour>
      <point x="461.6489361702128" y="-310.0" type="line"/>
      <point x="80.0" y="-310.0" type="line"/>
      <point x="80.0" y="-219.54545454545456" type="line"/>
      <point x="369.43617021276594" y="-219.54545454545456" type="line"/>
      <point x="369.43617021276594" y="1365.5454545454545" type="line"/>
      <point x="80.0" y="1365.5454545454545" type="line"/>
      <point x="80.0" y="1456.0" type="line"/>
      <point x="461.6489361702128" y="1456.0" type="line"/>
    </contour>
  </outline>
</glyph>
<glyph name="asciicircum" format="2">
  <advance width="1083.4680851063827"/>
  <unicode hex="005E"/>
  <outline>
    <contour>
      <point x="25.0" y="720.0" type="line"/>
      <point x="500.0" y="1456.0" type="line"/>
      <point x="585.5531914893617" y="1456.0" type="line"/>
      <point x="1058.4680851063827" y="720.0" type="line"/>
      <point x="957.5106382978722" y="720.0" type="line"/>
      <point x="542.7765957446808" y="1371.840425531915" type="line"/>
      <point x="125.43617021276594" y="720.0" type="line"/>
    </contour>
  </outline>
</glyph>
<glyph name="b" format="2">
  <advance width="1089.2978723404256"/>
  <unicode hex="0062"/>
  <anchor x="475.531914893617" y="0.0" name="bottom"/>
  <anchor x="463.54255319148933" y="1536.0" name="top"/>
  <outline>
    <contour>
      <point x="148.0" y="0.0" type="line"/>
      <point x="148.0" y="1536.0" type="line"/>
      <point x="240.6914893617021" y="1536.0" type="line"/>
      <point x="240.6914893617021" y="139.27272727272728" type="line"/>
      <point x="235.90425531914894" y="139.27272727272728" type="line"/>
      <point x="232.0744680851064" y="0.0" type="line"/>
    </contour>
    <contour>
      <point x="577.3858800773694" y="66.0909090909091" type="qcurve" smooth="yes"/>
      <point x="738.2969052224372" y="66.0909090909091"/>
      <point x="909.6914893617021" y="316.3636363636364"/>
      <point x="909.6914893617021" y="508.1818181818182" type="qcurve" smooth="yes"/>
      <point x="909.6914893617021" y="545.6363636363636" type="line" smooth="yes"/>
      <point x="909.6914893617021" y="745.2485493230174"/>
      <point x="742.7717601547389" y="985.9090909090909"/>
      <point x="577.5193423597678" y="985.9090909090909" type="qcurve" smooth="yes"/>
      <point x="409.6353965183752" y="985.9090909090909"/>
      <point x="220.1063829787234" y="722.8916827852998"/>
      <point x="220.1063829787234" y="553.5454545454545" type="qcurve" smooth="yes"/>
      <point x="220.1063829787234" y="521.0" type="line" smooth="yes"/>
      <point x="220.1063829787234" y="320.9023210831721"/>
      <point x="414.3259187620889" y="66.0909090909091"/>
    </contour>
    <contour>
      <point x="593.1402321083173" y="-20.0" type="qcurve" smooth="yes"/>
      <point x="400.54448742746615" y="-20.0"/>
      <point x="184.38297872340425" y="274.09090909090907"/>
      <point x="184.38297872340425" y="520.0" type="qcurve" smooth="yes"/>
      <point x="184.38297872340425" y="554.0" type="line" smooth="yes"/>
      <point x="184.38297872340425" y="763.0531914893617"/>
      <point x="389.52127659574467" y="1072.0"/>
      <point x="593.5947775628628" y="1072.0" type="qcurve" smooth="yes"/>
      <point x="778.6063829787233" y="1072.0"/>
      <point x="1004.2978723404256" y="786.0744680851063"/>
      <point x="1004.2978723404256" y="542.0" type="qcurve" smooth="yes"/>
      <point x="1004.2978723404256" y="510.0" type="line" smooth="yes"/>
      <point x="1004.2978723404256" y="276.3510638297872"/>
      <point x="776.4671179883946" y="-20.0"/>
    </contour>
  </outline>
</glyph>
<glyph name="c" format="2">
  <advance width="988.4255319148936"/>
  <unicode hex="0063"/>
  <anchor x="469.3510638297872" y="0.0" name="bottom"/>
  <anchor x="471.95744680851067" y="1052.0" name="top"/>
  <outline>
    <contour>
      <point x="85.0" y="509.99999999999994" type="qcurve" smooth="yes"/>
      <point x="85.0" y="542.0" type="line" smooth="yes"/>
      <point x="85.0" y="780.0"/>
      <point x="315.595744680851" y="1082.0"/>
      <point x="534.7127659574469" y="1082.0" type="qcurve" smooth="yes"/>
      <point x="730.1170212765958" y="1082.0"/>
      <point x="919.4255319148936" y="854.4787234042553"/>
      <point x="919.4255319148936" y="715.0" type="qcurve" smooth="yes"/>
      <point x="919.4255319148936" y="710.0" type="line"/>
      <point x="829.6063829787233" y="710.0" type="line"/>
      <point x="829.6063829787233" y="715.0" type="line" smooth="yes"/>
      <point x="829.6063829787233" y="823.1818181818182"/>
      <point x="691.7882011605416" y="995.9090909090909"/>
      <point x="535.7127659574469" y="995.9090909090909" type="qcurve" smooth="yes"/>
      <point x="350.242746615087" y="995.9090909090909"/>
      <point x="179.6063829787234" y="736.8181818181818"/>
      <point x="179.6063829787234" y="542.0" type="qcurve" smooth="yes"/>
      <point x="179.6063829787234" y="509.99999999999994" type="line" smooth="yes"/>
      <point x="179.6063829787234" y="315.1818181818182"/>
      <point x="350.69729206963245" y="56.09090909090908"/>
      <point x="535.7127659574469" y="56.09090909090908" type="qcurve" smooth="yes"/>
      <point x="691.7882011605416" y="56.09090909090908"/>
      <point x="829.6063829787233" y="228.36363636363635"/>
      <point x="829.6063829787233" y="337.0" type="qcurve" smooth="yes"/>
      <point x="829.6063829787233" y="342.0" type="line"/>
      <point x="919.4255319148936" y="342.0" type="line"/>
      <point x="919.4255319148936" y="337.0" type="line" smooth="yes"/>
      <point x="919.4255319148936" y="197.0"/>
      <point x="730.1170212765958" y="-30.0"/>
      <point x="534.1914893617022" y="-30.0" type="qcurve" smooth="yes"/>
      <point x="315.595744680851" y="-30.0"/>
      <point x="85.0" y="272.0"/>
    </contour>
  </outline>
</glyph>
<glyph name="d" format="2">
  <advance width="1089.8191489361702"/>
  <unicode hex="0064"/>
  <anchor x="488.04255319148933" y="0.0" name="bottom"/>
  <anchor x="729.7234042553191" y="1313.0" name="center"/>
  <anchor x="467.1914893617021" y="1536.0" name="top"/>
  <anchor x="918.7021276595744" y="1052.0" name="topright"/>
  <outline>
    <contour>
      <point x="849.1276595744681" y="1536.0" type="line"/>
      <point x="941.8191489361702" y="1536.0" type="line"/>
      <point x="941.8191489361702" y="0.0" type="line"/>
      <point x="857.7446808510638" y="0.0" type="line"/>
      <point x="853.9148936170213" y="256.8936170212766" type="line"/>
      <point x="849.1276595744681" y="256.8936170212766" type="line"/>
    </contour>
    <contour>
      <point x="518.5580270793037" y="985.9090909090909" type="qcurve" smooth="yes"/>
      <point x="352.85493230174086" y="985.9090909090909"/>
      <point x="179.15183752417792" y="745.2485493230174"/>
      <point x="179.15183752417792" y="545.6363636363636" type="qcurve" smooth="yes"/>
      <point x="179.15183752417792" y="508.1818181818182" type="line" smooth="yes"/>
      <point x="179.15183752417792" y="316.3636363636364"/>
      <point x="355.41972920696327" y="66.0909090909091"/>
      <point x="517.6489361702128" y="66.0909090909091" type="qcurve" smooth="yes"/>
      <point x="678.4235976789168" y="66.0909090909091"/>
      <point x="868.7369439071566" y="313.495164410058"/>
      <point x="868.7369439071566" y="503.90909090909093" type="qcurve" smooth="yes"/>
      <point x="868.7369439071566" y="531.4545454545455" type="line" smooth="yes"/>
      <point x="868.7369439071566" y="720.3636363636364"/>
      <point x="678.3075435203095" y="985.9090909090909"/>
    </contour>
    <contour>
      <point x="499.73984526112184" y="1072.0" type="qcurve" smooth="yes"/>
      <point x="700.9922630560928" y="1072.0"/>
      <point x="904.4603481624758" y="759.0106382978723"/>
      <point x="904.4603481624758" y="531.4545454545455" type="qcurve" smooth="yes"/>
      <point x="904.4603481624758" y="503.9574468085106" type="line" smooth="yes"/>
      <point x="904.4603481624758" y="274.5019342359768"/>
      <point x="692.5957446808511" y="-20.0"/>
      <point x="498.83075435203097" y="-20.0" type="qcurve" smooth="yes"/>
      <point x="315.5038684719536" y="-20.0"/>
      <point x="84.54545454545455" y="276.3510638297872"/>
      <point x="84.54545454545455" y="510.0" type="qcurve" smooth="yes"/>
      <point x="84.54545454545455" y="542.0" type="line" smooth="yes"/>
      <point x="84.54545454545455" y="786.0744680851063"/>
      <point x="314.72823984526116" y="1072.0"/>
    </contour>
  </outline>
</glyph>
<glyph name="e" format="2">
  <advance width="1011.6170212765958"/>
  <unicode hex="0065"/>
  <anchor x="489.39361702127655" y="0.0" name="bottom"/>
  <anchor x="642.7659574468084" y="0.0" name="ogonek"/>
  <anchor x="467.2127659574468" y="1052.0" name="top"/>
  <outline>
    <contour>
      <point x="84.47872340425532" y="510.0" type="qcurve" smooth="yes"/>
      <point x="84.47872340425532" y="542.0" type="line" smooth="yes"/>
      <point x="84.47872340425532" y="780.0"/>
      <point x="316.0744680851064" y="1082.0"/>
      <point x="519.0851063829787" y="1082.0" type="qcurve" smooth="yes"/>
      <point x="714.2978723404256" y="1082.0"/>
      <point x="921.1914893617021" y="828.1489361702128"/>
      <point x="922.7553191489362" y="610.0425531914893" type="qcurve" smooth="yes"/>
      <point x="922.7553191489362" y="515.3636363636364" type="line"/>
      <point x="141.13829787234042" y="515.3636363636364" type="line"/>
      <point x="141.13829787234042" y="599.2727272727273" type="line"/>
      <point x="829.5851063829787" y="599.2727272727273" type="line"/>
      <point x="829.5851063829787" y="656.0" type="line" smooth="yes"/>
      <point x="829.5851063829787" y="800.9090909090909"/>
      <point x="675.4941972920695" y="995.9090909090909"/>
      <point x="525.448742746615" y="995.9090909090909" type="qcurve" smooth="yes"/>
      <point x="351.72147001934235" y="995.9090909090909"/>
      <point x="179.08510638297872" y="736.3636363636364"/>
      <point x="179.08510638297872" y="542.0" type="qcurve" smooth="yes"/>
      <point x="179.08510638297872" y="510.0" type="line" smooth="yes"/>
      <point x="179.08510638297872" y="313.3636363636364"/>
      <point x="363.49419729206966" y="56.09090909090909"/>
      <point x="546.4941972920695" y="56.09090909090909" type="qcurve" smooth="yes"/>
      <point x="671.8578336557059" y="56.09090909090909"/>
      <point x="831.2640232108317" y="180.0"/>
      <point x="876.1276595744681" y="270.0" type="qcurve"/>
      <point x="925.2234042553191" y="223.47872340425533" type="line"/>
      <point x="881.1914893617021" y="119.2872340425532"/>
      <point x="692.2495164410058" y="-30.0"/>
      <point x="542.9941972920695" y="-30.0" type="qcurve" smooth="yes"/>
      <point x="322.8510638297872" y="-30.0"/>
      <point x="84.47872340425532" y="268.3510638297872"/>
    </contour>
  </outline>
</glyph>
<glyph name="f" format="2">
  <advance width="580.6276595744681"/>
  <unicode hex="0066"/>
  <anchor x="246.82978723404256" y="0.0" name="bottom"/>
  <anchor x="252.04255319148936" y="1536.0" name="top"/>
  <outline>
    <contour>
      <point x="251.5" y="0.0" type="line"/>
      <point x="251.5" y="1214.0744680851064" type="line" smooth="yes"/>
      <point x="251.5" y="1394.8510638297873"/>
      <point x="406.67021276595744" y="1556.0"/>
      <point x="523.9042553191489" y="1556.0" type="qcurve" smooth="yes"/>
      <point x="565.7553191489362" y="1556.0"/>
      <point x="631.2340425531914" y="1547.4787234042553"/>
      <point x="658.6276595744681" y="1540.0" type="qcurve"/>
      <point x="652.7185686653772" y="1455.5880077369438" type="line"/>
      <point x="627.9912959381045" y="1460.9516441005803"/>
      <point x="574.3549323017409" y="1467.860735009671"/>
      <point x="535.0822050290136" y="1467.860735009671" type="qcurve" smooth="yes"/>
      <point x="453.4342359767892" y="1467.860735009671"/>
      <point x="341.6914893617021" y="1353.044487427466"/>
      <point x="344.1914893617021" y="1214.0744680851064" type="qcurve" smooth="yes"/>
      <point x="344.1914893617021" y="1018.8181818181819" type="line"/>
      <point x="344.1914893617021" y="1005.9090909090909" type="line"/>
      <point x="344.1914893617021" y="0.0" type="line"/>
    </contour>
    <contour>
      <point x="25.0" y="971.3636363636364" type="line"/>
      <point x="25.0" y="1052.0" type="line"/>
      <point x="305.531914893617" y="1052.0" type="line"/>
      <point x="328.59574468085106" y="1052.0" type="line"/>
      <point x="620.6276595744681" y="1052.0" type="line"/>
      <point x="620.6276595744681" y="971.3636363636364" type="line"/>
    </contour>
  </outline>
</glyph>
<glyph name="g" format="2">
  <advance width="1089.8191489361702"/>
  <unicode hex="0067"/>
  <anchor x="481.2659574468085" y="-416.0" name="bottom"/>
  <anchor x="472.40425531914894" y="1052.0" name="top"/>
  <outline>
    <contour>
      <point x="515.651837524178" y="-436.0" type="qcurve" smooth="yes"/>
      <point x="384.6063829787234" y="-436.0"/>
      <point x="182.93617021276594" y="-329.1489361702128"/>
      <point x="116.18085106382979" y="-212.06382978723406" type="qcurve"/>
      <point x="175.31914893617022" y="-144.0" type="line"/>
      <point x="225.26305609284333" y="-249.00773694390716"/>
      <point x="397.21083172147" y="-344.45454545454544"/>
      <point x="516.4245647969052" y="-344.45454545454544" type="qcurve" smooth="yes"/>
      <point x="673.1972920696326" y="-344.45454545454544"/>
      <point x="848.6063829787234" y="-165.45454545454544"/>
      <point x="848.6063829787234" y="20.0" type="qcurve" smooth="yes"/>
      <point x="848.6063829787234" y="915.0" type="line"/>
      <point x="850.3936170212766" y="915.0" type="line"/>
      <point x="854.2234042553191" y="1052.0" type="line"/>
      <point x="941.2978723404256" y="1052.0" type="line"/>
      <point x="941.2978723404256" y="20.0" type="line" smooth="yes"/>
      <point x="941.2978723404256" y="-217.20212765957447"/>
      <point x="709.8297872340426" y="-436.0"/>
    </contour>
    <contour>
      <point x="517.8085106382979" y="66.0909090909091" type="qcurve" smooth="yes"/>
      <point x="684.3945841392649" y="66.0909090909091"/>
      <point x="868.8510638297872" y="322.6905222437137"/>
      <point x="868.8510638297872" y="512.3829787234042" type="qcurve" smooth="yes"/>
      <point x="868.8510638297872" y="540.3829787234042" type="line" smooth="yes"/>
      <point x="868.8510638297872" y="736.8945841392649"/>
      <point x="673.0029013539652" y="985.9090909090909"/>
      <point x="516.7659574468084" y="985.9090909090909" type="qcurve" smooth="yes"/>
      <point x="350.0096711798839" y="985.9090909090909"/>
      <point x="179.6063829787234" y="750.5328820116054"/>
      <point x="179.6063829787234" y="542.0" type="qcurve" smooth="yes"/>
      <point x="179.6063829787234" y="510.0" type="line" smooth="yes"/>
      <point x="179.6063829787234" y="318.6905222437137"/>
      <point x="348.1914893617021" y="66.0909090909091"/>
    </contour>
    <contour>
      <point x="499.6237911025145" y="-20.0" type="qcurve" smooth="yes"/>
      <point x="309.54255319148933" y="-20.0"/>
      <point x="85.0" y="276.3510638297872"/>
      <point x="85.0" y="510.0" type="qcurve" smooth="yes"/>
      <point x="85.0" y="542.0" type="line" smooth="yes"/>
      <point x="85.0" y="786.0744680851063"/>
      <point x="310.5851063829787" y="1072.0"/>
      <point x="498.7147001934236" y="1072.0" type="qcurve" smooth="yes"/>
      <point x="694.0154738878143" y="1072.0"/>
      <point x="904.5744680851063" y="766.9148936170212"/>
      <point x="904.5744680851063" y="542.9893617021277" type="qcurve" smooth="yes"/>
      <point x="904.5744680851063" y="512.8191489361702" type="line" smooth="yes"/>
      <point x="904.5744680851063" y="285.6489361702128"/>
      <point x="700.968085106383" y="-20.0"/>
    </contour>
  </outline>
</glyph>
<glyph name="h" format="2">
  <advance width="1043.8829787234042"/>
  <unicode hex="0068"/>
  <anchor x="521.6914893617021" y="0.0" name="bottom"/>
  <anchor x="231.9042553191489" y="1327.0" name="center"/>
  <anchor x="196.56382978723403" y="1536.0" name="top"/>
  <anchor x="860.2765957446808" y="0.0" name="engtail"/>
  <outline>
    <contour>
      <point x="240.6914893617021" y="0.0" type="line"/>
      <point x="148.0" y="0.0" type="line"/>
      <point x="148.0" y="1536.0" type="line"/>
      <point x="239.78239845261118" y="1536.0" type="line"/>
    </contour>
    <contour>
      <point x="201.1063829787234" y="844.6992263056093" type="line"/>
      <point x="269.50483558994193" y="958.857833655706"/>
      <point x="476.7079303675048" y="1072.0"/>
      <point x="609.4148936170213" y="1072.0" type="qcurve" smooth="yes"/>
      <point x="741.9284332688587" y="1072.0"/>
      <point x="905.8829787234042" y="910.8085106382978"/>
      <point x="905.8829787234042" y="693.0744680851064" type="qcurve" smooth="yes"/>
      <point x="905.8829787234042" y="0.0" type="line"/>
      <point x="813.191489361702" y="0.0" type="line"/>
      <point x="813.191489361702" y="694.5531914893618" type="line" smooth="yes"/>
      <point x="813.191489361702" y="859.7814313346228"/>
      <point x="691.7582205029014" y="983.7272727272726"/>
      <point x="579.7369439071566" y="983.7272727272726" type="qcurve" smooth="yes"/>
      <point x="453.59864603481617" y="983.7272727272726"/>
      <point x="269.9429400386847" y="857.2727272727273"/>
      <point x="201.1063829787234" y="729.5560928433268" type="qcurve"/>
    </contour>
  </outline>
</glyph>
<glyph name="k" format="2">
  <advance width="1005.5425531914893"/>
  <unicode hex="006B"/>
  <anchor x="479.07446808510633" y="0.0" name="bottom"/>
  <anchor x="479.07446808510633" y="1536.0" name="top"/>
  <outline>
    <contour>
      <point x="148.0" y="0.0" type="line"/>
      <point x="148.0" y="1536.0" type="line"/>
      <point x="240.6914893617021" y="1536.0" type="line"/>
      <point x="240.6914893617021" y="0.0" type="line"/>
    </contour>
    <contour>
      <point x="912.4893617021276" y="0.0" type="line"/>
      <point x="417.40715667311406" y="616.443907156673" type="line"/>
      <point x="482.0" y="670.8965183752417" type="line"/>
      <point x="1021.5425531914893" y="0.0" type="line"/>
    </contour>
    <contour>
      <point x="195.12765957446808" y="349.27949709864606" type="line"/>
      <point x="195.12765957446808" y="466.27949709864606" type="line"/>
      <point x="799.4303675048355" y="1052.0" type="line"/>
      <point x="926.1121856866538" y="1052.0" type="line"/>
    </contour>
  </outline>
</glyph>
<glyph name="l" format="2">
  <advance width="404.6914893617021"/>
  <unicode hex="006C"/>
  <anchor x="202.08510638297872" y="0.0" name="bottom"/>
  <anchor x="202.08510638297872" y="791.0" name="center"/>
  <anchor x="202.08510638297872" y="1536.0" name="top"/>
  <anchor x="395.0851063829787" y="1052.0" name="topright"/>
  <anchor x="202.08510638297872" y="542.0" name="yu_dash"/>
  <outline>
    <contour>
      <point x="156.0" y="0.0" type="line"/>
      <point x="156.0" y="1536.0" type="line"/>
      <point x="248.6914893617021" y="1536.0" type="line"/>
      <point x="248.6914893617021" y="0.0" type="line"/>
    </contour>
  </outline>
</glyph>
<glyph name="m" format="2">
  <advance width="1652.7127659574467"/>
  <unicode hex="006D"/>
  <anchor x="831.8191489361702" y="0.0" name="bottom"/>
  <anchor x="831.8191489361702" y="1052.0" name="top"/>
  <outline>
    <contour>
      <point x="148.0" y="0.0" type="line"/>
      <point x="148.0" y="1052.0" type="line"/>
      <point x="232.0744680851064" y="1052.0" type="line"/>
      <point x="240.6914893617021" y="819.1808510638298" type="line"/>
      <point x="240.6914893617021" y="0.0" type="line"/>
    </contour>
    <contour>
      <point x="878.2127659574468" y="693.1228239845261" type="qcurve" smooth="yes"/>
      <point x="878.2127659574468" y="0.0" type="line"/>
      <point x="785.5212765957447" y="0.0" type="line"/>
      <point x="785.5212765957447" y="694.5531914893617" type="line" smooth="yes"/>
      <point x="785.5212765957447" y="866.6247582205029"/>
      <point x="671.2727272727273" y="983.7272727272727"/>
      <point x="560.4845261121857" y="983.7272727272727" type="qcurve" smooth="yes"/>
      <point x="450.53965183752416" y="983.7272727272727"/>
      <point x="279.0657640232108" y="872.0618955512573"/>
      <point x="195.02127659574467" y="732.8829787234042" type="qcurve"/>
      <point x="195.02127659574467" y="835.0522243713734" type="line"/>
      <point x="262.1015473887814" y="958.1179883945841"/>
      <point x="465.3268858800773" y="1072.0"/>
      <point x="581.8375241779497" y="1072.0" type="qcurve" smooth="yes"/>
      <point x="719.2195357833655" y="1072.0"/>
      <point x="878.2127659574468" y="916.8152804642166"/>
    </contour>
    <contour>
      <point x="843.9758220502902" y="861.4787234042553" type="line"/>
      <point x="893.2988394584139" y="957.0348162475822"/>
      <point x="1082.351063829787" y="1072.0"/>
      <point x="1211.2659574468084" y="1072.0" type="qcurve" smooth="yes"/>
      <point x="1358.0889748549323" y="1072.0"/>
      <point x="1514.7127659574467" y="916.8636363636364"/>
      <point x="1514.7127659574467" y="693.0744680851063" type="qcurve" smooth="yes"/>
      <point x="1514.7127659574467" y="0.0" type="line"/>
      <point x="1422.0212765957447" y="0.0" type="line"/>
      <point x="1422.0212765957447" y="694.5531914893617" type="line" smooth="yes"/>
      <point x="1422.0212765957447" y="866.6247582205029"/>
      <point x="1306.3636363636363" y="983.7272727272727"/>
      <point x="1193.718568665377" y="983.7272727272727" type="qcurve" smooth="yes"/>
      <point x="1074.7446808510638" y="983.7272727272727"/>
      <point x="902.3123791102514" y="855.0841392649904"/>
      <point x="843.9758220502902" y="732.8829787234042" type="qcurve"/>
    </contour>
  </outline>
</glyph>
<glyph name="n" format="2">
  <advance width="1043.8829787234042"/>
  <unicode hex="006E"/>
  <anchor x="486.1170212765957" y="0.0" name="bottom"/>
  <anchor x="486.1170212765957" y="1052.0" name="top"/>
  <anchor x="767.2978723404256" y="0.0" name="engtail"/>
  <outline>
    <contour>
      <point x="148.0" y="0.0" type="line"/>
      <point x="148.0" y="1052.0" type="line"/>
      <point x="232.0744680851064" y="1052.0" type="line"/>
      <point x="240.6914893617021" y="818.8665377176015" type="line"/>
      <point x="240.6914893617021" y="0.0" type="line"/>
    </contour>
    <contour>
      <point x="194.6063829787234" y="732.4477756286267" type="qcurve"/>
      <point x="194.6063829787234" y="834.6170212765958" type="line"/>
      <point x="260.2659574468085" y="948.2127659574468"/>
      <point x="464.98936170212767" y="1072.0"/>
      <point x="601.3936170212766" y="1072.0" type="qcurve" smooth="yes"/>
      <point x="743.9255319148936" y="1072.0"/>
      <point x="905.8829787234042" y="910.8085106382979"/>
      <point x="905.8829787234042" y="693.0744680851063" type="qcurve" smooth="yes"/>
      <point x="905.8829787234042" y="0.0" type="line"/>
      <point x="813.1914893617021" y="0.0" type="line"/>
      <point x="813.1914893617021" y="694.5531914893617" type="line" smooth="yes"/>
      <point x="813.1914893617021" y="859.3268858800774"/>
      <point x="694.0764023210832" y="983.7272727272727"/>
      <point x="579.3733075435202" y="983.7272727272727" type="qcurve" smooth="yes"/>
      <point x="459.98549323017403" y="983.7272727272727"/>
      <point x="269.4023210831721" y="858.1557059961315"/>
    </contour>
  </outline>
</glyph>
<glyph name="o" format="2">
  <advance width="1089.2127659574467"/>
  <unicode hex="006F"/>
  <anchor x="484.56382978723406" y="0.0" name="bottom"/>
  <anchor x="484.56382978723406" y="526.0" name="center"/>
  <anchor x="632.2021276595744" y="0.0" name="ogonek"/>
  <anchor x="484.56382978723406" y="1052.0" name="top"/>
  <anchor x="630.7234042553191" y="1052.0" name="topright"/>
  <anchor x="131.6063829787234" y="536.0" name="yu_dash"/>
  <outline>
    <contour>
      <point x="85.0" y="515.5" type="qcurve" smooth="yes"/>
      <point x="85.0" y="536.5" type="line" smooth="yes"/>
      <point x="85.0" y="788.468085106383"/>
      <point x="330.70212765957444" y="1082.0"/>
      <point x="544.6063829787233" y="1082.0" type="qcurve" smooth="yes"/>
      <point x="758.0106382978723" y="1082.0"/>
      <point x="1004.2127659574468" y="788.468085106383"/>
      <point x="1004.2127659574468" y="536.5" type="qcurve" smooth="yes"/>
      <point x="1004.2127659574468" y="515.5" type="line" smooth="yes"/>
      <point x="1004.2127659574468" y="263.531914893617"/>
      <point x="758.0106382978723" y="-30.0"/>
      <point x="544.6063829787233" y="-30.0" type="qcurve" smooth="yes"/>
      <point x="330.70212765957444" y="-30.0"/>
      <point x="85.0" y="263.531914893617"/>
    </contour>
    <contour>
      <point x="179.6063829787234" y="537.5" type="qcurve" smooth="yes"/>
      <point x="179.6063829787234" y="514.5" type="line" smooth="yes"/>
      <point x="179.6063829787234" y="306.77272727272725"/>
      <point x="365.87911025145064" y="56.09090909090909"/>
      <point x="544.6063829787233" y="56.09090909090909" type="qcurve" smooth="yes"/>
      <point x="723.3336557059962" y="56.09090909090909"/>
      <point x="909.6063829787234" y="306.77272727272725"/>
      <point x="909.6063829787234" y="514.5" type="qcurve" smooth="yes"/>
      <point x="909.6063829787234" y="537.5" type="line" smooth="yes"/>
      <point x="909.6063829787234" y="745.2272727272727"/>
      <point x="723.8336557059962" y="995.9090909090909"/>
      <point x="544.6063829787233" y="995.9090909090909" type="qcurve" smooth="yes"/>
      <point x="365.37911025145064" y="995.9090909090909"/>
      <point x="179.6063829787234" y="745.2272727272727"/>
    </contour>
  </outline>
</glyph>
<glyph name="p" format="2">
  <advance width="1089.2978723404256"/>
  <unicode hex="0070"/>
  <anchor x="495.52127659574467" y="0.0" name="bottom"/>
  <anchor x="495.52127659574467" y="1052.0" name="top"/>
  <outline>
    <contour>
      <point x="148.0" y="-416.0" type="line"/>
      <point x="148.0" y="1052.0" type="line"/>
      <point x="232.0744680851064" y="1052.0" type="line"/>
      <point x="235.90425531914894" y="915.0" type="line"/>
      <point x="240.6914893617021" y="915.0" type="line"/>
      <point x="240.6914893617021" y="-416.0" type="line"/>
    </contour>
    <contour>
      <point x="575.8858800773694" y="66.0909090909091" type="qcurve" smooth="yes"/>
      <point x="736.2969052224372" y="66.0909090909091"/>
      <point x="909.6914893617021" y="316.3636363636364"/>
      <point x="909.6914893617021" y="508.1818181818182" type="qcurve" smooth="yes"/>
      <point x="909.6914893617021" y="545.6363636363636" type="line" smooth="yes"/>
      <point x="909.6914893617021" y="745.2485493230174"/>
      <point x="740.7717601547389" y="985.9090909090909"/>
      <point x="576.0193423597678" y="985.9090909090909" type="qcurve" smooth="yes"/>
      <point x="409.1353965183752" y="985.9090909090909"/>
      <point x="220.1063829787234" y="722.8916827852998"/>
      <point x="220.1063829787234" y="551.2727272727273" type="qcurve" smooth="yes"/>
      <point x="220.1063829787234" y="521.0" type="line" smooth="yes"/>
      <point x="220.1063829787234" y="320.9023210831721"/>
      <point x="413.8259187620889" y="66.0909090909091"/>
    </contour>
    <contour>
      <point x="593.1402321083173" y="-20.0" type="qcurve" smooth="yes"/>
      <point x="400.54448742746615" y="-20.0"/>
      <point x="184.38297872340425" y="274.09090909090907"/>
      <point x="184.38297872340425" y="520.0" type="qcurve" smooth="yes"/>
      <point x="184.38297872340425" y="554.0" type="line" smooth="yes"/>
      <point x="184.38297872340425" y="758.7446808510638"/>
      <point x="392.4148936170213" y="1072.0"/>
      <point x="593.5947775628628" y="1072.0" type="qcurve" smooth="yes"/>
      <point x="778.1063829787233" y="1072.0"/>
      <point x="1004.2978723404256" y="786.0744680851063"/>
      <point x="1004.2978723404256" y="542.0" type="qcurve" smooth="yes"/>
      <point x="1004.2978723404256" y="510.0" type="line" smooth="yes"/>
      <point x="1004.2978723404256" y="276.3510638297872"/>
      <point x="775.9671179883946" y="-20.0"/>
    </contour>
  </outline>
</glyph>
<glyph name="q" format="2">
  <advance width="1087.7340425531916"/>
  <unicode hex="0071"/>
  <anchor x="475.531914893617" y="0.0" name="bottom"/>
  <anchor x="475.531914893617" y="1052.0" name="top"/>
  <outline>
    <contour>
      <point x="848.6063829787234" y="-416.0" type="line"/>
      <point x="848.6063829787234" y="765.3936170212766" type="line"/>
      <point x="853.3936170212766" y="765.3936170212766" type="line"/>
      <point x="857.2234042553191" y="1052.0" type="line"/>
      <point x="941.2978723404256" y="1052.0" type="line"/>
      <point x="941.2978723404256" y="-416.0" type="line"/>
    </contour>
    <contour>
      <point x="513.8665377176015" y="66.0909090909091" type="qcurve" smooth="yes"/>
      <point x="675.0957446808511" y="66.0909090909091"/>
      <point x="868.7369439071566" y="315.3133462282399"/>
      <point x="868.7369439071566" y="503.90909090909093" type="qcurve" smooth="yes"/>
      <point x="868.7369439071566" y="531.4545454545455" type="line" smooth="yes"/>
      <point x="868.7369439071566" y="723.5580270793037"/>
      <point x="677.5444874274662" y="985.9090909090909"/>
      <point x="512.8239845261122" y="985.9090909090909" type="qcurve" smooth="yes"/>
      <point x="348.07156673114116" y="985.9090909090909"/>
      <point x="179.15183752417792" y="745.2485493230174"/>
      <point x="179.15183752417792" y="545.6363636363636" type="qcurve" smooth="yes"/>
      <point x="179.15183752417792" y="508.1818181818182" type="line" smooth="yes"/>
      <point x="179.15183752417792" y="316.3636363636364"/>
      <point x="352.54642166344297" y="66.0909090909091"/>
    </contour>
    <contour>
      <point x="496.20309477756285" y="-20.0" type="qcurve" smooth="yes"/>
      <point x="312.3762088974855" y="-20.0"/>
      <point x="84.54545454545455" y="276.3510638297872"/>
      <point x="84.54545454545455" y="510.0" type="qcurve" smooth="yes"/>
      <point x="84.54545454545455" y="542.0" type="line" smooth="yes"/>
      <point x="84.54545454545455" y="786.0744680851063"/>
      <point x="310.2369439071567" y="1072.0"/>
      <point x="495.7485493230174" y="1072.0" type="qcurve" smooth="yes"/>
      <point x="695.8558994197292" y="1072.0"/>
      <point x="904.4603481624758" y="758.8413926499032"/>
      <point x="904.4603481624758" y="531.4545454545455" type="qcurve" smooth="yes"/>
      <point x="904.4603481624758" y="503.9574468085106" type="line" smooth="yes"/>
      <point x="904.4603481624758" y="274.5019342359768"/>
      <point x="689.468085106383" y="-20.0"/>
    </contour>
  </outline>
</glyph>
<glyph name="t" format="2">
  <advance width="648.627659574468"/>
  <unicode hex="0074"/>
  <anchor x="327.6276595744681" y="0.0" name="bottom"/>
  <anchor x="255.14893617021272" y="619.0" name="center"/>
  <anchor x="255.14893617021272" y="1312.0" name="top"/>
  <anchor x="605.127659574468" y="1052.0" name="topright"/>
  <outline>
    <contour>
      <point x="0.0" y="971.3636363636363" type="line"/>
      <point x="0.0" y="1052.0" type="line"/>
      <point x="598.627659574468" y="1052.0" type="line"/>
      <point x="598.627659574468" y="971.3636363636363" type="line"/>
    </contour>
    <contour>
      <point x="235.0" y="274.0" type="qcurve" smooth="yes"/>
      <point x="235.0" y="1003.7272727272727" type="line"/>
      <point x="235.0" y="1021.0" type="line"/>
      <point x="235.0" y="1312.0" type="line"/>
      <point x="327.6914893617021" y="1312.0" type="line"/>
      <point x="327.6914893617021" y="271.5" type="line" smooth="yes"/>
      <point x="327.6914893617021" y="163.6818181818182"/>
      <point x="401.27272727272725" y="60.45454545454545"/>
      <point x="464.5" y="60.45454545454545" type="qcurve" smooth="yes"/>
      <point x="494.99999999999994" y="60.45454545454545"/>
      <point x="567.127659574468" y="75.7272727272727"/>
      <point x="597.627659574468" y="88.0909090909091" type="qcurve"/>
      <point x="597.627659574468" y="1.5" type="line"/>
      <point x="570.627659574468" y="-11.0"/>
      <point x="479.6595744680851" y="-29.47872340425532"/>
      <point x="437.063829787234" y="-30.0" type="qcurve" smooth="yes"/>
      <point x="345.7553191489361" y="-30.0"/>
      <point x="235.0" y="117.0"/>
    </contour>
  </outline>
</glyph>
<glyph name="u" format="2">
  <advance width="1043.8829787234042"/>
  <unicode hex="0075"/>
  <anchor x="469.95744680851067" y="0.0" name="bottom"/>
  <anchor x="797.031914893617" y="0.0" name="ogonek"/>
  <anchor x="469.95744680851067" y="1052.0" name="top"/>
  <anchor x="759.6489361702128" y="1052.0" name="topright"/>
  <anchor x="757.2127659574468" y="0.0" name="cy_descender"/>
  <outline>
    <contour>
      <point x="425.48936170212767" y="-20.0" type="qcurve" smooth="yes"/>
      <point x="276.95744680851067" y="-20.0"/>
      <point x="138.0" y="141.1914893617021"/>
      <point x="138.0" y="358.9255319148936" type="qcurve" smooth="yes"/>
      <point x="138.0" y="1052.0" type="line"/>
      <point x="230.6914893617021" y="1052.0" type="line"/>
      <point x="230.6914893617021" y="357.4468085106383" type="line" smooth="yes"/>
      <point x="230.6914893617021" y="192.67311411992262"/>
      <point x="350.30657640232107" y="68.27272727272728"/>
      <point x="464.5096711798839" y="68.27272727272728" type="qcurve" smooth="yes"/>
      <point x="574.3974854932302" y="68.27272727272728"/>
      <point x="748.4806576402322" y="167.84429400386847"/>
      <point x="849.2765957446809" y="293.5522243713733" type="qcurve"/>
      <point x="849.2765957446809" y="194.38297872340425" type="line"/>
      <point x="750.1170212765958" y="71.7872340425532"/>
      <point x="536.3936170212766" y="-20.0"/>
    </contour>
    <contour>
      <point x="811.8085106382979" y="0.0" type="line"/>
      <point x="803.1914893617021" y="278.715667311412" type="line"/>
      <point x="803.1914893617021" y="1052.0" type="line"/>
      <point x="895.8829787234042" y="1052.0" type="line"/>
      <point x="895.8829787234042" y="0.0" type="line"/>
    </contour>
  </outline>
</glyph>
<glyph name="v" format="2">
  <advance width="993.7234042553191"/>
  <unicode hex="0076"/>
  <anchor x="488.3404255319149" y="0.0" name="bottom"/>
  <anchor x="488.3404255319149" y="1052.0" name="top"/>
  <outline>
    <contour>
      <point x="0.0" y="1052.0" type="line"/>
      <point x="92.31914893617021" y="1052.0" type="line"/>
      <point x="452.56382978723406" y="213.46808510638297" type="line" smooth="yes"/>
      <point x="470.0851063829787" y="173.96808510638297"/>
      <point x="489.2127659574468" y="108.46808510638297"/>
      <point x="494.77659574468083" y="83.46808510638297" type="qcurve"/>
      <point x="500.77659574468083" y="83.46808510638297" type="line"/>
      <point x="506.3404255319149" y="108.46808510638297"/>
      <point x="526.468085106383" y="173.96808510638297"/>
      <point x="542.9893617021277" y="213.46808510638297" type="qcurve" smooth="yes"/>
      <point x="903.3191489361702" y="1052.0" type="line"/>
      <point x="993.7234042553191" y="1052.0" type="line"/>
      <point x="533.9787234042553" y="0.0" type="line"/>
      <point x="458.1808510638298" y="0.0" type="line"/>
    </contour>
  </outline>
</glyph>
<glyph name="w" format="2">
  <advance width="1686.340425531915"/>
  <unicode hex="0077"/>
  <anchor x="726.0851063829787" y="0.0" name="bottom"/>
  <anchor x="726.0851063829787" y="1052.0" name="top"/>
  <outline>
    <contour>
      <point x="25.0" y="1052.0" type="line"/>
      <point x="114.8191489361702" y="1052.0" type="line"/>
      <point x="418.6489361702128" y="210.84042553191486" type="line" smooth="yes"/>
      <point x="432.67021276595744" y="171.34042553191486"/>
      <point x="444.73404255319144" y="120.84042553191486"/>
      <point x="454.8191489361702" y="80.84042553191487" type="qcurve"/>
      <point x="460.81914893617017" y="80.84042553191487" type="line"/>
      <point x="471.42553191489355" y="120.84042553191486"/>
      <point x="484.46808510638294" y="171.86170212765953"/>
      <point x="497.94680851063833" y="210.84042553191486" type="qcurve" smooth="yes"/>
      <point x="803.0106382978722" y="1052.0" type="line"/>
      <point x="883.9468085106382" y="1052.0" type="line"/>
      <point x="1205.9148936170213" y="210.84042553191486" type="line" smooth="yes"/>
      <point x="1220.8936170212764" y="171.34042553191486"/>
      <point x="1234.478723404255" y="120.84042553191486"/>
      <point x="1245.0851063829787" y="80.84042553191487" type="qcurve"/>
      <point x="1251.0851063829787" y="80.84042553191487" type="line"/>
      <point x="1260.648936170213" y="120.84042553191486"/>
      <point x="1271.2127659574467" y="171.34042553191486"/>
      <point x="1284.7340425531916" y="210.84042553191486" type="qcurve" smooth="yes"/>
      <point x="1575.3085106382978" y="1051.4787234042553" type="line"/>
      <point x="1661.340425531915" y="1051.4787234042553" type="line"/>
      <point x="1282.8085106382978" y="0.0" type="line"/>
      <point x="1207.1382978723404" y="0.0" type="line"/>
      <point x="893.7340425531914" y="809.7765957446808" type="line" smooth="yes"/>
      <point x="878.7340425531914" y="848.7765957446809"/>
      <point x="855.6489361702127" y="929.7765957446808"/>
      <point x="844.0851063829787" y="969.7765957446807" type="qcurve"/>
      <point x="838.0851063829787" y="969.7765957446807" type="line"/>
      <point x="827.0425531914893" y="929.7765957446808"/>
      <point x="805.5212765957447" y="849.2765957446809"/>
      <point x="791.0425531914893" y="809.7765957446808" type="qcurve" smooth="yes"/>
      <point x="490.67021276595744" y="0.0" type="line"/>
      <point x="413.9574468085106" y="0.0" type="line"/>
    </contour>
  </outline>
</glyph>
<glyph name="x" format="2">
  <advance width="978.7021276595744"/>
  <unicode hex="0078"/>
  <anchor x="434.2659574468085" y="0.0" name="bottom"/>
  <anchor x="434.2659574468085" y="1052.0" name="top"/>
  <anchor x="757.1808510638298" y="0.0" name="cy_descender"/>
  <outline>
    <contour>
      <point x="20.52127659574468" y="0.0" type="line"/>
      <point x="477.3936170212766" y="583.0425531914893" type="line"/>
      <point x="484.1595744680851" y="583.0425531914893" type="line"/>
      <point x="835.563829787234" y="1052.0" type="line"/>
      <point x="939.7446808510638" y="1052.0" type="line"/>
      <point x="500.6595744680851" y="484.0" type="line"/>
      <point x="493.89361702127655" y="484.0" type="line"/>
      <point x="124.18085106382978" y="0.0" type="line"/>
    </contour>
    <contour>
      <point x="41.56382978723404" y="1052.0" type="line"/>
      <point x="147.70212765957444" y="1052.0" type="line"/>
      <point x="495.45744680851067" y="582.5212765957447" type="line"/>
      <point x="500.78723404255317" y="582.5212765957447" type="line"/>
      <point x="958.1808510638298" y="0.0" type="line"/>
      <point x="852.0425531914893" y="0.0" type="line"/>
      <point x="481.3085106382979" y="484.0" type="line"/>
      <point x="476.47872340425533" y="484.0" type="line"/>
    </contour>
  </outline>
</glyph>
<glyph name="y" format="2">
  <advance width="945.7446808510638"/>
  <unicode hex="0079"/>
  <anchor x="784.8723404255318" y="0.0" name="bottom"/>
  <anchor x="489.61702127659566" y="1052.0" name="top"/>
  <outline>
    <contour>
      <point x="41.87234042553191" y="-416.0" type="qcurve"/>
      <point x="41.87234042553191" y="-326.18181818181813" type="line"/>
      <point x="75.14506769825918" y="-336.4545454545454"/>
      <point x="131.4303675048356" y="-345.09090909090907"/>
      <point x="164.27852998065765" y="-345.09090909090907" type="qcurve" smooth="yes"/>
      <point x="240.62572533849126" y="-345.09090909090907"/>
      <point x="357.1924564796905" y="-222.38394584139263"/>
      <point x="445.8829787234042" y="23.80851063829787" type="qcurve"/>
      <point x="445.36170212765956" y="24.287234042553195" type="line"/>
      <point x="10.0" y="1052.0" type="line"/>
      <point x="104.3191489361702" y="1052.0" type="line"/>
      <point x="429.9893617021276" y="266.6595744680851" type="line" smooth="yes"/>
      <point x="446.4893617021276" y="226.65957446808505"/>
      <point x="474.61702127659566" y="154.57446808510636"/>
      <point x="484.6595744680851" y="124.57446808510636" type="qcurve"/>
      <point x="490.65957446808505" y="124.57446808510636" type="line"/>
      <point x="501.6808510638298" y="154.57446808510636"/>
      <point x="530.2872340425531" y="226.65957446808505"/>
      <point x="546.3085106382979" y="266.6595744680851" type="qcurve" smooth="yes"/>
      <point x="856.8404255319149" y="1052.0" type="line"/>
      <point x="945.7446808510638" y="1052.0" type="line"/>
      <point x="508.6276595744681" y="-45.127659574468076" type="line" smooth="yes"/>
      <point x="419.7446808510638" y="-280.0"/>
      <point x="272.3723404255319" y="-436.0"/>
      <point x="168.69052224371373" y="-436.0" type="qcurve" smooth="yes"/>
      <point x="130.963249516441" y="-436.0"/>
      <point x="74.87234042553192" y="-426.9090909090909"/>
    </contour>
  </outline>
</glyph>
<glyph name="z" format="2">
  <advance width="985.5232108317215"/>
  <unicode hex="007A"/>
  <anchor x="544.247582205029" y="0.0" name="bottom"/>
  <anchor x="544.247582205029" y="1052.0" name="top"/>
  <outline>
    <contour>
      <point x="23.63636363636364" y="0.0" type="line"/>
      <point x="23.63636363636364" y="77.36363636363637" type="line"/>
      <point x="805.2727272727273" y="965.9090909090909" type="line"/>
      <point x="45.27272727272727" y="965.9090909090909" type="line"/>
      <point x="45.27272727272727" y="1052.0" type="line"/>
      <point x="932.7446808510638" y="1052.0" type="line"/>
      <point x="932.7446808510638" y="976.2727272727273" type="line"/>
      <point x="135.47195357833655" y="86.0909090909091" type="line"/>
      <point x="961.5232108317215" y="86.0909090909091" type="line"/>
      <point x="961.5232108317215" y="0.0" type="line"/>
    </contour>
  </outline>
</glyph>
<glyph name="braceleft" format="2">
  <advance width="605.6489361702127"/>
  <unicode hex="007B"/>
  <outline>
    <contour>
      <point x="575.6489361702127" y="-312.0" type="line"/>
      <point x="374.1489361702128" y="-312.0"/>
      <point x="181.70212765957444" y="-63.27659574468085"/>
      <point x="226.0" y="123.0" type="qcurve" smooth="yes"/>
      <point x="276.0" y="334.0" type="line" smooth="yes"/>
      <point x="300.47872340425533" y="438.9148936170212"/>
      <point x="184.86170212765956" y="536.6363636363636"/>
      <point x="64.0" y="536.6363636363636" type="qcurve"/>
      <point x="64.0" y="611.8181818181818" type="line"/>
      <point x="184.86170212765956" y="611.8181818181818"/>
      <point x="300.47872340425533" y="709.0851063829787"/>
      <point x="276.0" y="814.0" type="qcurve" smooth="yes"/>
      <point x="226.0" y="1025.0" type="line" smooth="yes"/>
      <point x="180.13829787234042" y="1218.0531914893618"/>
      <point x="374.67021276595744" y="1460.0"/>
      <point x="575.6489361702127" y="1460.0" type="qcurve"/>
      <point x="575.6489361702127" y="1377.181818181818" type="line"/>
      <point x="414.095744680851" y="1377.181818181818"/>
      <point x="278.7282398452611" y="1192.968085106383"/>
      <point x="318.6914893617021" y="1025.0" type="qcurve" smooth="yes"/>
      <point x="368.6914893617021" y="814.0" type="line" smooth="yes"/>
      <point x="389.2127659574468" y="728.436170212766"/>
      <point x="314.60638297872333" y="596.3510638297871"/>
      <point x="212.43617021276594" y="574.0" type="qcurve"/>
      <point x="314.60638297872333" y="551.6489361702128"/>
      <point x="389.2127659574468" y="419.563829787234"/>
      <point x="368.6914893617021" y="334.0" type="qcurve" smooth="yes"/>
      <point x="318.6914893617021" y="123.0" type="line" smooth="yes"/>
      <point x="279.6914893617021" y="-41.18181818181818"/>
      <point x="414.095744680851" y="-229.1818181818182"/>
      <point x="575.6489361702127" y="-229.1818181818182" type="qcurve"/>
    </contour>
  </outline>
</glyph>
<glyph name="bar" format="2">
  <advance width="505.98936170212767"/>
  <unicode hex="007C"/>
  <outline>
    <contour>
      <point x="210.0" y="-416.0" type="line"/>
      <point x="210.0" y="1536.0" type="line"/>
      <point x="295.98936170212767" y="1536.0" type="line"/>
      <point x="295.98936170212767" y="-416.0" type="line"/>
    </contour>
  </outline>
</glyph>
<glyph name="braceright" format="2">
  <advance width="605.6489361702127"/>
  <unicode hex="007D"/>
  <outline>
    <contour>
      <point x="30.0" y="-312.0" type="qcurve"/>
      <point x="30.0" y="-229.1818181818182" type="line"/>
      <point x="191.5531914893617" y="-229.1818181818182"/>
      <point x="326.9206963249516" y="-44.96808510638297"/>
      <point x="286.9574468085106" y="123.0" type="qcurve" smooth="yes"/>
      <point x="236.9574468085106" y="334.0" type="line" smooth="yes"/>
      <point x="216.43617021276594" y="419.563829787234"/>
      <point x="291.04255319148933" y="551.6489361702128"/>
      <point x="393.2127659574468" y="574.0" type="qcurve"/>
      <point x="291.04255319148933" y="596.3510638297871"/>
      <point x="216.43617021276594" y="728.436170212766"/>
      <point x="236.9574468085106" y="814.0" type="qcurve" smooth="yes"/>
      <point x="286.9574468085106" y="1025.0" type="line" smooth="yes"/>
      <point x="325.9574468085106" y="1189.1818181818182"/>
      <point x="191.5531914893617" y="1377.181818181818"/>
      <point x="30.0" y="1377.181818181818" type="qcurve"/>
      <point x="30.0" y="1460.0" type="line"/>
      <point x="231.5" y="1460.0"/>
      <point x="423.9468085106382" y="1211.276595744681"/>
      <point x="379.6489361702127" y="1025.0" type="qcurve" smooth="yes"/>
      <point x="329.6489361702128" y="814.0" type="line" smooth="yes"/>
      <point x="305.17021276595744" y="709.0851063829787"/>
      <point x="420.78723404255317" y="611.3636363636363"/>
      <point x="541.6489361702127" y="611.3636363636363" type="qcurve"/>
      <point x="541.6489361702127" y="536.1818181818181" type="line"/>
      <point x="420.78723404255317" y="536.1818181818181"/>
      <point x="305.17021276595744" y="438.9148936170212"/>
      <point x="329.6489361702128" y="334.0" type="qcurve" smooth="yes"/>
      <point x="379.6489361702127" y="123.0" type="line" smooth="yes"/>
      <point x="425.51063829787233" y="-70.05319148936171"/>
      <point x="230.9787234042553" y="-312.0"/>
    </contour>
  </outline>
</glyph>
<glyph name="asciitilde" format="2">
  <advance width="1024.0"/>
  <unicode hex="007E"/>
  <outline>
    <contour>
      <point x="45.0" y="584.1276595744681" type="qcurve"/>
      <point x="45.0" y="685.0" type="line"/>
      <point x="89.91489361702128" y="739.1276595744681"/>
      <point x="224.0" y="802.9042553191489"/>
      <point x="289.0" y="803.3829787234042" type="qcurve" smooth="yes"/>
      <point x="361.74468085106383" y="803.8617021276596"/>
      <point x="460.0" y="761.3829787234042"/>
      <point x="523.5212765957447" y="729.8617021276596" type="qcurve" smooth="yes"/>
      <point x="582.0" y="700.3829787234042"/>
      <point x="672.7340425531914" y="660.8617021276596"/>
      <point x="741.5212765957447" y="660.8617021276596" type="qcurve" smooth="yes"/>
      <point x="806.0" y="660.8617021276596"/>
      <point x="927.8723404255319" y="731.9893617021277"/>
      <point x="978.0" y="789.3829787234042" type="qcurve"/>
      <point x="978.0" y="688.5531914893617" type="line"/>
      <point x="931.0" y="637.031914893617"/>
      <point x="807.0" y="569.1276595744681"/>
      <point x="742.0" y="569.1276595744681" type="qcurve" smooth="yes"/>
      <point x="674.7765957446809" y="569.1276595744681"/>
      <point x="583.0" y="608.1276595744681"/>
      <point x="522.436170212766" y="638.6489361702128" type="qcurve" smooth="yes"/>
      <point x="461.0" y="669.1276595744681"/>
      <point x="362.78723404255317" y="711.6489361702128"/>
      <point x="289.0" y="711.6489361702128" type="qcurve" smooth="yes"/>
      <point x="224.0" y="711.6489361702128"/>
      <point x="92.0" y="644.1276595744681"/>
    </contour>
  </outline>
</glyph>
<glyph name="exclamdown" format="2">
  <advance width="516.7872340425531"/>
  <unicode hex="00A1"/>
  <outline>
    <contour>
      <point x="330.78723404255317" y="1095.7446808510638" type="qcurve" smooth="yes"/>
      <point x="330.78723404255317" y="1067.0744680851062"/>
      <point x="293.89361702127655" y="1026.2659574468084"/>
      <point x="258.39361702127655" y="1026.2659574468084" type="qcurve" smooth="yes"/>
      <point x="222.89361702127658" y="1026.2659574468084"/>
      <point x="186.0" y="1067.0744680851062"/>
      <point x="186.0" y="1095.7446808510638" type="qcurve" smooth="yes"/>
      <point x="186.0" y="1124.414893617021"/>
      <point x="222.89361702127658" y="1165.223404255319"/>
      <point x="258.39361702127655" y="1165.223404255319" type="qcurve" smooth="yes"/>
      <point x="293.89361702127655" y="1165.223404255319"/>
      <point x="330.78723404255317" y="1124.414893617021"/>
    </contour>
    <contour>
      <point x="299.2127659574468" y="740.0" type="line"/>
      <point x="306.39361702127655" y="-306.0" type="line"/>
      <point x="209.8723404255319" y="-306.0" type="line"/>
      <point x="217.05319148936167" y="740.0" type="line"/>
    </contour>
  </outline>
</glyph>
<glyph name="cent" format="2">
  <advance width="842.5957446808511"/>
  <unicode hex="00A2"/>
  <outline>
    <contour>
      <point x="453.6914893617021" y="216.0909090909091" type="qcurve" smooth="yes"/>
      <point x="565.9642166344294" y="216.0909090909091"/>
      <point x="697.9642166344294" y="359.1818181818182"/>
      <point x="708.6914893617021" y="492.0" type="qcurve"/>
      <point x="796.5957446808511" y="492.0" type="line"/>
      <point x="788.6808510638298" y="318.0"/>
      <point x="608.9468085106382" y="130.0"/>
      <point x="451.6063829787234" y="130.0" type="qcurve" smooth="yes"/>
      <point x="266.52127659574467" y="130.0"/>
      <point x="65.0" y="410.0"/>
      <point x="65.0" y="670.0" type="qcurve" smooth="yes"/>
      <point x="65.0" y="712.0" type="line" smooth="yes"/>
      <point x="65.0" y="972.0"/>
      <point x="266.52127659574467" y="1252.0"/>
      <point x="451.6063829787234" y="1252.0" type="qcurve" smooth="yes"/>
      <point x="610.4255319148936" y="1252.0"/>
      <point x="790.1595744680851" y="1049.0"/>
      <point x="796.5957446808511" y="860.0" type="qcurve"/>
      <point x="708.6914893617021" y="860.0" type="line"/>
      <point x="698.4187620889749" y="1007.8181818181819"/>
      <point x="566.4187620889749" y="1165.909090909091"/>
      <point x="453.6914893617021" y="1165.909090909091" type="qcurve" smooth="yes"/>
      <point x="310.6914893617021" y="1165.909090909091"/>
      <point x="157.6914893617021" y="930.8181818181819"/>
      <point x="157.6914893617021" y="712.0" type="qcurve" smooth="yes"/>
      <point x="157.6914893617021" y="670.0" type="line" smooth="yes"/>
      <point x="157.6914893617021" y="451.1818181818182"/>
      <point x="310.6914893617021" y="216.0909090909091"/>
    </contour>
    <contour>
      <point x="375.6914893617021" y="0.0" type="line"/>
      <point x="375.6914893617021" y="168.8181818181818" type="line"/>
      <point x="380.6914893617021" y="176.45454545454544" type="line"/>
      <point x="380.6914893617021" y="708.0" type="line"/>
      <point x="520.6914893617021" y="708.0" type="line"/>
      <point x="520.6914893617021" y="175.9090909090909" type="line"/>
      <point x="525.6914893617021" y="170.45454545454547" type="line"/>
      <point x="525.6914893617021" y="0.0" type="line"/>
    </contour>
    <contour>
      <point x="380.6914893617021" y="708.0" type="line"/>
      <point x="380.6914893617021" y="1206.5454545454545" type="line"/>
      <point x="375.6914893617021" y="1216.5454545454545" type="line"/>
      <point x="375.6914893617021" y="1402.0" type="line"/>
      <point x="525.6914893617021" y="1402.0" type="line"/>
      <point x="525.6914893617021" y="1216.5454545454545" type="line"/>
      <point x="520.6914893617021" y="1203.5454545454545" type="line"/>
      <point x="520.6914893617021" y="708.0" type="line"/>
    </contour>
  </outline>
</glyph>
<glyph name="sterling" format="2">
  <advance width="829.0425531914893"/>
  <unicode hex="00A3"/>
  <outline>
    <contour>
      <point x="833.0425531914893" y="0.0" type="line"/>
      <point x="36.0" y="0.0" type="line"/>
      <point x="36.0" y="90.0" type="line"/>
      <point x="92.0" y="90.0" type="line" smooth="yes"/>
      <point x="180.87234042553192" y="90.0"/>
      <point x="264.0" y="324.0"/>
      <point x="248.95744680851064" y="478.468085106383" type="qcurve" smooth="yes"/>
      <point x="195.0" y="1039.0" type="line" smooth="yes"/>
      <point x="177.0" y="1228.0"/>
      <point x="328.3936170212766" y="1476.0"/>
      <point x="485.0851063829787" y="1476.0" type="qcurve" smooth="yes"/>
      <point x="636.5106382978723" y="1476.0"/>
      <point x="789.0425531914893" y="1270.5212765957447"/>
      <point x="789.0425531914893" y="1103.0" type="qcurve" smooth="yes"/>
      <point x="789.0425531914893" y="1087.0" type="line"/>
      <point x="694.5212765957447" y="1087.0" type="line"/>
      <point x="694.5212765957447" y="1103.0" type="line" smooth="yes"/>
      <point x="694.5212765957447" y="1253.4545454545455"/>
      <point x="587.2669245647968" y="1381.7272727272727"/>
      <point x="487.0851063829787" y="1381.7272727272727" type="qcurve" smooth="yes"/>
      <point x="376.4487427466151" y="1381.7272727272727"/>
      <point x="271.01257253384915" y="1221.8181818181818"/>
      <point x="288.6489361702128" y="1039.0" type="qcurve" smooth="yes"/>
      <point x="340.6914893617021" y="498.6170212765957" type="line" smooth="yes"/>
      <point x="352.6489361702128" y="372.0"/>
      <point x="305.468085106383" y="134.72727272727275"/>
      <point x="235.46808510638297" y="93.72727272727273" type="qcurve"/>
      <point x="833.0425531914893" y="93.72727272727273" type="line"/>
    </contour>
    <contour>
      <point x="629.0425531914893" y="660.0" type="line"/>
      <point x="52.0" y="660.0" type="line"/>
      <point x="52.0" y="747.7272727272727" type="line"/>
      <point x="629.0425531914893" y="747.7272727272727" type="line"/>
    </contour>
  </outline>
</glyph>
<glyph name="currency" format="2">
  <advance width="1092.3191489361702"/>
  <unicode hex="00A4"/>
  <guideline y="901.0" identifier="bRYxxRaQQf"/>
  <guideline y="555.0" identifier="917FhrihjR"/>
  <outline>
    <contour>
      <point x="228.1595744680851" y="712.5212765957447" type="qcurve"/>
      <point x="228.1595744680851" y="524.2727272727273"/>
      <point x="402.61411992263055" y="301.6363636363636"/>
      <point x="543.1595744680851" y="301.6363636363636" type="qcurve" smooth="yes"/>
      <point x="682.7050290135396" y="301.6363636363636"/>
      <point x="856.1595744680851" y="524.2727272727273"/>
      <point x="856.1595744680851" y="712.0" type="qcurve" smooth="yes"/>
      <point x="856.1595744680851" y="900.9090909090909"/>
      <point x="682.7050290135396" y="1125.8181818181818"/>
      <point x="543.1595744680851" y="1125.8181818181818" type="qcurve" smooth="yes"/>
      <point x="402.61411992263055" y="1125.8181818181818"/>
      <point x="228.1595744680851" y="900.9090909090909"/>
    </contour>
    <contour>
      <point x="136.90425531914894" y="715.9148936170212" type="qcurve"/>
      <point x="136.90425531914894" y="893.9042553191489"/>
      <point x="379.21276595744683" y="1136.904255319149"/>
      <point x="542.6808510638298" y="1136.904255319149" type="qcurve" smooth="yes"/>
      <point x="706.1489361702128" y="1136.904255319149"/>
      <point x="947.4148936170212" y="893.9042553191489"/>
      <point x="947.4148936170212" y="715.3936170212766" type="qcurve" smooth="yes"/>
      <point x="947.4148936170212" y="537.3617021276596"/>
      <point x="706.1489361702128" y="290.8404255319149"/>
      <point x="542.6808510638298" y="290.8404255319149" type="qcurve" smooth="yes"/>
      <point x="379.21276595744683" y="290.8404255319149"/>
      <point x="136.90425531914894" y="537.3617021276596"/>
    </contour>
    <contour>
      <point x="1051.2340425531916" y="1138.9893617021276" type="line"/>
      <point x="849.7553191489362" y="932.9893617021277" type="line"/>
      <point x="727.7553191489362" y="1059.9893617021276" type="line"/>
      <point x="929.2340425531914" y="1265.9893617021276" type="line"/>
    </contour>
    <contour>
      <point x="335.0" y="388.9255319148936" type="line"/>
      <point x="133.0" y="182.9255319148936" type="line"/>
      <point x="12.0" y="308.9255319148936" type="line"/>
      <point x="214.0" y="513.9255319148937" type="line"/>
    </contour>
    <contour>
      <point x="957.3191489361702" y="189.40425531914894" type="line"/>
      <point x="755.3191489361702" y="395.40425531914894" type="line"/>
      <point x="878.3191489361702" y="521.4042553191489" type="line"/>
      <point x="1080.3191489361702" y="316.40425531914894" type="line"/>
    </contour>
    <contour>
      <point x="237.77659574468086" y="943.8617021276596" type="line"/>
      <point x="35.776595744680854" y="1149.8617021276596" type="line"/>
      <point x="156.77659574468086" y="1275.8617021276596" type="line"/>
      <point x="358.77659574468083" y="1069.8617021276596" type="line"/>
    </contour>
  </outline>
</glyph>
<glyph name="yen" format="2">
  <advance width="917.6595744680851"/>
  <unicode hex="00A5"/>
  <outline>
    <contour>
      <point x="44.56382978723404" y="325.72727272727275" type="line"/>
      <point x="44.56382978723404" y="415.6363636363636" type="line"/>
      <point x="883.1808510638298" y="415.6363636363636" type="line"/>
      <point x="883.1808510638298" y="325.72727272727275" type="line"/>
    </contour>
    <contour>
      <point x="44.56382978723404" y="646.1818181818181" type="line"/>
      <point x="44.56382978723404" y="736.6363636363636" type="line"/>
      <point x="343.8404255319149" y="736.6363636363636" type="line"/>
      <point x="397.8829787234042" y="669.0" type="line"/>
      <point x="512.6170212765958" y="669.0" type="line"/>
      <point x="566.3510638297872" y="736.6363636363636" type="line"/>
      <point x="883.1808510638298" y="736.6363636363636" type="line"/>
      <point x="883.1808510638298" y="646.1818181818181" type="line"/>
    </contour>
    <contour>
      <point x="406.968085106383" y="0.0" type="line"/>
      <point x="406.968085106383" y="548.0" type="line"/>
      <point x="-35.0" y="1456.0" type="line"/>
      <point x="67.6595744680851" y="1456.0" type="line"/>
      <point x="350.95744680851067" y="849.0" type="line" smooth="yes"/>
      <point x="364.95744680851067" y="819.0"/>
      <point x="430.79787234042556" y="662.3085106382979"/>
      <point x="447.1808510638298" y="616.4468085106383" type="qcurve"/>
      <point x="459.36170212765956" y="616.4468085106383" type="line"/>
      <point x="476.70212765957444" y="670.8829787234042"/>
      <point x="544.1914893617021" y="816.3936170212766"/>
      <point x="560.2765957446809" y="849.0" type="qcurve" smooth="yes"/>
      <point x="852.7872340425532" y="1456.0" type="line"/>
      <point x="952.6595744680851" y="1456.0" type="line"/>
      <point x="497.6595744680851" y="548.0" type="line"/>
      <point x="497.6595744680851" y="0.0" type="line"/>
    </contour>
  </outline>
</glyph>
<glyph name="section" format="2">
  <advance width="1074.0744680851062"/>
  <unicode hex="00A7"/>
  <guideline y="1658.0" identifier="QzZ5gIiCyn"/>
  <guideline y="578.0" identifier="9Hxjf2sdFw"/>
  <outline>
    <contour>
      <point x="601.3404255319149" y="159.06382978723406" type="qcurve"/>
      <point x="601.3404255319149" y="201.09090909090907" type="line"/>
      <point x="719.0676982591876" y="201.09090909090907"/>
      <point x="862.7765957446808" y="344.6363636363636"/>
      <point x="862.7765957446808" y="449.3636363636364" type="qcurve"/>
      <point x="862.7765957446808" y="556.0"/>
      <point x="697.3404255319148" y="672.0"/>
      <point x="516.3404255319149" y="734.0" type="qcurve" smooth="yes"/>
      <point x="350.4468085106383" y="785.1382978723404"/>
      <point x="190.2659574468085" y="931.2765957446809"/>
      <point x="190.2659574468085" y="1134.2127659574467" type="qcurve" smooth="yes"/>
      <point x="190.2659574468085" y="1305.0"/>
      <point x="370.4361702127659" y="1490.0"/>
      <point x="532.8191489361702" y="1491.0" type="qcurve" smooth="yes"/>
      <point x="687.2446808510638" y="1492.0"/>
      <point x="866.4148936170212" y="1294.0"/>
      <point x="865.4148936170212" y="1100.0" type="qcurve"/>
      <point x="782.7765957446808" y="1100.0" type="line"/>
      <point x="784.2311411992263" y="1238.6363636363635"/>
      <point x="655.2495164410057" y="1403.8181818181818"/>
      <point x="529.1702127659574" y="1403.8181818181818" type="qcurve" smooth="yes"/>
      <point x="399.70406189555126" y="1403.8181818181818"/>
      <point x="272.9042553191489" y="1269.4545454545455"/>
      <point x="272.9042553191489" y="1140.0" type="qcurve" smooth="yes"/>
      <point x="272.9042553191489" y="1049.0"/>
      <point x="394.3404255319149" y="961.0"/>
      <point x="594.3404255319149" y="897.0" type="qcurve" smooth="yes"/>
      <point x="743.9361702127659" y="849.4255319148936"/>
      <point x="953.0744680851062" y="670.2446808510638"/>
      <point x="953.0744680851062" y="469.65957446808505" type="qcurve" smooth="yes"/>
      <point x="953.0744680851062" y="341.06382978723406"/>
      <point x="743.3297872340424" y="159.06382978723406"/>
    </contour>
    <contour>
      <point x="452.55319148936167" y="867.936170212766" type="qcurve"/>
      <point x="451.55319148936167" y="813.7272727272727" type="line"/>
      <point x="334.43133462282395" y="813.7272727272727"/>
      <point x="212.9042553191489" y="681.3394584139264"/>
      <point x="212.9042553191489" y="585.8491295938104" type="qcurve" smooth="yes"/>
      <point x="212.9042553191489" y="487.52127659574467"/>
      <point x="357.3404255319149" y="387.0"/>
      <point x="546.3404255319149" y="317.0" type="qcurve" smooth="yes"/>
      <point x="699.9255319148936" y="258.77659574468083"/>
      <point x="875.4574468085106" y="76.42553191489361"/>
      <point x="875.4574468085106" y="-124.98936170212765" type="qcurve" smooth="yes"/>
      <point x="875.4574468085106" y="-298.0"/>
      <point x="667.3297872340424" y="-509.0"/>
      <point x="507.7765957446808" y="-509.0" type="qcurve" smooth="yes"/>
      <point x="348.7446808510638" y="-509.0"/>
      <point x="124.74468085106382" y="-303.0"/>
      <point x="124.74468085106382" y="-71.4787234042553" type="qcurve"/>
      <point x="206.90425531914894" y="-70.0" type="line"/>
      <point x="206.90425531914894" y="-251.8181818181818"/>
      <point x="377.3394584139265" y="-421.8181818181818"/>
      <point x="509.3404255319149" y="-421.8181818181818" type="qcurve" smooth="yes"/>
      <point x="637.5164410058027" y="-421.8181818181818"/>
      <point x="792.7765957446808" y="-274.9090909090909"/>
      <point x="792.7765957446808" y="-136.0" type="qcurve" smooth="yes"/>
      <point x="792.7765957446808" y="-35.0"/>
      <point x="652.3404255319149" y="94.0"/>
      <point x="450.34042553191483" y="161.0" type="qcurve" smooth="yes"/>
      <point x="287.23404255319144" y="214.70212765957444"/>
      <point x="122.12765957446808" y="406.4468085106383"/>
      <point x="122.12765957446808" y="577.0" type="qcurve" smooth="yes"/>
      <point x="122.12765957446808" y="700.9361702127659"/>
      <point x="320.78723404255317" y="867.936170212766"/>
    </contour>
  </outline>
</glyph>
<glyph name="copyright" format="2">
  <advance width="1654.0"/>
  <unicode hex="00A9"/>
  <guideline y="901.0" identifier="0Pjz0qKr8z"/>
  <guideline y="555.0" identifier="sJo8BlDiJ7"/>
  <outline>
    <contour>
      <point x="1080.0425531914893" y="546.0" type="qcurve"/>
      <point x="1170.8191489361702" y="546.0" type="line"/>
      <point x="1170.8191489361702" y="375.0"/>
      <point x="962.9255319148936" y="205.0"/>
      <point x="817.6914893617021" y="205.0" type="qcurve" smooth="yes"/>
      <point x="666.5" y="205.0"/>
      <point x="469.04255319148933" y="437.0"/>
      <point x="469.04255319148933" y="664.0" type="qcurve" smooth="yes"/>
      <point x="469.04255319148933" y="703.0" type="line" smooth="yes"/>
      <point x="469.04255319148933" y="931.0"/>
      <point x="667.5" y="1170.0"/>
      <point x="832.6063829787233" y="1170.0" type="qcurve" smooth="yes"/>
      <point x="998.7553191489361" y="1170.0"/>
      <point x="1171.8191489361702" y="983.0"/>
      <point x="1171.8191489361702" y="829.0" type="qcurve"/>
      <point x="1081.0425531914893" y="829.0" type="line"/>
      <point x="1081.0425531914893" y="950.1818181818182"/>
      <point x="953.6760154738878" y="1077.818181818182"/>
      <point x="832.127659574468" y="1077.818181818182" type="qcurve" smooth="yes"/>
      <point x="700.4941972920697" y="1077.818181818182"/>
      <point x="565.0851063829787" y="904.3636363636363"/>
      <point x="565.0851063829787" y="747.0" type="qcurve" smooth="yes"/>
      <point x="565.0851063829787" y="621.0" type="line" smooth="yes"/>
      <point x="565.0851063829787" y="464.9090909090909"/>
      <point x="709.7611218568666" y="294.27272727272725"/>
      <point x="843.2127659574467" y="294.27272727272725" type="qcurve" smooth="yes"/>
      <point x="962.9429400386848" y="294.27272727272725"/>
      <point x="1080.0425531914893" y="424.7272727272727"/>
    </contour>
    <contour>
      <point x="186.0" y="687.0" type="qcurve" smooth="yes"/>
      <point x="186.0" y="349.5454545454545"/>
      <point x="543.0" y="-61.45454545454545"/>
      <point x="828.0" y="-61.45454545454545" type="qcurve" smooth="yes"/>
      <point x="1112.4545454545455" y="-61.45454545454545"/>
      <point x="1469.0" y="349.5454545454545"/>
      <point x="1469.0" y="687.0" type="qcurve" smooth="yes"/>
      <point x="1469.0" y="1025.0"/>
      <point x="1112.4545454545455" y="1432.909090909091"/>
      <point x="828.0" y="1432.909090909091" type="qcurve" smooth="yes"/>
      <point x="543.0" y="1432.909090909091"/>
      <point x="186.0" y="1025.0"/>
    </contour>
    <contour>
      <point x="38.0" y="687.0" type="qcurve" smooth="yes"/>
      <point x="38.0" y="1039.0"/>
      <point x="501.0" y="1518.9999999999998"/>
      <point x="827.0" y="1518.9999999999998" type="qcurve" smooth="yes"/>
      <point x="1152.0" y="1518.9999999999998"/>
      <point x="1616.0" y="1039.0"/>
      <point x="1616.0" y="687.0" type="qcurve" smooth="yes"/>
      <point x="1616.0" y="337.0"/>
      <point x="1152.0" y="-147.0"/>
      <point x="827.0" y="-147.0" type="qcurve" smooth="yes"/>
      <point x="501.0" y="-147.0"/>
      <point x="38.0" y="337.0"/>
    </contour>
  </outline>
</glyph>
<glyph name="ordfeminine" format="2">
  <advance width="762.2234042553191"/>
  <unicode hex="00AA"/>
  <guideline y="1681.0" identifier="3CJlALCfkl"/>
  <guideline y="909.0" identifier="Zdl6NZVQAy"/>
  <outline>
    <contour>
      <point x="527.8085106382979" y="866.1702127659574" type="line"/>
      <point x="527.8085106382979" y="821.0"/>
      <point x="543.1170212765958" y="742.2553191489362"/>
      <point x="561.9468085106383" y="706.0" type="qcurve"/>
      <point x="630.2234042553191" y="706.0" type="line"/>
      <point x="616.2234042553191" y="749.0"/>
      <point x="604.2234042553191" y="831.7446808510638"/>
      <point x="604.2234042553191" y="878.1382978723404" type="qcurve" smooth="yes"/>
      <point x="604.2234042553191" y="1201.0" type="line" smooth="yes"/>
      <point x="604.2234042553191" y="1343.212765957447"/>
      <point x="488.48936170212767" y="1477.0"/>
      <point x="385.8085106382979" y="1477.0" type="qcurve" smooth="yes"/>
      <point x="286.95744680851067" y="1477.0"/>
      <point x="161.87234042553192" y="1361.212765957447"/>
      <point x="163.95744680851064" y="1261.0" type="qcurve" smooth="yes"/>
      <point x="163.95744680851064" y="1234.0" type="line"/>
      <point x="241.80851063829786" y="1234.0" type="line"/>
      <point x="241.80851063829786" y="1247.0" type="line" smooth="yes"/>
      <point x="241.80851063829786" y="1320.1818181818182"/>
      <point x="317.2630560928433" y="1402.3636363636363"/>
      <point x="387.8085106382979" y="1402.3636363636363" type="qcurve" smooth="yes"/>
      <point x="454.8085106382979" y="1402.3636363636363"/>
      <point x="527.8085106382979" y="1301.0"/>
      <point x="527.8085106382979" y="1202.0" type="qcurve" smooth="yes"/>
    </contour>
    <contour>
      <point x="565.7127659574468" y="1149.0" type="line"/>
      <point x="396.7234042553191" y="1149.0" type="line" smooth="yes"/>
      <point x="268.90425531914894" y="1149.0"/>
      <point x="141.0" y="1028.0"/>
      <point x="141.0" y="919.0425531914893" type="qcurve" smooth="yes"/>
      <point x="141.0" y="816.0"/>
      <point x="238.80851063829786" y="692.0"/>
      <point x="328.6170212765957" y="692.0" type="qcurve" smooth="yes"/>
      <point x="401.468085106383" y="692.0"/>
      <point x="528.7340425531914" y="779.9255319148937"/>
      <point x="567.7978723404256" y="820.7234042553191" type="qcurve"/>
      <point x="565.7127659574468" y="888.9651837524178" type="line"/>
      <point x="514.5744680851063" y="839.0396518375242"/>
      <point x="406.0744680851064" y="772.4545454545455"/>
      <point x="347.8085106382979" y="772.4545454545455" type="qcurve" smooth="yes"/>
      <point x="284.7176015473888" y="772.4545454545455"/>
      <point x="219.80851063829786" y="852.6363636363636"/>
      <point x="219.80851063829786" y="920.9574468085107" type="qcurve" smooth="yes"/>
      <point x="219.80851063829786" y="995.8181818181819"/>
      <point x="311.17214700193426" y="1087.4545454545455"/>
      <point x="399.8085106382979" y="1087.4545454545455" type="qcurve" smooth="yes"/>
      <point x="565.7127659574468" y="1087.4545454545455" type="line"/>
    </contour>
  </outline>
</glyph>
<glyph name="registered" format="2">
  <advance width="1654.0"/>
  <unicode hex="00AE"/>
  <outline>
    <contour>
      <point x="38.0" y="687.0" type="qcurve" smooth="yes"/>
      <point x="38.0" y="1039.0"/>
      <point x="501.0" y="1519.0"/>
      <point x="827.0" y="1519.0" type="qcurve" smooth="yes"/>
      <point x="1152.0" y="1519.0"/>
      <point x="1616.0" y="1039.0"/>
      <point x="1616.0" y="687.0" type="qcurve" smooth="yes"/>
      <point x="1616.0" y="337.0"/>
      <point x="1152.0" y="-147.0"/>
      <point x="827.0" y="-147.0" type="qcurve" smooth="yes"/>
      <point x="501.0" y="-147.0"/>
      <point x="38.0" y="337.0"/>
    </contour>
    <contour>
      <point x="186.0" y="687.0" type="qcurve" smooth="yes"/>
      <point x="186.0" y="349.54545454545456"/>
      <point x="543.0" y="-61.45454545454545"/>
      <point x="828.0" y="-61.45454545454545" type="qcurve" smooth="yes"/>
      <point x="1112.4545454545455" y="-61.45454545454545"/>
      <point x="1469.0" y="349.54545454545456"/>
      <point x="1469.0" y="687.0" type="qcurve" smooth="yes"/>
      <point x="1469.0" y="1025.0"/>
      <point x="1112.4545454545455" y="1432.909090909091"/>
      <point x="828.0" y="1432.909090909091" type="qcurve" smooth="yes"/>
      <point x="543.0" y="1432.909090909091"/>
      <point x="186.0" y="1025.0"/>
    </contour>
    <contour>
      <point x="540.7021276595744" y="225.0" type="line"/>
      <point x="540.7021276595744" y="1158.0" type="line"/>
      <point x="795.9787234042553" y="1158.0" type="line" smooth="yes"/>
      <point x="949.7340425531914" y="1158.0"/>
      <point x="1132.3617021276596" y="1018.0"/>
      <point x="1132.3617021276596" y="872.3085106382979" type="qcurve" smooth="yes"/>
      <point x="1132.3617021276596" y="764.0"/>
      <point x="979.6063829787234" y="597.0"/>
      <point x="853.2021276595744" y="597.0" type="qcurve" smooth="yes"/>
      <point x="587.2234042553191" y="597.0" type="line"/>
      <point x="587.2234042553191" y="677.0909090909091" type="line"/>
      <point x="874.6276595744681" y="677.0909090909091" type="line" smooth="yes"/>
      <point x="951.2640232108317" y="677.0909090909091"/>
      <point x="1042.063829787234" y="768.1818181818181"/>
      <point x="1042.063829787234" y="863.6914893617021" type="qcurve" smooth="yes"/>
      <point x="1042.063829787234" y="967.2727272727273"/>
      <point x="956.2640232108317" y="1072.4303675048357"/>
      <point x="849.6276595744681" y="1072.4545454545455" type="qcurve" smooth="yes"/>
      <point x="623.3404255319149" y="1072.4545454545455" type="line"/>
      <point x="623.3404255319149" y="225.0" type="line"/>
    </contour>
    <contour>
      <point x="1082.1382978723404" y="225.0" type="line"/>
      <point x="869.0764023210832" y="638.8181818181819" type="line"/>
      <point x="924.7504835589942" y="652.0667311411992" type="line"/>
      <point x="950.5357833655706" y="620.1392649903288"/>
      <point x="990.6914893617021" y="556.3936170212766"/>
      <point x="1006.6489361702128" y="527.9148936170212" type="qcurve" smooth="yes"/>
      <point x="1171.4787234042553" y="233.61702127659575" type="line"/>
      <point x="1171.4787234042553" y="225.0" type="line"/>
    </contour>
  </outline>
</glyph>
<glyph name="degree" format="2">
  <advance width="639.8936170212764"/>
  <unicode hex="00B0"/>
  <outline>
    <contour>
      <point x="128.43617021276594" y="1280.0744680851062" type="qcurve"/>
      <point x="128.43617021276594" y="1362.6170212765956"/>
      <point x="241.38297872340425" y="1477.0"/>
      <point x="322.4468085106383" y="1477.0" type="qcurve" smooth="yes"/>
      <point x="401.9893617021276" y="1477.0"/>
      <point x="512.4574468085106" y="1362.6170212765956"/>
      <point x="512.4574468085106" y="1280.0744680851062" type="qcurve" smooth="yes"/>
      <point x="512.4574468085106" y="1198.095744680851"/>
      <point x="401.9893617021276" y="1086.6702127659573"/>
      <point x="322.4468085106383" y="1086.6702127659573" type="qcurve" smooth="yes"/>
      <point x="241.38297872340425" y="1086.6702127659573"/>
      <point x="128.43617021276594" y="1198.095744680851"/>
    </contour>
    <contour>
      <point x="191.44680851063828" y="1280.0744680851062" type="qcurve"/>
      <point x="191.44680851063828" y="1195.007736943907"/>
      <point x="262.79206963249516" y="1096.595744680851"/>
      <point x="322.4468085106383" y="1096.595744680851" type="qcurve" smooth="yes"/>
      <point x="380.14990328820113" y="1096.595744680851"/>
      <point x="449.4468085106383" y="1195.007736943907"/>
      <point x="449.4468085106383" y="1280.0744680851062" type="qcurve" smooth="yes"/>
      <point x="449.4468085106383" y="1367.1170212765958"/>
      <point x="380.14990328820113" y="1467.0744680851062"/>
      <point x="322.4468085106383" y="1467.0744680851062" type="qcurve" smooth="yes"/>
      <point x="262.79206963249516" y="1467.0744680851062"/>
      <point x="191.44680851063828" y="1367.1170212765958"/>
    </contour>
  </outline>
</glyph>
<glyph name="plusminus" format="2">
  <advance width="932.2553191489361"/>
  <unicode hex="00B1"/>
  <outline>
    <contour>
      <point x="56.99999999999999" y="611.0" type="line"/>
      <point x="56.99999999999999" y="775.0" type="line"/>
      <point x="875.255319148936" y="775.0" type="line"/>
      <point x="875.255319148936" y="611.0" type="line"/>
    </contour>
    <contour>
      <point x="422.0" y="247.99999999999997" type="line"/>
      <point x="422.0" y="1160.0" type="line"/>
      <point x="511.81914893617017" y="1160.0" type="line"/>
      <point x="511.81914893617017" y="247.99999999999997" type="line"/>
    </contour>
    <contour>
      <point x="56.99999999999999" y="1.0" type="line"/>
      <point x="56.99999999999999" y="165.0" type="line"/>
      <point x="875.255319148936" y="165.0" type="line"/>
      <point x="875.255319148936" y="1.0" type="line"/>
    </contour>
  </outline>
</glyph>
<glyph name="twosuperior" format="2">
  <advance width="578.4574468085107"/>
  <unicode hex="00B2"/>
  <outline>
    <contour>
      <point x="80.82978723404256" y="697.0" type="line"/>
      <point x="80.82978723404256" y="805.0" type="line"/>
      <point x="308.8829787234042" y="1035.159574468085" type="line" smooth="yes"/>
      <point x="361.8085106382979" y="1088.8191489361702"/>
      <point x="392.63829787234044" y="1195.1489361702127"/>
      <point x="392.63829787234044" y="1249.0" type="qcurve" smooth="yes"/>
      <point x="392.63829787234044" y="1326.090909090909"/>
      <point x="337.9110251450677" y="1407.909090909091"/>
      <point x="281.63829787234044" y="1407.909090909091" type="qcurve" smooth="yes"/>
      <point x="218.9110251450677" y="1407.909090909091"/>
      <point x="156.63829787234042" y="1308.909090909091"/>
      <point x="156.63829787234042" y="1208.0" type="qcurve" smooth="yes"/>
      <point x="156.63829787234042" y="1198.0" type="line"/>
      <point x="75.43617021276596" y="1198.0" type="line"/>
      <point x="75.43617021276596" y="1208.0" type="line" smooth="yes"/>
      <point x="75.43617021276596" y="1339.0"/>
      <point x="175.52127659574467" y="1487.0"/>
      <point x="283.63829787234044" y="1487.0" type="qcurve" smooth="yes"/>
      <point x="384.27659574468083" y="1487.0"/>
      <point x="481.02127659574467" y="1359.0"/>
      <point x="481.02127659574467" y="1249.9574468085107" type="qcurve" smooth="yes"/>
      <point x="481.02127659574467" y="1172.0425531914893"/>
      <point x="420.468085106383" y="1048.0"/>
      <point x="357.48936170212767" y="987.1595744680851" type="qcurve" smooth="yes"/>
      <point x="216.6595744680851" y="845.0" type="line"/>
      <point x="510.45744680851067" y="845.0" type="line"/>
      <point x="510.45744680851067" y="697.0" type="line"/>
    </contour>
  </outline>
</glyph>
<glyph name="threesuperior" format="2">
  <advance width="588.8829787234042"/>
  <unicode hex="00B3"/>
  <outline>
    <contour>
      <point x="63.0" y="920.0" type="qcurve" smooth="yes"/>
      <point x="63.0" y="923.0" type="line"/>
      <point x="141.80851063829786" y="923.0" type="line"/>
      <point x="141.80851063829786" y="920.0" type="line" smooth="yes"/>
      <point x="141.80851063829786" y="845.9090909090909"/>
      <point x="219.99032882011605" y="764.4545454545455"/>
      <point x="287.8085106382979" y="764.4545454545455" type="qcurve" smooth="yes"/>
      <point x="354.53578336557064" y="764.4545454545455"/>
      <point x="420.8085106382979" y="847.3636363636364"/>
      <point x="420.8085106382979" y="922.9148936170212" type="qcurve" smooth="yes"/>
      <point x="420.8085106382979" y="990.2727272727273"/>
      <point x="344.35396518375245" y="1057.090909090909"/>
      <point x="271.8085106382979" y="1057.6363636363637" type="qcurve" smooth="yes"/>
      <point x="187.80851063829786" y="1057.6363636363637" type="line"/>
      <point x="187.80851063829786" y="1127.3636363636363" type="line"/>
      <point x="271.8085106382979" y="1127.3636363636363" type="line" smooth="yes"/>
      <point x="341.08123791102514" y="1127.3636363636363"/>
      <point x="407.8085106382979" y="1194.7272727272727"/>
      <point x="407.8085106382979" y="1256.563829787234" type="qcurve" smooth="yes"/>
      <point x="407.8085106382979" y="1328.090909090909"/>
      <point x="349.2630560928433" y="1408.5454545454545"/>
      <point x="284.8085106382979" y="1408.5454545454545" type="qcurve" smooth="yes"/>
      <point x="224.62669245647967" y="1408.5454545454545"/>
      <point x="152.80851063829786" y="1328.5454545454545"/>
      <point x="152.80851063829786" y="1256.0" type="qcurve" smooth="yes"/>
      <point x="152.80851063829786" y="1252.0" type="line"/>
      <point x="74.0" y="1252.0" type="line"/>
      <point x="74.0" y="1256.0" type="line" smooth="yes"/>
      <point x="74.0" y="1357.0"/>
      <point x="195.64893617021278" y="1487.0"/>
      <point x="280.24468085106383" y="1487.0" type="qcurve" smooth="yes"/>
      <point x="373.2340425531915" y="1487.0"/>
      <point x="492.8404255319149" y="1372.0"/>
      <point x="492.8404255319149" y="1260.3936170212767" type="qcurve" smooth="yes"/>
      <point x="492.8404255319149" y="1212.0"/>
      <point x="441.3085106382979" y="1119.4787234042553"/>
      <point x="393.8191489361702" y="1098.0" type="qcurve"/>
      <point x="393.8191489361702" y="1097.0" type="line"/>
      <point x="450.9148936170213" y="1073.0"/>
      <point x="504.8829787234042" y="981.0"/>
      <point x="504.8829787234042" y="919.0851063829788" type="qcurve" smooth="yes"/>
      <point x="504.8829787234042" y="807.0"/>
      <point x="375.79787234042556" y="686.0"/>
      <point x="281.24468085106383" y="686.0" type="qcurve" smooth="yes"/>
      <point x="184.2127659574468" y="686.0"/>
      <point x="63.0" y="802.0"/>
    </contour>
  </outline>
</glyph>
<glyph name="paragraph" format="2">
  <advance width="1104.6170212765958"/>
  <unicode hex="00B6"/>
  <guideline y="901.0" identifier="27539Lsr1A"/>
  <guideline y="555.0" identifier="e34wUdCmXR"/>
  <outline>
    <contour>
      <point x="576.6170212765958" y="-146.0" type="line"/>
      <point x="390.6170212765957" y="-146.0" type="line"/>
      <point x="390.6170212765957" y="937.8723404255319" type="line"/>
      <point x="331.24468085106383" y="937.8723404255319" type="line" smooth="yes"/>
      <point x="198.27659574468083" y="937.8723404255319"/>
      <point x="56.0" y="1085.063829787234"/>
      <point x="56.0" y="1196.936170212766" type="qcurve" smooth="yes"/>
      <point x="56.0" y="1307.3297872340427"/>
      <point x="198.27659574468083" y="1456.0"/>
      <point x="331.24468085106383" y="1456.0" type="qcurve" smooth="yes"/>
      <point x="576.6170212765958" y="1456.0" type="line"/>
    </contour>
    <contour>
      <point x="718.6170212765958" y="1459.0" type="line"/>
      <point x="904.6170212765958" y="1459.0" type="line"/>
      <point x="904.6170212765958" y="-146.0" type="line"/>
      <point x="718.6170212765958" y="-146.0" type="line"/>
    </contour>
  </outline>
</glyph>
<glyph name="periodcentered" format="2">
  <advance width="600.0"/>
  <unicode hex="00B7"/>
  <outline>
    <contour>
      <point x="227.60638297872342" y="749.0" type="qcurve" smooth="yes"/>
      <point x="227.60638297872342" y="777.6702127659574"/>
      <point x="265.02127659574467" y="818.4787234042553"/>
      <point x="300.0" y="818.4787234042553" type="qcurve" smooth="yes"/>
      <point x="334.97872340425533" y="818.4787234042553"/>
      <point x="372.3936170212766" y="777.6702127659574"/>
      <point x="372.3936170212766" y="749.0" type="qcurve" smooth="yes"/>
      <point x="372.3936170212766" y="720.3297872340426"/>
      <point x="334.97872340425533" y="679.5212765957447"/>
      <point x="300.0" y="679.5212765957447" type="qcurve" smooth="yes"/>
      <point x="265.02127659574467" y="679.5212765957447"/>
      <point x="227.60638297872342" y="720.3297872340426"/>
    </contour>
  </outline>
</glyph>
<glyph name="onesuperior" format="2">
  <advance width="668.6382978723404"/>
  <unicode hex="00B9"/>
  <outline>
    <contour>
      <point x="123.0" y="1308.3733075435205" type="line"/>
      <point x="123.0" y="1399.1914893617022" type="line"/>
      <point x="374.63829787234044" y="1486.0" type="line"/>
      <point x="418.63829787234044" y="1486.0" type="line"/>
      <point x="418.63829787234044" y="697.0" type="line"/>
      <point x="337.43617021276594" y="697.0" type="line"/>
      <point x="337.43617021276594" y="1385.3733075435205" type="line"/>
    </contour>
  </outline>
</glyph>
<glyph name="ordmasculine" format="2">
  <advance width="769.8829787234042"/>
  <unicode hex="00BA"/>
  <guideline y="1974.9999999999998" identifier="Jnt0R9CyOf"/>
  <outline>
    <contour>
      <point x="123.99999999999999" y="1042.9999999999998" type="qcurve"/>
      <point x="123.99999999999999" y="1124.0" type="line"/>
      <point x="123.99999999999999" y="1278.0"/>
      <point x="265.73404255319144" y="1477.0"/>
      <point x="384.6808510638298" y="1477.0" type="qcurve" smooth="yes"/>
      <point x="504.62765957446805" y="1477.0"/>
      <point x="645.8829787234042" y="1278.0"/>
      <point x="645.8829787234042" y="1124.0" type="qcurve"/>
      <point x="645.8829787234042" y="1042.9999999999998" type="line"/>
      <point x="645.8829787234042" y="888.9999999999999"/>
      <point x="505.627659574468" y="691.0"/>
      <point x="386.6808510638298" y="691.0" type="qcurve" smooth="yes"/>
      <point x="266.73404255319144" y="691.0"/>
      <point x="123.99999999999999" y="888.9999999999999"/>
    </contour>
    <contour>
      <point x="205.68085106382975" y="1124.0" type="qcurve"/>
      <point x="205.68085106382975" y="1042.9999999999998" type="line"/>
      <point x="205.68085106382975" y="924.7272727272727"/>
      <point x="300.58994197292066" y="770.0"/>
      <point x="386.6808510638298" y="770.0" type="qcurve" smooth="yes"/>
      <point x="470.6808510638298" y="770.0"/>
      <point x="564.6808510638298" y="924.7272727272727"/>
      <point x="564.6808510638298" y="1042.9999999999998" type="qcurve"/>
      <point x="564.6808510638298" y="1124.0" type="line"/>
      <point x="564.6808510638298" y="1241.181818181818"/>
      <point x="469.6808510638298" y="1396.9090909090908"/>
      <point x="384.6808510638298" y="1396.9090909090908" type="qcurve" smooth="yes"/>
      <point x="300.1353965183752" y="1396.9090909090908"/>
      <point x="205.68085106382975" y="1241.181818181818"/>
    </contour>
  </outline>
</glyph>
<glyph name="AE" format="2">
  <advance width="1785.2446808510638"/>
  <unicode hex="00C6"/>
  <anchor x="962.2446808510638" y="1456.0" name="top"/>
  <outline>
    <contour>
      <point x="-15.0" y="0.0" type="line"/>
      <point x="866.0" y="1456.0" type="line"/>
      <point x="1707.2446808510638" y="1456.0" type="line"/>
      <point x="1707.2446808510638" y="1366.6363636363637" type="line"/>
      <point x="994.8085106382979" y="1366.6363636363637" type="line"/>
      <point x="994.8085106382979" y="89.36363636363636" type="line"/>
      <point x="1717.2446808510638" y="89.36363636363636" type="line"/>
      <point x="1717.2446808510638" y="0.0" type="line"/>
      <point x="899.2446808510638" y="0.0" type="line"/>
      <point x="899.2446808510638" y="1349.5531914893618" type="line"/>
      <point x="97.84042553191489" y="0.0" type="line"/>
    </contour>
    <contour>
      <point x="949.1170212765958" y="707.4545454545455" type="line"/>
      <point x="949.1170212765958" y="796.8181818181819" type="line"/>
      <point x="1615.2446808510638" y="796.8181818181819" type="line"/>
      <point x="1615.2446808510638" y="707.4545454545455" type="line"/>
    </contour>
    <contour>
      <point x="273.18762088974853" y="391.6363636363636" type="line"/>
      <point x="332.67891682785296" y="490.27272727272725" type="line"/>
      <point x="950.5531914893617" y="490.27272727272725" type="line"/>
      <point x="950.5531914893617" y="391.6363636363636" type="line"/>
    </contour>
  </outline>
</glyph>
<glyph name="multiply" format="2">
  <advance width="1024.0"/>
  <unicode hex="00D7"/>
  <outline>
    <contour>
      <point x="196.0" y="236.99999999999997" type="line"/>
      <point x="88.0" y="349.0" type="line"/>
      <point x="826.0" y="1104.0" type="line"/>
      <point x="934.0" y="991.0" type="line"/>
    </contour>
    <contour>
      <point x="847.1914893617021" y="267.23404255319144" type="line"/>
      <point x="120.19148936170212" y="1010.2340425531916" type="line"/>
      <point x="179.7659574468085" y="1072.2021276595744" type="line"/>
      <point x="906.7659574468084" y="328.20212765957444" type="line"/>
    </contour>
  </outline>
</glyph>
<glyph name="Thorn" format="2">
  <advance width="984.4255319148936"/>
  <unicode hex="00DE"/>
  <guideline y="901.0" identifier="i9jYwjBDP4"/>
  <guideline y="555.0" identifier="T8KKW8oxop"/>
  <outline>
    <contour>
      <point x="170.0" y="0.0" type="line"/>
      <point x="170.0" y="1456.0" type="line"/>
      <point x="262.2127659574468" y="1456.0" type="line"/>
      <point x="262.2127659574468" y="0.0" type="line"/>
    </contour>
    <contour>
      <point x="222.87234042553192" y="314.52127659574467" type="line"/>
      <point x="222.87234042553192" y="399.54545454545456" type="line"/>
      <point x="540.2127659574468" y="399.54545454545456" type="line" smooth="yes"/>
      <point x="693.8491295938104" y="399.54545454545456"/>
      <point x="842.2127659574468" y="573.0909090909091"/>
      <point x="842.2127659574468" y="737.0425531914893" type="qcurve" smooth="yes"/>
      <point x="842.2127659574468" y="899.8181818181819"/>
      <point x="693.8491295938104" y="1077.4545454545455"/>
      <point x="540.2127659574468" y="1077.4545454545455" type="qcurve" smooth="yes"/>
      <point x="222.87234042553192" y="1077.4545454545455" type="line"/>
      <point x="222.87234042553192" y="1163.0" type="line"/>
      <point x="523.0106382978723" y="1163.0" type="line" smooth="yes"/>
      <point x="721.0" y="1163.0"/>
      <point x="934.4255319148936" y="935.5212765957447"/>
      <point x="934.4255319148936" y="738.0" type="qcurve" smooth="yes"/>
      <point x="934.4255319148936" y="541.5212765957447"/>
      <point x="721.0" y="314.52127659574467"/>
      <point x="523.0106382978723" y="314.52127659574467" type="qcurve" smooth="yes"/>
    </contour>
  </outline>
</glyph>
<glyph name="germandbls" format="2">
  <advance width="1004.595744680851"/>
  <unicode hex="00DF"/>
  <outline>
    <contour>
      <point x="239.7340425531915" y="1092.0" type="qcurve" name="hr00"/>
      <point x="239.7340425531915" y="0.0" type="line"/>
      <point x="148.0" y="0.0" type="line"/>
      <point x="148.0" y="1092.0" type="line" smooth="yes"/>
      <point x="148.0" y="1303.340425531915"/>
      <point x="311.6914893617021" y="1534.0"/>
      <point x="458.8307543520309" y="1534.0" type="qcurve" smooth="yes"/>
      <point x="589.7234042553191" y="1534.0"/>
      <point x="737.1595744680851" y="1362.0425531914893"/>
      <point x="737.1595744680851" y="1215.0" type="qcurve" smooth="yes"/>
      <point x="737.1595744680851" y="1143.1595744680849"/>
      <point x="699.1489361702127" y="1046.7553191489362"/>
      <point x="661.1063829787233" y="998.5425531914893" type="qcurve" smooth="yes"/>
      <point x="623.8936170212764" y="950.6382978723404"/>
      <point x="579.4893617021276" y="870.9893617021276"/>
      <point x="579.4893617021276" y="830.5212765957447" type="qcurve" smooth="yes"/>
      <point x="579.4893617021276" y="772.095744680851"/>
      <point x="689.5531914893617" y="662.2340425531916"/>
      <point x="792.4468085106382" y="581.4680851063829" type="qcurve" smooth="yes"/>
      <point x="860.0212765957447" y="529.2446808510638"/>
      <point x="958.1595744680851" y="392.7553191489361"/>
      <point x="958.1595744680851" y="292.4255319148936" type="qcurve" smooth="yes"/>
      <point x="958.1595744680851" y="149.70212765957444"/>
      <point x="793.8510638297871" y="-20.0"/>
      <point x="661.7765957446808" y="-20.0" type="qcurve" smooth="yes"/>
      <point x="531.6595744680851" y="-20.0"/>
      <point x="381.05319148936167" y="138.38297872340425"/>
      <point x="381.05319148936167" y="286.86170212765956" type="qcurve" smooth="yes"/>
      <point x="381.05319148936167" y="304.0" type="line"/>
      <point x="462.73404255319144" y="304.0" type="line"/>
      <point x="462.73404255319144" y="295.0" type="line" smooth="yes"/>
      <point x="462.73404255319144" y="181.90909090909088"/>
      <point x="567.2794970986461" y="65.54545454545453"/>
      <point x="662.7340425531914" y="65.54545454545453" type="qcurve" smooth="yes"/>
      <point x="763.2794970986461" y="65.54545454545453"/>
      <point x="870.7340425531913" y="187.09090909090907"/>
      <point x="870.7340425531913" y="302.0" type="qcurve" smooth="yes"/>
      <point x="870.7340425531913" y="373.08510638297867"/>
      <point x="776.9468085106382" y="481.6382978723404"/>
      <point x="719.9468085106382" y="527.6382978723404" type="qcurve" smooth="yes"/>
      <point x="621.3617021276596" y="605.4893617021276"/>
      <point x="491.58510638297867" y="734.1489361702127"/>
      <point x="491.58510638297867" y="814.7234042553191" type="qcurve" smooth="yes"/>
      <point x="491.58510638297867" y="877.2553191489361"/>
      <point x="548.0" y="974.7021276595744"/>
      <point x="585.7340425531914" y="1026.0" type="qcurve" smooth="yes"/>
      <point x="618.9042553191489" y="1071.7340425531916"/>
      <point x="649.7340425531914" y="1153.1702127659573"/>
      <point x="649.7340425531914" y="1209.7340425531913" type="qcurve" smooth="yes"/>
      <point x="649.7340425531914" y="1323.4545454545453"/>
      <point x="545.279497098646" y="1448.4545454545455"/>
      <point x="458.73404255319144" y="1448.4545454545455" type="qcurve" smooth="yes"/>
      <point x="355.41295938104446" y="1448.4545454545455"/>
      <point x="239.7340425531915" y="1268.205996131528"/>
    </contour>
  </outline>
</glyph>
<glyph name="ae" format="2">
  <advance width="1490.5106382978722"/>
  <unicode hex="00E6"/>
  <anchor x="759.2553191489361" y="1052.0" name="top"/>
  <outline>
    <contour>
      <point x="383.27659574468083" y="-20.52127659574468" type="qcurve" smooth="yes"/>
      <point x="261.42553191489355" y="-20.52127659574468"/>
      <point x="88.43617021276594" y="149.47872340425528"/>
      <point x="88.43617021276594" y="309.9042553191489" type="qcurve" smooth="yes"/>
      <point x="88.43617021276594" y="469.4787234042553"/>
      <point x="297.08510638297867" y="648.0"/>
      <point x="456.595744680851" y="648.0" type="qcurve" smooth="yes"/>
      <point x="726.7340425531914" y="648.0" type="line"/>
      <point x="726.7340425531914" y="572.8181818181818" type="line"/>
      <point x="465.12765957446805" y="572.8181818181818" type="line" smooth="yes"/>
      <point x="326.49129593810443" y="572.8181818181818"/>
      <point x="181.12765957446805" y="439.02417794970984"/>
      <point x="181.12765957446805" y="319.4787234042553" type="qcurve" smooth="yes"/>
      <point x="181.12765957446805" y="198.11508704061893"/>
      <point x="288.30947775628624" y="64.29690522243713"/>
      <point x="395.12765957446805" y="64.29690522243713" type="qcurve" smooth="yes"/>
      <point x="505.127659574468" y="64.29690522243713"/>
      <point x="683.127659574468" y="216.29690522243715"/>
      <point x="683.127659574468" y="301.2969052224371" type="qcurve"/>
      <point x="683.127659574468" y="719.4787234042553" type="line" smooth="yes"/>
      <point x="683.127659574468" y="849.0241779497098"/>
      <point x="578.3094777562862" y="997.5696324951643"/>
      <point x="465.12765957446805" y="997.5696324951643" type="qcurve" smooth="yes"/>
      <point x="351.036750483559" y="997.5696324951643"/>
      <point x="242.12765957446805" y="871.7514506769826"/>
      <point x="242.12765957446805" y="769.4787234042553" type="qcurve" smooth="yes"/>
      <point x="242.12765957446805" y="764.4787234042552" type="line"/>
      <point x="149.91489361702128" y="764.4787234042552" type="line"/>
      <point x="149.91489361702128" y="769.4787234042553" type="line" smooth="yes"/>
      <point x="149.91489361702128" y="894.4787234042553"/>
      <point x="331.73404255319144" y="1081.4787234042553"/>
      <point x="480.55319148936167" y="1081.4787234042553" type="qcurve" smooth="yes"/>
      <point x="616.9255319148936" y="1081.4787234042553"/>
      <point x="752.9574468085106" y="949.0"/>
      <point x="761.9148936170212" y="872.0" type="qcurve"/>
      <point x="779.3085106382978" y="950.0"/>
      <point x="929.5851063829787" y="1082.0"/>
      <point x="1057.8617021276596" y="1082.0" type="qcurve" smooth="yes"/>
      <point x="1226.9893617021276" y="1082.0"/>
      <point x="1413.6382978723404" y="800.0"/>
      <point x="1412.0744680851062" y="560.0" type="qcurve" smooth="yes"/>
      <point x="1412.0744680851062" y="515.3636363636364" type="line"/>
      <point x="734.436170212766" y="515.3636363636364" type="line"/>
      <point x="734.436170212766" y="599.2727272727273" type="line"/>
      <point x="1316.8617021276596" y="599.2727272727273" type="line"/>
      <point x="1317.3404255319147" y="656.0" type="line"/>
      <point x="1316.407156673114" y="810.0"/>
      <point x="1184.225338491296" y="995.9090909090909"/>
      <point x="1054.8617021276596" y="995.9090909090909" type="qcurve" smooth="yes"/>
      <point x="918.3162475822049" y="995.9090909090909"/>
      <point x="773.4255319148936" y="747.7272727272727"/>
      <point x="773.4255319148936" y="542.0" type="qcurve" smooth="yes"/>
      <point x="773.4255319148936" y="509.99999999999994" type="line" smooth="yes"/>
      <point x="773.4255319148936" y="304.27272727272725"/>
      <point x="923.1092843326885" y="56.09090909090908"/>
      <point x="1060.2340425531913" y="56.09090909090908" type="qcurve" smooth="yes"/>
      <point x="1162.052224371373" y="56.09090909090908"/>
      <point x="1299.9177949709863" y="162.23500967117985"/>
      <point x="1340.8936170212764" y="250.1914893617021" type="qcurve"/>
      <point x="1401.9893617021276" y="201.58510638297872" type="line"/>
      <point x="1364.5" y="113.55319148936171"/>
      <point x="1190.9468085106382" y="-30.0"/>
      <point x="1060.755319148936" y="-30.0" type="qcurve" smooth="yes"/>
      <point x="934.563829787234" y="-30.0"/>
      <point x="763.0319148936169" y="88.43617021276594"/>
      <point x="716.3297872340426" y="213.0" type="qcurve"/>
      <point x="678.9787234042553" y="99.0"/>
      <point x="507.127659574468" y="-20.52127659574468"/>
    </contour>
  </outline>
</glyph>
<glyph name="eth" format="2">
  <advance width="931.031914893617"/>
  <unicode hex="00F0"/>
  <outline>
    <contour>
      <point x="170.2127659574468" y="1421.0" type="qcurve"/>
      <point x="228.25531914893617" y="1581.0" type="line"/>
      <point x="500.09574468085106" y="1506.0"/>
      <point x="842.3829787234042" y="1008.0"/>
      <point x="842.3829787234042" y="633.0" type="qcurve"/>
      <point x="842.3829787234042" y="535.0" type="line"/>
      <point x="842.3829787234042" y="289.0"/>
      <point x="639.9787234042553" y="-20.0"/>
      <point x="472.3829787234042" y="-20.0" type="qcurve" smooth="yes"/>
      <point x="302.0" y="-20.0"/>
      <point x="85.0" y="265.0"/>
      <point x="85.0" y="468.0" type="qcurve" smooth="yes"/>
      <point x="85.0" y="698.0"/>
      <point x="299.86170212765956" y="978.0"/>
      <point x="455.8510638297872" y="978.0" type="qcurve" smooth="yes"/>
      <point x="596.1808510638298" y="978.0"/>
      <point x="794.3404255319149" y="749.0"/>
      <point x="794.3404255319149" y="614.0" type="qcurve"/>
      <point x="760.2659574468084" y="614.0" type="line"/>
      <point x="760.2659574468084" y="727.2727272727273"/>
      <point x="616.5996131528046" y="889.6363636363636"/>
      <point x="478.47872340425533" y="889.6363636363636" type="qcurve" smooth="yes"/>
      <point x="334.6305609284333" y="889.6363636363636"/>
      <point x="177.6914893617021" y="666.5454545454545"/>
      <point x="177.6914893617021" y="468.0" type="qcurve" smooth="yes"/>
      <point x="177.6914893617021" y="295.45454545454544"/>
      <point x="330.2369439071567" y="66.0909090909091"/>
      <point x="471.6914893617021" y="66.0909090909091" type="qcurve" smooth="yes"/>
      <point x="602.4187620889749" y="66.0909090909091"/>
      <point x="749.6914893617021" y="321.1818181818182"/>
      <point x="749.6914893617021" y="535.0" type="qcurve" smooth="yes"/>
      <point x="749.6914893617021" y="635.0" type="line" smooth="yes"/>
      <point x="749.6914893617021" y="984.0"/>
      <point x="404.40425531914894" y="1355.0"/>
    </contour>
    <contour>
      <point x="801.9893617021277" y="1399.8936170212767" type="line"/>
      <point x="306.6914893617021" y="1061.0" type="line"/>
      <point x="223.6914893617021" y="1181.0" type="line"/>
      <point x="718.9893617021277" y="1518.8936170212767" type="line"/>
    </contour>
  </outline>
</glyph>
<glyph name="divide" format="2">
  <advance width="1024.0"/>
  <unicode hex="00F7"/>
  <outline>
    <contour>
      <point x="438.6489361702128" y="1014.9574468085107" type="qcurve" smooth="yes"/>
      <point x="438.6489361702128" y="1046.063829787234"/>
      <point x="475.06382978723406" y="1086.872340425532"/>
      <point x="511.52127659574467" y="1086.872340425532" type="qcurve" smooth="yes"/>
      <point x="546.9787234042553" y="1086.872340425532"/>
      <point x="584.8723404255319" y="1046.063829787234"/>
      <point x="584.8723404255319" y="1014.9574468085107" type="qcurve" smooth="yes"/>
      <point x="584.8723404255319" y="985.3297872340426"/>
      <point x="546.9787234042553" y="945.0"/>
      <point x="511.52127659574467" y="945.0" type="qcurve" smooth="yes"/>
      <point x="475.06382978723406" y="945.0"/>
      <point x="438.6489361702128" y="985.3297872340426"/>
    </contour>
    <contour>
      <point x="438.6489361702128" y="339.0851063829787" type="qcurve" smooth="yes"/>
      <point x="438.6489361702128" y="369.71276595744683"/>
      <point x="475.06382978723406" y="411.0"/>
      <point x="511.52127659574467" y="411.0" type="qcurve" smooth="yes"/>
      <point x="546.9787234042553" y="411.0"/>
      <point x="584.8723404255319" y="369.71276595744683"/>
      <point x="584.8723404255319" y="339.0851063829787" type="qcurve" smooth="yes"/>
      <point x="584.8723404255319" y="309.45744680851067"/>
      <point x="546.9787234042553" y="268.6489361702128"/>
      <point x="511.52127659574467" y="268.6489361702128" type="qcurve" smooth="yes"/>
      <point x="475.06382978723406" y="268.6489361702128"/>
      <point x="438.6489361702128" y="309.45744680851067"/>
    </contour>
    <contour>
      <point x="57.0" y="588.0" type="line"/>
      <point x="57.0" y="760.0" type="line"/>
      <point x="967.0" y="760.0" type="line"/>
      <point x="967.0" y="588.0" type="line"/>
    </contour>
  </outline>
</glyph>
<glyph name="thorn" format="2">
  <advance width="981.2978723404256"/>
  <unicode hex="00FE"/>
  <outline>
    <contour>
      <point x="240.6914893617021" y="-416.0" type="line"/>
      <point x="148.0" y="-416.0" type="line"/>
      <point x="148.0" y="1536.0" type="line"/>
      <point x="240.6914893617021" y="1536.0" type="line"/>
      <point x="240.6914893617021" y="928.0" type="line"/>
    </contour>
    <contour>
      <point x="527.5715667311413" y="66.0909090909091" type="qcurve" smooth="yes"/>
      <point x="666.9042553191489" y="66.0909090909091"/>
      <point x="801.6914893617021" y="320.90909090909093"/>
      <point x="801.6914893617021" y="507.27272727272725" type="qcurve" smooth="yes"/>
      <point x="801.6914893617021" y="544.7272727272727" type="line" smooth="yes"/>
      <point x="801.6914893617021" y="731.0909090909091"/>
      <point x="666.9042553191489" y="985.4545454545455"/>
      <point x="527.5715667311413" y="985.4545454545455" type="qcurve" smooth="yes"/>
      <point x="386.32978723404256" y="985.4545454545455"/>
      <point x="220.1063829787234" y="756.8704061895551"/>
      <point x="220.1063829787234" y="603.1334622823985" type="qcurve" smooth="yes"/>
      <point x="220.1063829787234" y="461.6411992263056" type="line" smooth="yes"/>
      <point x="220.1063829787234" y="286.06866537717605"/>
      <point x="391.32978723404256" y="66.0909090909091"/>
    </contour>
    <contour>
      <point x="522.0164410058027" y="-20.0" type="qcurve" smooth="yes"/>
      <point x="374.32978723404256" y="-20.0"/>
      <point x="186.46808510638297" y="203.48936170212767"/>
      <point x="186.46808510638297" y="403.2340425531915" type="qcurve" smooth="yes"/>
      <point x="186.46808510638297" y="661.9042553191489" type="line" smooth="yes"/>
      <point x="186.46808510638297" y="829.1170212765958"/>
      <point x="364.8936170212766" y="1072.0"/>
      <point x="532.9255319148936" y="1072.0" type="qcurve" smooth="yes"/>
      <point x="697.4787234042553" y="1072.0"/>
      <point x="896.2978723404256" y="772.0"/>
      <point x="896.2978723404256" y="542.0" type="qcurve" smooth="yes"/>
      <point x="896.2978723404256" y="510.0" type="line" smooth="yes"/>
      <point x="896.2978723404256" y="280.0"/>
      <point x="697.4787234042553" y="-20.0"/>
    </contour>
  </outline>
</glyph>
<glyph name="idotless" format="2">
  <advance width="406.6914893617021"/>
  <unicode hex="0131"/>
  <anchor x="203.08510638297872" y="1052.0" name="top"/>
  <anchor x="203.08510638297872" y="0.0" name="bottom"/>
  <anchor x="231.85106382978722" y="0.0" name="ogonek"/>
  <anchor x="204.04255319148933" y="542.0" name="yu_dash"/>
  <outline>
    <contour>
      <point x="157.0" y="0.0" type="line"/>
      <point x="157.0" y="1052.0" type="line"/>
      <point x="249.6914893617021" y="1052.0" type="line"/>
      <point x="249.6914893617021" y="0.0" type="line"/>
    </contour>
  </outline>
</glyph>
<glyph name="kgreenlandic" format="2">
  <advance width="942.2021276595744"/>
  <unicode hex="0138"/>
  <outline>
    <contour>
      <point x="242.0" y="1052.0" type="line"/>
      <point x="242.0" y="0.0" type="line"/>
      <point x="149.7872340425532" y="0.0" type="line"/>
      <point x="149.7872340425532" y="1052.0" type="line"/>
    </contour>
    <contour>
      <point x="883.5454545454545" y="1052.0" type="line"/>
      <point x="377.1818181818182" y="473.8181818181818" type="line"/>
      <point x="197.35106382978722" y="473.8181818181818" type="line"/>
      <point x="197.35106382978722" y="565.3636363636364" type="line"/>
      <point x="330.3636363636364" y="565.3636363636364" type="line"/>
      <point x="756.8181818181818" y="1052.0" type="line"/>
    </contour>
    <contour>
      <point x="817.5106382978723" y="0.0" type="line"/>
      <point x="357.8404255319149" y="519.7127659574468" type="line"/>
      <point x="417.93617021276594" y="585.4255319148937" type="line"/>
      <point x="934.2234042553191" y="0.0" type="line"/>
    </contour>
  </outline>
</glyph>
<glyph name="OE" format="2">
  <advance width="1682.4787234042553"/>
  <unicode hex="0152"/>
  <outline>
    <contour>
      <point x="607.8829787234042" y="-21.0" type="qcurve" smooth="yes"/>
      <point x="419.4255319148936" y="-21.0"/>
      <point x="115.0" y="353.5531914893617"/>
      <point x="115.0" y="708.063829787234" type="qcurve" smooth="yes"/>
      <point x="115.0" y="756.8829787234042" type="line" smooth="yes"/>
      <point x="115.0" y="1097.1808510638298"/>
      <point x="416.9468085106383" y="1477.0"/>
      <point x="644.1914893617021" y="1477.0" type="qcurve" smooth="yes"/>
      <point x="673.5425531914893" y="1477.0"/>
      <point x="806.8191489361702" y="1464.0"/>
      <point x="866.0" y="1456.0" type="qcurve"/>
      <point x="1604.4787234042553" y="1456.0" type="line"/>
      <point x="1604.4787234042553" y="1366.6363636363637" type="line"/>
      <point x="884.0425531914893" y="1366.6363636363637" type="line"/>
      <point x="884.0425531914893" y="88.81818181818183" type="line"/>
      <point x="1614.4787234042553" y="88.81818181818183" type="line"/>
      <point x="1614.4787234042553" y="0.0" type="line"/>
      <point x="866.0" y="0.0" type="line"/>
      <point x="806.8191489361702" y="-7.0"/>
      <point x="675.0212765957447" y="-21.0"/>
    </contour>
    <contour>
      <point x="617.0" y="64.36363636363637" type="qcurve" smooth="yes"/>
      <point x="670.0" y="64.36363636363637"/>
      <point x="750.4545454545455" y="73.36363636363637"/>
      <point x="788.4545454545455" y="79.36363636363637" type="qcurve"/>
      <point x="788.4545454545455" y="1375.909090909091" type="line"/>
      <point x="736.4545454545455" y="1382.909090909091"/>
      <point x="641.0" y="1390.909090909091"/>
      <point x="619.0" y="1390.909090909091" type="qcurve" smooth="yes"/>
      <point x="442.0" y="1390.909090909091"/>
      <point x="212.0" y="1023.7446808510638"/>
      <point x="212.0" y="762.531914893617" type="qcurve" smooth="yes"/>
      <point x="212.0" y="699.2021276595744" type="line" smooth="yes"/>
      <point x="212.0" y="426.86170212765956"/>
      <point x="445.0" y="64.36363636363637"/>
    </contour>
    <contour>
      <point x="838.8723404255319" y="708.0" type="line"/>
      <point x="838.8723404255319" y="796.8181818181819" type="line"/>
      <point x="1512.4787234042553" y="796.8181818181819" type="line"/>
      <point x="1512.4787234042553" y="708.0" type="line"/>
    </contour>
  </outline>
</glyph>
<glyph name="oe" format="2">
  <advance width="1605.9468085106382"/>
  <unicode hex="0153"/>
  <outline>
    <contour>
      <point x="482.7127659574468" y="-30.0" type="qcurve" smooth="yes"/>
      <point x="307.563829787234" y="-30.0"/>
      <point x="85.0" y="272.0"/>
      <point x="85.0" y="509.99999999999994" type="qcurve" smooth="yes"/>
      <point x="85.0" y="542.0" type="line" smooth="yes"/>
      <point x="85.0" y="780.0"/>
      <point x="296.13829787234044" y="1081.0"/>
      <point x="477.77659574468083" y="1081.0" type="qcurve" smooth="yes"/>
      <point x="640.3191489361702" y="1081.0"/>
      <point x="811.0425531914893" y="921.0"/>
      <point x="826.8723404255318" y="866.0" type="qcurve"/>
      <point x="843.2234042553191" y="931.2127659574467"/>
      <point x="1013.9148936170211" y="1082.0"/>
      <point x="1156.468085106383" y="1082.0" type="qcurve" smooth="yes"/>
      <point x="1323.1382978723402" y="1082.0"/>
      <point x="1527.5106382978722" y="800.0"/>
      <point x="1525.9468085106382" y="560.0" type="qcurve" smooth="yes"/>
      <point x="1525.9468085106382" y="515.3636363636364" type="line"/>
      <point x="846.7446808510638" y="515.3636363636364" type="line"/>
      <point x="846.7446808510638" y="599.2727272727273" type="line"/>
      <point x="1429.1034816247582" y="599.2727272727273" type="line"/>
      <point x="1429.127659574468" y="656.0" type="line"/>
      <point x="1428.1943907156674" y="809.5454545454545"/>
      <point x="1288.3143133462281" y="995.4545454545455"/>
      <point x="1154.7127659574467" y="995.4545454545455" type="qcurve" smooth="yes"/>
      <point x="1021.9506769825919" y="995.4545454545455"/>
      <point x="885.2127659574467" y="747.8181818181818"/>
      <point x="885.2127659574467" y="542.0" type="qcurve" smooth="yes"/>
      <point x="885.2127659574467" y="509.99999999999994" type="line" smooth="yes"/>
      <point x="885.2127659574467" y="304.1818181818182"/>
      <point x="1029.2543520309478" y="56.54545454545453"/>
      <point x="1175.0531914893616" y="56.54545454545453" type="qcurve" smooth="yes"/>
      <point x="1272.8887814313346" y="56.54545454545453"/>
      <point x="1416.9177949709863" y="169.0116054158607"/>
      <point x="1455.2872340425533" y="265.82978723404256" type="qcurve"/>
      <point x="1516.904255319149" y="219.82978723404256" type="line"/>
      <point x="1480.4574468085107" y="119.28723404255318"/>
      <point x="1316.287234042553" y="-30.0"/>
      <point x="1191.9787234042553" y="-30.0" type="qcurve" smooth="yes"/>
      <point x="1031.9893617021276" y="-30.0"/>
      <point x="852.095744680851" y="110.0"/>
      <point x="827.8297872340424" y="185.0" type="qcurve"/>
      <point x="803.563829787234" y="111.0"/>
      <point x="641.2234042553191" y="-30.0"/>
    </contour>
    <contour>
      <point x="485.60638297872333" y="56.54545454545453" type="qcurve" smooth="yes"/>
      <point x="635.3336557059961" y="56.54545454545453"/>
      <point x="791.6063829787233" y="304.1818181818182"/>
      <point x="791.6063829787233" y="509.99999999999994" type="qcurve" smooth="yes"/>
      <point x="791.6063829787233" y="542.0" type="line" smooth="yes"/>
      <point x="791.6063829787233" y="747.8181818181818"/>
      <point x="635.3336557059961" y="995.4545454545455"/>
      <point x="485.60638297872333" y="995.4545454545455" type="qcurve" smooth="yes"/>
      <point x="335.87911025145064" y="995.4545454545455"/>
      <point x="179.6063829787234" y="747.2727272727273"/>
      <point x="179.6063829787234" y="542.0" type="qcurve" smooth="yes"/>
      <point x="179.6063829787234" y="509.99999999999994" type="line" smooth="yes"/>
      <point x="179.6063829787234" y="304.72727272727275"/>
      <point x="335.87911025145064" y="56.54545454545453"/>
    </contour>
  </outline>
</glyph>
<glyph name="Schwa" format="2">
  <advance width="1249.5212765957444"/>
  <unicode hex="018F"/>
  <outline>
    <contour>
      <point x="616.5212765957447" y="-30.0" type="qcurve" smooth="yes"/>
      <point x="377.8723404255319" y="-30.0"/>
      <point x="102.0" y="311.0"/>
      <point x="102.0" y="726.0" type="qcurve" smooth="yes"/>
      <point x="102.0" y="759.9090909090909" type="line"/>
      <point x="1083.0851063829787" y="759.9090909090909" type="line"/>
      <point x="1082.0425531914893" y="666.090909090909" type="line"/>
      <point x="639.3510638297872" y="671.090909090909" type="line"/>
      <point x="207.30851063829786" y="668.090909090909" type="line"/>
      <point x="208.35106382978722" y="567.0" type="line" smooth="yes"/>
      <point x="212.52127659574467" y="315.4477756286267"/>
      <point x="427.8965183752417" y="59.90909090909091"/>
      <point x="620.3510638297872" y="59.90909090909091" type="qcurve" smooth="yes"/>
      <point x="817.169245647969" y="59.90909090909091"/>
      <point x="1043.8056092843326" y="423.3636363636363"/>
      <point x="1041.351063829787" y="749.0" type="qcurve" smooth="yes"/>
      <point x="1039.351063829787" y="1076.909090909091"/>
      <point x="798.8056092843326" y="1391.4545454545455"/>
      <point x="602.3510638297871" y="1391.4545454545455" type="qcurve" smooth="yes"/>
      <point x="441.8056092843326" y="1391.4545454545455"/>
      <point x="240.62862669245646" y="1171.0425531914893"/>
      <point x="215.30851063829783" y="984.0" type="qcurve" smooth="yes"/>
      <point x="213.35106382978722" y="968.0" type="line"/>
      <point x="114.43617021276594" y="968.0" type="line"/>
      <point x="115.91489361702126" y="981.9999999999999" type="line" smooth="yes"/>
      <point x="140.0531914893617" y="1212.0"/>
      <point x="394.7446808510638" y="1488.9999999999998"/>
      <point x="606.6063829787233" y="1488.9999999999998" type="qcurve" smooth="yes"/>
      <point x="842.2553191489361" y="1488.9999999999998"/>
      <point x="1134.5212765957444" y="1128.0"/>
      <point x="1134.5212765957444" y="753.7872340425531" type="qcurve" smooth="yes"/>
      <point x="1134.5212765957444" y="384.0"/>
      <point x="864.0425531914893" y="-30.0"/>
    </contour>
  </outline>
</glyph>
